<svg width="1920" height="1080" viewBox="0 0 1920 1080" fill="none" xmlns="http://www.w3.org/2000/svg">
<g clip-path="url(#clip0)">
<path d="M1753 447.5L1737 449.5L1729 452L1717 458L1707.5 471L1704 489.5L1707 508L1718.5 521.5L1734.5 532L1755.5 532.5L1772 524L1785.5 508.5L1789 489C1787.83 484.333 1785.5 474.9 1785.5 474.5C1785.5 474.1 1780.17 465 1777.5 460.5L1763 451L1753 447.5Z" fill="black"/>
<path d="M1719.4 454.821C1714.69 458.378 1710.79 462.798 1707.82 467.951C1704.84 473.105 1702.96 478.69 1702.24 484.546C1701.53 490.203 1701.93 495.877 1703.41 501.408C1704.89 506.938 1707.39 512.049 1710.82 516.596C1714.38 521.304 1718.8 525.203 1723.95 528.177C1729.11 531.154 1734.69 533.031 1740.55 533.757C1746.21 534.461 1751.88 534.063 1757.41 532.581C1762.94 531.099 1768.05 528.604 1772.6 525.169C1777.31 521.612 1781.21 517.194 1784.18 512.039C1787.16 506.886 1789.03 501.304 1789.76 495.444C1790.46 489.789 1790.07 484.116 1788.58 478.586C1787.1 473.055 1784.61 467.944 1781.17 463.395C1777.62 458.687 1773.2 454.788 1768.04 451.813C1762.89 448.838 1757.31 446.958 1751.45 446.233C1745.79 445.533 1740.12 445.928 1734.59 447.41C1729.06 448.893 1723.95 451.386 1719.4 454.821ZM1718.86 516.483C1716.46 515.746 1714.17 514.769 1712.03 513.471C1707.55 506.963 1705.03 499.292 1704.74 491.446C1705.12 489.661 1705.62 487.91 1706.26 486.19C1706.46 485.659 1706.62 485.116 1706.85 484.592L1717.98 487.703C1718 487.779 1718.02 487.861 1718.05 487.945C1719.41 493.12 1721.31 498.111 1723.71 502.888C1723.72 502.91 1723.72 502.922 1723.73 502.942L1719.41 516.625C1719.23 516.587 1719.04 516.54 1718.86 516.483ZM1752.73 528.583C1754.61 528.985 1756.51 529.242 1758.42 529.354C1751.06 531.672 1743.07 531.943 1735.41 529.91L1752.29 528.464C1752.43 528.51 1752.58 528.551 1752.73 528.583ZM1751.89 525.691L1731.97 527.397C1729.02 525.292 1726.26 522.97 1723.72 520.377C1723.07 519.718 1722.38 519.094 1721.79 518.383L1726.11 504.713C1726.29 504.71 1726.48 504.704 1726.71 504.704C1731.7 504.702 1736.68 504.318 1741.63 503.733C1741.92 503.697 1742.17 503.669 1742.37 503.637L1755.43 516.678C1754.47 519.27 1753.48 521.855 1752.45 524.426C1752.28 524.854 1752.09 525.272 1751.89 525.691ZM1781.76 510.641C1780.65 512.562 1779.41 514.357 1778.05 516.025C1777.18 513.871 1776.11 511.815 1774.86 509.863L1779.62 489.546C1781.93 487.648 1784.09 485.616 1785.99 483.307C1786.24 483.007 1786.43 482.695 1786.56 482.376C1788.33 491.741 1786.89 501.758 1781.76 510.641ZM1775.16 487.714C1775.7 488.294 1776.23 488.883 1776.76 489.481L1772.16 509.105C1772.11 509.131 1772.07 509.156 1772.02 509.178C1767.29 511.438 1762.41 513.276 1757.36 514.654L1743.93 501.241C1744.65 498.205 1745.35 495.163 1746.04 492.122C1746.51 490.059 1746.96 487.989 1747.41 485.92L1765.88 478.878C1769.12 481.667 1772.26 484.562 1775.16 487.714ZM1765.85 468.394C1765.59 471.016 1765.26 473.631 1764.93 476.249L1746.93 483.108C1746.63 482.876 1746.32 482.65 1746.01 482.441C1743.16 480.551 1740.3 478.681 1737.45 476.803C1737.46 476.773 1737.47 476.748 1737.49 476.721C1736.36 476.073 1735.24 475.426 1734.12 474.776L1735.11 457.883C1735.44 457.694 1735.78 457.519 1736.13 457.384C1738.85 456.348 1741.57 455.274 1744.34 454.36C1746.03 453.802 1747.74 453.284 1749.53 452.939L1766.12 463.891C1766.06 465.395 1766 466.9 1765.85 468.394ZM1766.64 454.236C1771.1 456.813 1774.9 460.099 1777.98 463.873C1775.16 462.871 1772.25 462.205 1769.28 461.823C1768.81 461.763 1768.35 461.726 1767.87 461.693L1751.53 450.912C1751.46 450.278 1751.34 449.654 1751.19 449.032C1756.49 449.696 1761.74 451.407 1766.64 454.236ZM1723.13 455.755C1723.19 455.778 1723.22 455.802 1723.26 455.803C1726.39 456.025 1729.39 456.785 1732.31 457.858L1731.38 473.643C1731.36 473.656 1731.34 473.67 1731.32 473.687C1730.44 474.358 1729.54 474.992 1728.68 475.693C1725.18 478.579 1721.82 481.634 1718.8 485.029L1707.79 481.955C1707.73 481.654 1707.7 481.34 1707.73 481.044C1707.91 479.174 1708.08 477.297 1708.35 475.438C1708.56 474.007 1708.87 472.598 1709.23 471.202C1709.55 470.582 1709.89 469.962 1710.24 469.35C1713.54 463.631 1718.01 459.001 1723.18 455.586C1723.17 455.64 1723.15 455.696 1723.13 455.755Z" fill="#D8B9FF"/>
</g>
<defs>
<clipPath id="clip0">
<rect width="88.1771" height="88.1771" fill="white" transform="translate(1692 458.822) rotate(-15)"/>
</clipPath>
</defs>
</svg>
