<svg width="1920" height="1080" viewBox="0 0 1920 1080" fill="none" xmlns="http://www.w3.org/2000/svg">
<g clip-path="url(#clip0)">
<path d="M306.21 494.925L306.03 494.866L305.994 494.983L313.161 521.729L313.078 521.703L294.653 541.524L301.232 566.077C302.289 565.011 337.673 529.352 338.73 528.287C338.329 526.789 324.913 476.721 324.512 475.225L306.21 494.925Z" fill="#FF5284"/>
<path d="M279.929 486.448L261.328 506.026L268.703 533.547L294.652 541.524L313.077 521.703L313.136 521.641L305.993 494.983L306.029 494.867L279.929 486.448Z" fill="white"/>
<path d="M279.929 486.448L261.328 506.026L268.703 533.547L287.186 513.662L313.077 521.703L313.136 521.641L305.993 494.983L306.029 494.867L279.929 486.448Z" fill="#425072"/>
<path d="M272.797 459.953C271.499 461.319 237.675 496.902 235.646 499.037L261.33 506.026L279.931 486.447L306.031 494.866L306.211 494.925L324.513 475.225C321.988 474.479 275.089 460.629 272.797 459.953Z" fill="#FFE35C"/>
<path d="M268.703 533.547L261.329 506.026L235.645 499.037L249.862 552.099C251.311 552.493 299.783 565.683 301.232 566.077L294.653 541.524L268.703 533.547Z" fill="#A0E4F8"/>
<path d="M284.126 502.23C282.935 502.549 282.228 503.774 282.547 504.965C282.866 506.155 284.091 506.863 285.282 506.544C286.472 506.225 287.18 504.999 286.861 503.809C286.542 502.618 285.316 501.911 284.126 502.23Z" fill="black"/>
<path d="M340.889 527.709L326.671 474.647C326.668 474.634 326.662 474.622 326.658 474.609C326.448 473.877 325.886 473.317 325.18 473.096C325.169 473.093 325.157 473.087 325.147 473.083L273.43 457.811C272.626 457.574 271.757 457.807 271.179 458.415L234.038 497.488C233.508 498.036 233.291 498.84 233.485 499.593C233.487 499.6 233.487 499.607 233.489 499.615L247.707 552.677C247.913 553.445 248.511 554.046 249.277 554.254L300.647 568.232C301.018 568.333 301.427 568.337 301.811 568.234C302.196 568.131 302.549 567.921 302.818 567.65L340.316 529.86C340.877 529.296 341.094 528.477 340.889 527.709ZM238.809 502.212L259.506 507.843L265.503 530.225L244.592 523.797L238.809 502.212ZM255.849 481.025L275.868 487.483L260.631 503.522L239.842 497.865L255.849 481.025ZM320.425 476.346L305.544 492.363L283.997 485.412L298.704 469.932L320.425 476.346ZM293.972 538.978L272.764 532.459L287.868 516.211L309.027 522.782L293.972 538.978ZM287.851 511.529C287.032 511.275 286.138 511.513 285.553 512.142L269.817 529.069L263.812 506.657L278.779 490.903L280.235 496.337C280.554 497.528 281.778 498.235 282.97 497.916C284.161 497.597 284.868 496.372 284.549 495.181L283.112 489.82L304.116 496.595L309.958 518.396L287.851 511.529ZM271.907 536.868L292.817 543.295L298.071 562.902L277.374 557.27L271.907 536.868ZM297.131 542.139L312.026 526.116L317.494 546.52L302.385 561.746L297.131 542.139ZM308.509 495.734L323.402 479.703L329.146 501.141L314.251 517.164L308.509 495.734ZM273.475 462.482L293.894 468.511L279.281 483.891L259.263 477.433L273.475 462.482ZM245.957 528.889L266.867 535.316L272.386 555.913L251.689 550.282L245.957 528.889ZM321.134 542.851L315.616 522.257L330.511 506.233L336.243 527.625L321.134 542.851Z" fill="black"/>
</g>
<defs>
<clipPath id="clip0">
<rect width="114.333" height="114.333" fill="white" transform="translate(217 472.592) rotate(-15)"/>
</clipPath>
</defs>
</svg>
