<svg width="1920" height="1080" viewBox="0 0 1920 1080" fill="none" xmlns="http://www.w3.org/2000/svg">
<g clip-path="url(#clip0)">
<path d="M308 886C308.015 893.099 306.172 900.078 302.656 906.245C302.175 907.093 301.666 907.927 301.115 908.748C300.52 909.657 299.878 910.535 299.192 911.377C298.57 912.183 297.891 912.975 297.198 913.738C296.364 914.643 295.488 915.505 294.583 916.339C293.749 917.103 292.872 917.838 291.968 918.517C291.317 919.04 290.638 919.52 289.96 919.987C288.9 920.694 287.825 921.358 286.708 921.98H286.68C284.796 923.008 282.834 923.888 280.813 924.61C279.322 925.153 277.796 925.598 276.246 925.939C274.613 926.326 272.955 926.6 271.284 926.759C271.181 926.78 271.077 926.794 270.973 926.801C269.658 926.929 268.343 927 267 927C244.357 927 226 908.643 226 886C226.001 881.864 226.62 877.751 227.838 873.799C228.384 872.076 229.04 870.39 229.803 868.751C230.462 867.332 231.199 865.949 232.009 864.609L232.037 864.567C233.223 862.632 234.571 860.802 236.067 859.096C236.888 858.13 237.766 857.214 238.696 856.352L238.724 856.324C240.02 855.062 241.409 853.899 242.881 852.846C243.785 852.182 244.719 851.56 245.666 850.966C246.656 850.372 247.674 849.821 248.706 849.312C249.62 848.834 250.559 848.405 251.519 848.025H251.533C252.481 847.629 253.442 847.276 254.431 846.965C255.35 846.668 256.298 846.4 257.245 846.173C269.475 843.183 282.4 845.975 292.304 853.747C302.209 861.519 307.996 873.41 308 886V886Z" fill="#A0FF0A"/>
<path d="M294.586 916.34C293.752 917.104 292.876 917.839 291.971 918.518C263.443 914.791 242.126 890.453 242.192 861.683C242.185 858.724 242.417 855.769 242.884 852.847C243.789 852.183 244.722 851.561 245.669 850.966C245.875 851.264 245.951 851.631 245.881 851.984C243.203 866.872 246.825 882.204 255.886 894.317C264.946 906.43 278.629 914.237 293.667 915.874C294.019 915.914 294.346 916.08 294.586 916.34Z" fill="black"/>
<path d="M299.192 911.377C298.571 912.183 297.892 912.975 297.199 913.739C296.549 913.64 295.913 913.541 295.277 913.428C294.907 913.362 294.579 913.152 294.364 912.845C294.149 912.537 294.066 912.157 294.131 911.788C294.146 911.705 294.17 911.625 294.202 911.547C294.43 910.9 295.097 910.515 295.772 910.642C296.662 910.812 297.553 910.94 298.457 911.067C298.729 911.093 298.985 911.201 299.192 911.377Z" fill="black"/>
<path d="M260.396 887.599C259.958 886.953 259.079 886.785 258.433 887.223C257.786 887.661 257.618 888.541 258.057 889.187C259.117 890.749 260.272 892.28 261.486 893.735C261.805 894.138 262.318 894.337 262.825 894.253C263.332 894.17 263.754 893.818 263.927 893.334C264.1 892.85 263.996 892.31 263.657 891.924C262.502 890.54 261.404 889.085 260.396 887.599V887.599Z" fill="black"/>
<path d="M252.626 879.189C253.356 880.931 254.181 882.658 255.09 884.324C255.331 884.767 255.791 885.05 256.296 885.063C256.8 885.076 257.274 884.819 257.538 884.388C257.802 883.958 257.816 883.419 257.576 882.975C256.714 881.388 255.933 879.76 255.235 878.096C254.932 877.376 254.104 877.036 253.383 877.338C252.663 877.64 252.324 878.468 252.626 879.189Z" fill="black"/>
<path d="M249.861 863.945H250.002C250.376 863.91 250.72 863.727 250.959 863.437C251.197 863.148 251.311 862.775 251.275 862.401C251.102 860.632 251.016 858.827 251.015 856.988C251.014 856.616 250.864 856.259 250.598 855.998C250.333 855.737 249.974 855.593 249.601 855.598C248.816 855.61 248.186 856.251 248.188 857.036C248.188 858.917 248.279 860.815 248.462 862.676C248.535 863.394 249.139 863.942 249.861 863.945Z" fill="black"/>
<path d="M249.293 868.307C249.664 870.171 250.129 872.016 250.686 873.833C250.868 874.427 251.416 874.833 252.037 874.833C252.177 874.832 252.317 874.812 252.451 874.771C252.81 874.661 253.111 874.414 253.286 874.082C253.463 873.751 253.5 873.363 253.39 873.005C252.861 871.278 252.419 869.525 252.067 867.754C251.914 866.988 251.169 866.491 250.404 866.644C249.637 866.796 249.141 867.541 249.293 868.307Z" fill="black"/>
<path d="M273.804 903.097C273.599 903.411 273.527 903.794 273.605 904.161C273.682 904.528 273.901 904.849 274.215 905.054C275.803 906.089 277.458 907.057 279.137 907.927C279.828 908.27 280.667 907.997 281.022 907.312C281.377 906.627 281.118 905.784 280.439 905.417C278.844 904.59 277.271 903.673 275.768 902.683C275.453 902.476 275.069 902.403 274.7 902.481C274.331 902.559 274.008 902.78 273.804 903.097V903.097Z" fill="black"/>
<path d="M265.327 895.924C264.78 896.481 264.788 897.376 265.345 897.923C266.692 899.248 268.124 900.521 269.602 901.709C270.211 902.2 271.102 902.105 271.594 901.497C272.086 900.888 271.991 899.996 271.382 899.505C269.977 898.374 268.615 897.164 267.333 895.905C267.065 895.64 266.702 895.493 266.326 895.497C265.949 895.5 265.589 895.654 265.327 895.924V895.924Z" fill="black"/>
<path d="M283.53 908.461C283.391 908.809 283.396 909.199 283.545 909.544C283.693 909.889 283.972 910.16 284.321 910.299C286.088 911.002 287.889 911.615 289.718 912.137C289.843 912.174 289.975 912.192 290.106 912.192C290.812 912.193 291.411 911.673 291.509 910.975C291.607 910.275 291.174 909.611 290.495 909.418C288.767 908.925 287.041 908.336 285.367 907.671C284.642 907.382 283.819 907.736 283.53 908.461Z" fill="black"/>
<path d="M251.634 848.804C251.492 849.708 251.379 850.627 251.28 851.532C251.214 852.255 250.607 852.808 249.88 852.804H249.739C248.962 852.72 248.396 852.028 248.467 851.249C248.538 850.599 248.608 849.949 248.707 849.312C249.622 848.835 250.561 848.406 251.521 848.026H251.534C251.638 848.271 251.673 848.54 251.634 848.804Z" fill="black"/>
<path d="M232.039 864.567C232.512 864.836 232.788 865.354 232.746 865.897C232.675 866.801 232.632 867.72 232.619 868.639C232.599 869.407 231.972 870.02 231.205 870.024H231.176C230.464 870.007 229.876 869.461 229.805 868.752L232.039 864.567Z" fill="black"/>
<path d="M237.159 891.525C236.372 889.73 235.683 887.892 235.096 886.022C234.945 885.539 234.547 885.175 234.054 885.065C233.561 884.955 233.046 885.116 232.705 885.489C232.363 885.862 232.246 886.388 232.397 886.87C233.016 888.839 233.742 890.774 234.569 892.666C234.761 893.145 235.197 893.481 235.709 893.544C236.221 893.607 236.726 893.386 237.028 892.968C237.329 892.55 237.379 892.001 237.159 891.535V891.525Z" fill="black"/>
<path d="M233.645 880.327C233.264 878.404 232.988 876.462 232.817 874.51C232.781 874.001 232.473 873.55 232.011 873.331C231.549 873.112 231.005 873.16 230.588 873.456C230.171 873.752 229.946 874.25 230 874.758C230.18 876.811 230.471 878.853 230.871 880.875C230.969 881.372 231.323 881.778 231.802 881.941C232.28 882.105 232.81 882 233.19 881.667C233.57 881.333 233.744 880.823 233.645 880.327Z" fill="black"/>
<path d="M260.436 917.213C258.728 916.251 257.073 915.199 255.477 914.063C255.066 913.769 254.53 913.717 254.07 913.926C253.61 914.136 253.297 914.574 253.249 915.077C253.2 915.58 253.423 916.071 253.834 916.364C255.512 917.56 257.253 918.666 259.049 919.677C259.729 920.06 260.591 919.818 260.974 919.138C261.357 918.458 261.116 917.595 260.436 917.213V917.213Z" fill="black"/>
<path d="M246.712 906.263C246.182 905.71 245.309 905.679 244.742 906.193C244.174 906.708 244.12 907.58 244.618 908.161C246.001 909.688 247.464 911.14 249.001 912.51C249.584 913.029 250.478 912.977 250.997 912.394C251.516 911.811 251.464 910.917 250.881 910.398C249.419 909.095 248.027 907.714 246.712 906.263Z" fill="black"/>
<path d="M271.215 921.816C269.342 921.246 267.501 920.575 265.701 919.807C264.984 919.508 264.161 919.842 263.856 920.556C263.551 921.27 263.878 922.095 264.59 922.406C266.485 923.218 268.422 923.926 270.393 924.527C270.527 924.567 270.666 924.588 270.805 924.588C271.505 924.588 272.1 924.075 272.203 923.382C272.306 922.688 271.886 922.025 271.215 921.821V921.816Z" fill="black"/>
<path d="M239.809 896.772C239.419 896.095 238.553 895.862 237.877 896.253C237.2 896.643 236.967 897.508 237.357 898.186C238.385 899.973 239.507 901.704 240.719 903.372C240.986 903.738 241.412 903.955 241.865 903.954C242.397 903.953 242.883 903.654 243.124 903.18C243.364 902.706 243.319 902.137 243.005 901.708C241.852 900.12 240.786 898.473 239.809 896.772V896.772Z" fill="black"/>
<path d="M280.814 924.611C279.323 925.154 277.797 925.598 276.248 925.94C275.543 925.708 275.14 924.968 275.327 924.251C275.514 923.533 276.227 923.084 276.955 923.225C277.859 923.395 278.764 923.536 279.669 923.663C280.203 923.729 280.65 924.099 280.814 924.611V924.611Z" fill="black"/>
<path d="M238.725 856.325C239.033 856.638 239.175 857.079 239.107 857.513C238.98 858.417 238.881 859.322 238.796 860.255C238.73 860.986 238.116 861.545 237.382 861.542C237.34 861.544 237.297 861.539 237.255 861.528C236.884 861.495 236.54 861.316 236.301 861.029C236.062 860.743 235.948 860.372 235.983 860.001C236.011 859.69 236.039 859.393 236.068 859.096L238.725 856.325Z" fill="black"/>
<path d="M268.95 917.022C269.409 917.241 269.951 917.196 270.368 916.905C270.785 916.614 271.014 916.122 270.967 915.615C270.92 915.109 270.604 914.666 270.141 914.457C268.461 913.677 266.823 912.811 265.232 911.862C264.561 911.463 263.693 911.683 263.293 912.354C262.894 913.025 263.113 913.893 263.784 914.293C265.459 915.289 267.183 916.2 268.95 917.022V917.022Z" fill="black"/>
<path d="M256.322 905.246C255.949 904.905 255.422 904.789 254.941 904.941C254.459 905.094 254.095 905.491 253.986 905.985C253.878 906.478 254.04 906.992 254.413 907.333C255.852 908.648 257.357 909.889 258.922 911.051C259.164 911.234 259.459 911.334 259.763 911.334C260.371 911.334 260.911 910.945 261.104 910.367C261.297 909.79 261.098 909.154 260.611 908.789C259.123 907.681 257.691 906.498 256.322 905.246Z" fill="black"/>
<path d="M280.622 918.073C278.819 917.652 277.039 917.14 275.288 916.538C274.807 916.362 274.269 916.459 273.881 916.791C273.492 917.124 273.314 917.64 273.414 918.142C273.514 918.644 273.878 919.052 274.364 919.21C276.207 919.845 278.081 920.386 279.979 920.829C280.731 920.986 281.47 920.514 281.645 919.767C281.82 919.019 281.366 918.269 280.622 918.076V918.073Z" fill="black"/>
<path d="M245.388 894.238C245.713 894.05 245.949 893.741 246.045 893.378C246.141 893.016 246.09 892.63 245.902 892.306C244.971 890.701 244.124 889.05 243.363 887.357C243.031 886.667 242.209 886.367 241.509 886.682C240.81 886.996 240.489 887.812 240.787 888.518C241.587 890.296 242.478 892.033 243.457 893.72C243.849 894.394 244.713 894.624 245.388 894.233V894.238Z" fill="black"/>
<path d="M248.929 896.965C248.458 896.372 247.603 896.254 246.99 896.7C246.376 897.144 246.223 897.994 246.642 898.625C247.787 900.204 249.01 901.723 250.308 903.176C250.828 903.759 251.722 903.81 252.305 903.29C252.887 902.769 252.938 901.876 252.418 901.293C251.183 899.91 250.018 898.466 248.929 896.965Z" fill="black"/>
<path d="M237.538 872.924C237.593 872.925 237.648 872.921 237.703 872.914C238.075 872.872 238.415 872.683 238.648 872.389C238.881 872.095 238.988 871.72 238.945 871.348C238.731 869.507 238.609 867.656 238.582 865.803C238.562 865.026 237.926 864.407 237.149 864.409C236.773 864.414 236.416 864.568 236.154 864.837C235.893 865.106 235.749 865.467 235.754 865.843C235.782 867.791 235.907 869.737 236.131 871.673C236.213 872.388 236.819 872.926 237.538 872.924Z" fill="black"/>
<path d="M238.18 875.752C237.417 875.92 236.936 876.674 237.104 877.437C237.526 879.342 238.045 881.225 238.659 883.076C238.851 883.655 239.392 884.045 240.001 884.045C240.152 884.045 240.303 884.021 240.446 883.973C240.802 883.855 241.097 883.601 241.265 883.265C241.434 882.93 241.462 882.542 241.344 882.186C240.76 880.426 240.267 878.638 239.867 876.828C239.786 876.461 239.562 876.142 239.247 875.94C238.93 875.739 238.546 875.67 238.18 875.752Z" fill="black"/>
<path d="M289.964 919.988C288.903 920.695 287.828 921.359 286.712 921.981H286.684C286.386 921.938 286.075 921.91 285.778 921.868C285.041 921.729 284.54 921.039 284.637 920.294C284.735 919.55 285.397 919.012 286.146 919.069C287.051 919.182 287.956 919.266 288.889 919.337C289.332 919.363 289.735 919.607 289.964 919.988V919.988Z" fill="black"/>
<path d="M257.289 846.669C257.205 847.588 257.134 848.493 257.077 849.426C257.04 850.171 256.424 850.756 255.678 850.754H255.592C254.817 850.709 254.224 850.046 254.264 849.27C254.292 848.507 254.362 847.729 254.433 846.966C255.352 846.669 256.299 846.4 257.247 846.174C257.29 846.335 257.304 846.503 257.289 846.669V846.669Z" fill="black"/>
<path d="M271.935 893.846C272.301 894.194 272.825 894.321 273.31 894.178C273.795 894.036 274.167 893.646 274.286 893.154C274.405 892.663 274.253 892.146 273.887 891.797C272.469 890.443 271.124 889.015 269.859 887.519C269.537 887.122 269.024 886.929 268.52 887.017C268.016 887.104 267.598 887.457 267.428 887.94C267.258 888.423 267.362 888.96 267.7 889.344C269.03 890.919 270.444 892.422 271.935 893.846V893.846Z" fill="black"/>
<path d="M287.162 904.282C289.027 905.157 290.938 905.931 292.887 906.599C293.035 906.65 293.189 906.677 293.346 906.677C294.036 906.677 294.626 906.177 294.74 905.496C294.853 904.814 294.457 904.15 293.804 903.926C291.951 903.29 290.134 902.555 288.362 901.723C287.902 901.492 287.354 901.528 286.929 901.818C286.504 902.109 286.27 902.607 286.319 903.119C286.367 903.631 286.69 904.077 287.162 904.282Z" fill="black"/>
<path d="M281.721 901.358C282.387 901.748 283.242 901.533 283.644 900.874C284.045 900.215 283.843 899.356 283.191 898.944C281.518 897.924 279.901 896.816 278.347 895.624C277.726 895.177 276.863 895.303 276.398 895.91C275.932 896.516 276.033 897.383 276.626 897.866C278.26 899.121 279.961 900.286 281.721 901.358V901.358Z" fill="black"/>
<path d="M260.789 879.117C261.753 880.939 262.814 882.709 263.969 884.418C264.251 884.837 264.736 885.073 265.24 885.037C265.743 885.001 266.19 884.699 266.411 884.245C266.632 883.791 266.594 883.253 266.312 882.835C265.214 881.213 264.205 879.532 263.29 877.801C263.054 877.353 262.597 877.067 262.092 877.048C261.588 877.029 261.111 877.281 260.842 877.709C260.573 878.136 260.553 878.675 260.789 879.122V879.117Z" fill="black"/>
<path d="M255.599 853.964C254.82 854.006 254.222 854.671 254.264 855.451C254.373 857.51 254.592 859.56 254.921 861.596C255.002 862.094 255.343 862.512 255.815 862.691C256.288 862.87 256.82 862.784 257.212 862.464C257.603 862.145 257.794 861.641 257.713 861.142C257.401 859.208 257.191 857.258 257.087 855.301C257.067 854.926 256.899 854.576 256.62 854.325C256.341 854.074 255.974 853.944 255.599 853.964Z" fill="black"/>
<path d="M256.237 867.636C256.785 869.626 257.441 871.583 258.202 873.501C258.416 874.04 258.937 874.395 259.517 874.395C259.985 874.394 260.423 874.162 260.686 873.775C260.949 873.387 261.003 872.895 260.83 872.459C260.108 870.636 259.484 868.776 258.963 866.886C258.747 866.144 257.975 865.713 257.23 865.918C256.485 866.124 256.043 866.889 256.237 867.636Z" fill="black"/>
<path d="M302.658 906.246C302.177 907.094 301.668 907.928 301.117 908.748C300.353 908.621 299.604 908.465 298.869 908.296C298.362 908.198 297.949 907.832 297.791 907.342C297.633 906.851 297.754 906.313 298.108 905.938C298.462 905.562 298.991 905.41 299.491 905.539C300.382 905.736 301.286 905.907 302.191 906.062C302.359 906.087 302.518 906.15 302.658 906.246Z" fill="black"/>
<path d="M295.686 868.125C292.504 864.171 287.952 862.553 285.519 864.512C283.086 866.47 283.693 871.263 286.875 875.216C290.058 879.17 294.61 880.787 297.043 878.829C299.476 876.871 298.868 872.078 295.686 868.125Z" fill="black"/>
<path d="M277.121 854.666C274.828 854.191 272.66 855.293 272.28 857.128C271.9 858.963 273.451 860.836 275.745 861.311C278.039 861.786 280.207 860.683 280.586 858.849C280.967 857.014 279.415 855.141 277.121 854.666Z" fill="black"/>
</g>
<defs>
<clipPath id="clip0">
<rect width="82" height="82" fill="white" transform="translate(226 845)"/>
</clipPath>
</defs>
</svg>
