<svg width="1920" height="1080" viewBox="0 0 1920 1080" fill="none" xmlns="http://www.w3.org/2000/svg">
<g clip-path="url(#clip0)">
<path d="M1776.86 894.559C1771.98 892.352 1766.44 891.431 1760.73 892.172C1758.07 892.519 1755.53 893.209 1753.16 894.188C1742.17 898.729 1734.75 909.538 1734.72 921.666C1747.4 918.815 1765.31 911.803 1776.86 894.559Z" fill="#D8D8DA"/>
<path d="M1793.82 915.697C1791.83 906.084 1785.33 898.386 1776.86 894.559C1765.31 911.803 1747.4 918.815 1734.72 921.666C1734.71 922.977 1734.8 924.304 1734.97 925.64C1735.38 928.814 1736.28 931.806 1737.58 934.552C1739.94 939.561 1743.64 943.751 1748.16 946.731C1762.32 944.825 1783.39 938.105 1793.82 915.697Z" fill="#FECE00"/>
<path d="M1748.65 946.663C1748.48 946.687 1748.43 946.909 1748.58 947.001C1754.27 950.622 1761.22 952.344 1768.44 951.405C1784.79 949.279 1796.33 934.295 1794.2 917.938C1794.11 917.259 1794 916.589 1793.87 915.927C1793.86 915.854 1793.76 915.843 1793.72 915.911C1783.37 937.891 1762.76 944.675 1748.65 946.663Z" fill="#D8D8DA"/>
<path d="M1768.34 935.748C1774.49 934.949 1778.82 929.319 1778.02 923.172C1777.23 917.026 1771.59 912.692 1765.45 913.491C1759.3 914.29 1754.97 919.92 1755.77 926.066C1756.57 932.213 1762.2 936.547 1768.34 935.748Z" fill="white"/>
<path d="M1753.16 894.188C1747.78 882.782 1735.49 875.62 1722.3 877.334C1705.95 879.461 1694.41 894.445 1696.54 910.802C1698.67 927.159 1713.65 938.695 1730.01 936.568C1732.67 936.221 1735.21 935.531 1737.58 934.552C1736.28 931.806 1735.38 928.814 1734.97 925.64C1733.19 911.948 1740.98 899.22 1753.16 894.188Z" fill="#2E2E30"/>
<path d="M1734.97 925.64C1733.19 911.948 1740.98 899.22 1753.16 894.188C1752.25 892.266 1751.15 890.465 1749.88 888.806C1737.08 894.504 1728.52 907.31 1728.47 921.64C1728.47 923.226 1728.57 924.829 1728.78 926.444C1729.23 929.941 1730.18 933.253 1731.53 936.326C1733.64 935.941 1735.66 935.343 1737.58 934.552C1736.28 931.805 1735.38 928.814 1734.97 925.64Z" fill="#1D1D1F"/>
<path d="M1716.33 920.18C1723.61 919.234 1728.74 912.567 1727.79 905.29C1726.85 898.012 1720.18 892.88 1712.9 893.826C1705.63 894.773 1700.49 901.439 1701.44 908.716C1702.39 915.994 1709.05 921.126 1716.33 920.18Z" fill="white"/>
<path d="M1795.34 915.883L1795.34 915.873L1795.24 915.403C1793.34 906.199 1787.31 898.308 1778.99 893.985L1779.01 893.944L1777.46 893.24C1777.45 893.239 1777.45 893.237 1777.45 893.236L1776.34 892.735L1776.32 892.757C1771.34 890.739 1765.91 890.039 1760.55 890.737C1758.26 891.034 1756.02 891.583 1753.87 892.366C1751.04 886.973 1746.74 882.568 1741.36 879.577C1735.47 876.299 1728.82 875.028 1722.12 875.899C1705 878.126 1692.88 893.867 1695.1 910.989C1697.33 928.111 1713.07 940.229 1730.19 938.003C1732.48 937.706 1734.72 937.157 1736.87 936.374C1739.33 941.036 1742.93 945.016 1747.36 947.939L1747.82 948.238L1747.82 948.237C1753.99 952.148 1761.37 953.784 1768.62 952.841C1785.75 950.615 1797.86 934.874 1795.64 917.751C1795.56 917.128 1795.45 916.501 1795.34 915.883ZM1774.62 895.199C1774.64 895.193 1774.65 895.189 1774.67 895.184C1763.98 910.136 1748.3 916.828 1736.24 919.819C1736.24 919.805 1736.24 919.791 1736.24 919.777C1736.23 919.796 1736.21 919.814 1736.19 919.832C1736.18 919.835 1736.17 919.837 1736.16 919.839C1736.19 919.815 1736.21 919.791 1736.24 919.768C1736.98 909.057 1743.68 899.673 1753.72 895.526C1756.02 894.576 1758.44 893.931 1760.92 893.608C1765.57 893.003 1770.27 893.553 1774.62 895.199ZM1729.82 935.132C1714.28 937.153 1700 926.155 1697.97 910.616C1695.95 895.077 1706.95 880.791 1722.49 878.77C1734.27 877.239 1745.6 883.104 1751.17 893.458C1751.2 893.455 1751.23 893.454 1751.26 893.451C1746.16 895.845 1741.82 899.56 1738.63 904.272C1735.36 909.116 1733.53 914.704 1733.3 920.502L1733.27 920.507L1733.27 921.662L1733.27 923.476L1733.32 923.464C1733.32 923.48 1733.32 923.497 1733.32 923.513C1733.33 923.616 1733.33 923.719 1733.34 923.821C1733.36 924.108 1733.38 924.394 1733.41 924.681C1733.42 924.759 1733.42 924.836 1733.43 924.913C1733.46 925.217 1733.49 925.521 1733.53 925.826C1733.57 926.134 1733.62 926.441 1733.67 926.747C1733.68 926.802 1733.69 926.857 1733.7 926.912C1733.74 927.205 1733.8 927.498 1733.85 927.79C1733.86 927.846 1733.88 927.903 1733.89 927.959C1733.95 928.259 1734.01 928.558 1734.08 928.856C1734.08 928.87 1734.09 928.884 1734.09 928.898C1734.16 929.188 1734.23 929.477 1734.3 929.765C1734.32 929.816 1734.33 929.867 1734.34 929.917C1734.42 930.203 1734.5 930.488 1734.59 930.772C1734.6 930.829 1734.62 930.886 1734.64 930.944C1734.73 931.232 1734.82 931.519 1734.91 931.805C1734.92 931.831 1734.93 931.856 1734.94 931.882C1735.03 932.154 1735.13 932.425 1735.23 932.695C1735.25 932.743 1735.27 932.791 1735.28 932.839C1735.39 933.114 1735.5 933.388 1735.61 933.66C1735.62 933.688 1735.63 933.716 1735.64 933.744C1733.76 934.408 1731.81 934.874 1729.82 935.132ZM1738.89 933.934C1737.62 931.259 1736.79 928.406 1736.41 925.453C1736.38 925.223 1736.35 924.994 1736.32 924.765C1736.32 924.697 1736.31 924.63 1736.31 924.562C1736.29 924.396 1736.27 924.229 1736.26 924.063C1736.26 924.005 1736.25 923.947 1736.25 923.89C1736.23 923.704 1736.22 923.519 1736.21 923.334C1736.21 923.309 1736.21 923.285 1736.21 923.26C1736.2 923.11 1736.19 922.961 1736.19 922.811C1748.95 919.762 1765.94 912.706 1777.35 896.399C1784.92 900.216 1790.44 907.261 1792.31 915.519C1792.15 915.839 1792 916.159 1791.84 916.472C1791.84 916.473 1791.84 916.473 1791.84 916.473C1781.83 936.487 1762.95 943.177 1748.51 945.221C1744.35 942.366 1741.03 938.474 1738.89 933.934ZM1768.25 949.97C1762.85 950.672 1757.37 949.799 1752.48 947.501C1752.51 947.497 1752.53 947.492 1752.55 947.488C1752.55 947.487 1752.55 947.486 1752.54 947.486C1760.12 946.058 1767.02 943.605 1773.1 940.162C1781.55 935.381 1788.21 928.788 1792.95 920.527C1792.95 920.529 1792.95 920.53 1792.95 920.531C1792.96 920.516 1792.97 920.501 1792.98 920.486C1793.66 935.085 1783 948.052 1768.25 949.97Z" fill="black"/>
<path d="M1768.53 937.184C1775.46 936.283 1780.36 929.914 1779.46 922.985C1778.56 916.057 1772.19 911.154 1765.26 912.055C1758.34 912.955 1753.43 919.325 1754.33 926.253C1755.23 933.181 1761.6 938.085 1768.53 937.184ZM1765.64 914.926C1770.98 914.231 1775.9 918.014 1776.59 923.359C1776.61 923.467 1776.61 923.574 1776.62 923.682L1775.52 922.003L1773.52 923.321L1768.85 916.234L1766.69 917.656C1766.7 917.785 1766.66 917.995 1766.57 918.286C1766.49 918.577 1766.37 918.893 1766.21 919.233C1766.06 919.575 1765.89 919.896 1765.7 920.196C1765.5 920.497 1765.31 920.709 1765.12 920.834L1766.42 922.803C1766.62 922.671 1766.82 922.484 1767.03 922.241C1767.24 921.998 1767.43 921.739 1767.59 921.464C1767.76 921.19 1767.9 920.919 1768.02 920.653C1768.14 920.387 1768.2 920.16 1768.21 919.971L1771.36 924.744L1769.12 926.218L1770.38 928.123L1776.65 923.99C1776.98 929.086 1773.29 933.645 1768.16 934.313C1762.81 935.008 1757.9 931.225 1757.2 925.88C1756.51 920.535 1760.29 915.621 1765.64 914.926Z" fill="black"/>
<path d="M1712.71 892.391C1704.66 893.438 1698.95 900.846 1700 908.903C1701.05 916.96 1708.46 922.663 1716.51 921.615C1724.57 920.568 1730.27 913.16 1729.23 905.103C1728.18 897.046 1720.77 891.343 1712.71 892.391ZM1716.14 918.744C1709.67 919.586 1703.71 915.003 1702.87 908.529C1702.03 902.055 1706.61 896.103 1713.09 895.261C1719.56 894.42 1725.51 899.002 1726.36 905.476C1727.2 911.95 1722.61 917.902 1716.14 918.744Z" fill="black"/>
<path d="M1718.4 901.143C1718 900.705 1717.53 900.341 1716.99 900.05C1716.44 899.759 1715.89 899.557 1715.34 899.445C1714.78 899.329 1714.2 899.303 1713.59 899.364C1712.99 899.425 1712.41 899.579 1711.87 899.824C1711.33 900.069 1710.86 900.412 1710.46 900.851C1710.06 901.291 1709.8 901.839 1709.66 902.497C1709.54 903.086 1709.61 903.663 1709.86 904.229C1710.12 904.796 1710.47 905.254 1710.93 905.605C1710.63 905.686 1710.32 905.808 1710.01 905.972C1709.7 906.137 1709.4 906.34 1709.12 906.583C1708.85 906.825 1708.6 907.107 1708.39 907.428C1708.18 907.749 1708.04 908.116 1707.95 908.526C1707.82 909.198 1707.83 909.842 1707.98 910.46C1708.14 911.078 1708.42 911.642 1708.82 912.151C1709.21 912.661 1709.71 913.094 1710.3 913.453C1710.9 913.811 1711.56 914.065 1712.29 914.214C1713.01 914.363 1713.72 914.397 1714.41 914.317C1715.1 914.237 1715.72 914.049 1716.29 913.751C1716.86 913.454 1717.34 913.06 1717.73 912.57C1718.13 912.08 1718.39 911.492 1718.53 910.807C1718.62 910.383 1718.64 909.979 1718.58 909.596C1718.52 909.213 1718.41 908.852 1718.26 908.512C1718.1 908.173 1717.9 907.862 1717.68 907.58C1717.45 907.297 1717.2 907.05 1716.93 906.837C1717.22 906.767 1717.49 906.661 1717.77 906.516C1718.04 906.373 1718.29 906.198 1718.51 905.994C1718.73 905.79 1718.91 905.556 1719.07 905.295C1719.22 905.035 1719.33 904.76 1719.39 904.472C1719.52 903.815 1719.49 903.205 1719.29 902.643C1719.09 902.082 1718.8 901.582 1718.4 901.143ZM1715.77 910.07C1715.71 910.385 1715.58 910.661 1715.39 910.9C1715.2 911.14 1714.96 911.331 1714.69 911.475C1714.42 911.619 1714.12 911.715 1713.8 911.762C1713.47 911.81 1713.15 911.8 1712.82 911.732C1712.5 911.668 1712.21 911.553 1711.93 911.389C1711.65 911.224 1711.41 911.022 1711.22 910.782C1711.02 910.543 1710.88 910.274 1710.79 909.978C1710.7 909.681 1710.69 909.368 1710.76 909.04C1710.83 908.711 1710.96 908.427 1711.15 908.188C1711.34 907.949 1711.57 907.757 1711.84 907.611C1712.1 907.466 1712.39 907.373 1712.72 907.332C1713.04 907.291 1713.37 907.305 1713.69 907.372C1714.01 907.437 1714.31 907.548 1714.59 907.706C1714.87 907.864 1715.11 908.06 1715.31 908.294C1715.52 908.528 1715.66 908.797 1715.75 909.1C1715.84 909.404 1715.84 909.727 1715.77 910.07ZM1716.55 903.977C1716.5 904.264 1716.38 904.502 1716.22 904.689C1716.05 904.876 1715.85 905.024 1715.62 905.134C1715.39 905.244 1715.15 905.312 1714.88 905.336C1714.62 905.361 1714.37 905.349 1714.14 905.301C1713.89 905.251 1713.66 905.163 1713.43 905.038C1713.21 904.914 1713.01 904.759 1712.84 904.575C1712.68 904.39 1712.55 904.179 1712.47 903.941C1712.39 903.704 1712.38 903.441 1712.44 903.153C1712.54 902.647 1712.83 902.28 1713.29 902.053C1713.75 901.827 1714.26 901.771 1714.82 901.886C1715.4 902.005 1715.85 902.256 1716.2 902.64C1716.54 903.024 1716.66 903.47 1716.55 903.977Z" fill="black"/>
<path d="M1760.63 925.521C1760.75 925.255 1760.82 925.028 1760.83 924.84L1763.97 929.612L1761.74 931.086L1762.99 932.992L1769.39 928.777L1768.13 926.871L1766.13 928.19L1761.46 921.102L1759.3 922.524C1759.31 922.654 1759.27 922.864 1759.19 923.154C1759.1 923.445 1758.98 923.761 1758.83 924.102C1758.68 924.443 1758.5 924.764 1758.31 925.064C1758.12 925.366 1757.93 925.578 1757.74 925.702L1759.04 927.671C1759.23 927.54 1759.44 927.353 1759.65 927.109C1759.86 926.866 1760.04 926.607 1760.21 926.333C1760.37 926.058 1760.52 925.788 1760.63 925.521Z" fill="black"/>
<path d="M1771.88 882.865L1774.71 883.472L1776.73 874.064L1773.9 873.457L1771.88 882.865Z" fill="black"/>
<path d="M1782.08 887.052L1784.39 888.792L1790.18 881.1L1787.86 879.36L1782.08 887.052Z" fill="black"/>
<path d="M1758.76 874.364L1760.88 883.75L1763.7 883.112L1761.58 873.727L1758.76 874.364Z" fill="black"/>
<path d="M1729.81 883.196C1728.6 883.006 1727.37 882.908 1726.14 882.905L1726.15 880.01C1727.52 880.013 1728.91 880.123 1730.26 880.336L1729.81 883.196Z" fill="#898890"/>
<path d="M1743 889.89C1740.03 886.949 1736.34 884.819 1732.32 883.733L1733.08 880.938C1737.58 882.155 1741.71 884.54 1745.03 887.834L1743 889.89Z" fill="#898890"/>
</g>
<defs>
<clipPath id="clip0">
<rect width="98.8231" height="98.8231" fill="white" transform="translate(1690 871.742) rotate(-7.40835)"/>
</clipPath>
</defs>
</svg>
