<svg width="1920" height="1080" viewBox="0 0 1920 1080" fill="none" xmlns="http://www.w3.org/2000/svg">
<path d="M1578.09 152.129L1591.12 144.821L1599.16 130.12L1604.48 137.309L1592.38 144.413L1584.87 157.669L1578.09 152.129Z" fill="white"/>
<path d="M1587.57 159.012L1598.63 152.027L1606.47 140.028L1611.26 146.282L1600.2 151.5L1594.05 164.025L1596.03 164.858L1607.1 159.233L1613.05 148.696L1616.8 154.95L1608.66 158.604L1600.42 169.447L1587.57 159.012Z" fill="white"/>
<path d="M1619.93 163.923C1619.93 163.923 1626.08 173.832 1615.12 175.718C1605.38 177.383 1609.37 173.424 1609.37 173.424L1619.93 163.923Z" fill="white"/>
<path d="M1601.4 170.433C1601.2 170.433 1600.98 170.382 1600.79 170.28C1600.2 169.94 1599.98 169.175 1600.32 168.58L1612.14 147.557C1612.48 146.962 1613.25 146.741 1613.84 147.081C1614.44 147.421 1614.66 148.186 1614.32 148.781L1602.49 169.804C1602.27 170.195 1601.85 170.433 1601.4 170.433Z" fill="white"/>
<path d="M1615.85 179.219C1612.36 179.219 1609.14 177.621 1606.99 174.851C1606.42 174.103 1606.48 173.05 1607.15 172.387L1620.17 159.369C1620.83 158.706 1621.88 158.638 1622.63 159.216C1625.42 161.357 1627 164.586 1627 168.07C1627.01 174.222 1622.02 179.219 1615.85 179.219ZM1611.11 173.747C1612.43 174.851 1614.08 175.463 1615.85 175.463C1619.93 175.463 1623.26 172.132 1623.26 168.053C1623.26 166.286 1622.65 164.637 1621.54 163.312L1611.11 173.747Z" fill="white"/>
<path d="M1603.56 172.472C1603.2 172.472 1602.84 172.37 1602.54 172.166L1572.93 152.86C1572.32 152.452 1572 151.738 1572.1 151.007C1572.2 150.276 1572.73 149.682 1573.44 149.478C1578.24 148.101 1579.83 145.96 1581.26 142.238C1582.74 138.363 1584.86 134.59 1590.44 133.196C1596.44 131.701 1596.45 126.976 1596.45 126.925C1596.44 126.092 1596.98 125.362 1597.76 125.124C1598.54 124.886 1599.41 125.175 1599.87 125.837L1620.01 154.882C1620.54 155.63 1620.43 156.649 1619.79 157.295L1604.87 171.928C1604.51 172.285 1604.03 172.472 1603.56 172.472ZM1578.05 151.721L1603.32 168.206L1616.03 155.732L1599.04 131.242C1597.81 133.519 1595.47 135.83 1591.34 136.85C1587.63 137.785 1586.1 140.028 1584.76 143.58C1583.4 147.132 1581.69 149.834 1578.05 151.721Z" fill="white"/>
<path d="M1584.14 159.743C1583.93 159.743 1583.74 159.692 1583.56 159.59C1582.95 159.267 1582.71 158.502 1583.03 157.89L1598.43 128.795C1598.75 128.183 1599.52 127.945 1600.13 128.268C1600.74 128.591 1600.98 129.355 1600.65 129.967L1585.26 159.063C1585.02 159.488 1584.58 159.743 1584.14 159.743Z" fill="white"/>
<path d="M1576.81 154.1C1576.37 154.1 1575.95 153.862 1575.73 153.454C1575.39 152.86 1575.61 152.095 1576.2 151.755L1604.36 135.983C1604.98 135.644 1605.72 135.864 1606.06 136.459C1606.4 137.054 1606.18 137.819 1605.59 138.159L1577.43 153.93C1577.24 154.049 1577.02 154.1 1576.81 154.1Z" fill="white"/>
<path d="M1593.52 164.62C1593.31 164.62 1593.11 164.569 1592.91 164.467C1592.29 164.127 1592.09 163.363 1592.43 162.768L1606.13 138.176C1606.47 137.564 1607.23 137.36 1607.83 137.7C1608.44 138.04 1608.64 138.805 1608.3 139.399L1594.6 163.991C1594.38 164.382 1593.96 164.62 1593.52 164.62Z" fill="white"/>
<path d="M1586.01 160.677C1585.57 160.677 1585.13 160.439 1584.91 160.015C1584.58 159.403 1584.8 158.638 1585.42 158.315L1610.57 144.804C1611.18 144.481 1611.93 144.702 1612.27 145.314C1612.59 145.926 1612.37 146.69 1611.76 147.013L1586.61 160.524C1586.42 160.626 1586.21 160.677 1586.01 160.677Z" fill="white"/>
<path d="M1594.64 166.677C1594.18 166.677 1593.74 166.422 1593.52 165.98C1593.21 165.351 1593.46 164.603 1594.09 164.297L1616.61 153.217C1617.24 152.911 1617.99 153.166 1618.29 153.794C1618.6 154.423 1618.35 155.171 1617.72 155.477L1595.2 166.558C1595.01 166.643 1594.82 166.677 1594.64 166.677Z" fill="white"/>
<path d="M1621.85 182.04C1621.41 182.04 1620.99 181.802 1620.77 181.394C1620.43 180.8 1620.65 180.035 1621.24 179.695C1621.58 179.508 1621.92 179.287 1622.26 179.049C1622.82 178.641 1623.6 178.76 1624.01 179.321C1624.42 179.882 1624.3 180.664 1623.74 181.071C1623.33 181.36 1622.91 181.632 1622.48 181.887C1622.26 181.989 1622.06 182.04 1621.85 182.04Z" fill="white"/>
<path d="M1616.58 183.417C1613.61 183.417 1611.47 182.363 1611.37 182.312C1610.75 182.006 1610.5 181.241 1610.81 180.63C1611.11 180.018 1611.86 179.763 1612.49 180.069C1612.5 180.086 1615.04 181.292 1618.15 180.783C1618.83 180.681 1619.47 181.139 1619.59 181.819C1619.71 182.499 1619.23 183.145 1618.56 183.264C1617.86 183.366 1617.2 183.417 1616.58 183.417Z" fill="white"/>
<path d="M1556.6 127.945C1556.43 127.945 1556.28 127.911 1556.11 127.843C1555.26 127.486 1554.8 127.299 1554.79 127.299C1554.14 127.044 1553.83 126.313 1554.09 125.667C1554.34 125.022 1555.08 124.716 1555.72 124.971C1555.72 124.971 1556.2 125.158 1557.08 125.531C1557.71 125.803 1558.02 126.534 1557.74 127.18C1557.56 127.656 1557.08 127.945 1556.6 127.945Z" fill="white"/>
<path d="M1580.69 133.57C1580.49 133.57 1580.27 133.519 1580.08 133.4C1580.01 133.366 1574.74 130.375 1571.21 128.421C1571.96 130.086 1572.47 131.769 1571.43 132.839C1570.24 134.063 1568.08 133.298 1566.14 132.397C1563.75 131.293 1561.55 130.307 1559.65 129.457C1559.02 129.168 1558.73 128.438 1559.02 127.809C1559.31 127.18 1560.04 126.891 1560.67 127.18C1562.59 128.03 1564.78 129.015 1567.2 130.137C1568.42 130.698 1569.12 130.885 1569.49 130.953C1569.34 130.239 1568.69 128.913 1568.39 128.302C1567.64 126.789 1567.15 125.769 1567.96 124.988C1568.18 124.767 1568.79 124.325 1569.8 124.835C1572.19 126.058 1580.96 131.038 1581.34 131.242C1581.93 131.582 1582.15 132.346 1581.81 132.941C1581.54 133.349 1581.12 133.57 1580.69 133.57Z" fill="white"/>
<path d="M1576.44 136.51C1576.25 136.51 1576.06 136.459 1575.88 136.374L1573.02 134.947C1572.41 134.641 1572.16 133.893 1572.46 133.264C1572.77 132.652 1573.52 132.398 1574.14 132.703L1577 134.131C1577.61 134.437 1577.87 135.185 1577.56 135.814C1577.34 136.255 1576.9 136.51 1576.44 136.51Z" fill="white"/>
<path d="M1576.29 127.452C1576.07 127.452 1575.86 127.401 1575.66 127.282C1575.59 127.248 1568.98 123.39 1566.33 122.421C1565.68 122.183 1565.34 121.47 1565.58 120.824C1565.82 120.178 1566.53 119.838 1567.18 120.076C1570.05 121.113 1576.64 124.971 1576.92 125.124C1577.51 125.48 1577.71 126.245 1577.36 126.84C1577.14 127.231 1576.71 127.452 1576.29 127.452Z" fill="white"/>
</svg>
