<svg width="1920" height="1080" viewBox="0 0 1920 1080" fill="none" xmlns="http://www.w3.org/2000/svg">
<rect width="1920" height="1080" fill="white"/>
<path d="M0 0H1920V981.5L961 1080L0 981.5V0Z" fill="url(#paint0_linear)"/>
<path d="M390.5 0V1021" stroke="url(#paint1_linear)"/>
<path d="M580 0L580 1041" stroke="url(#paint2_linear)"/>
<path d="M769 0L769 1060" stroke="url(#paint3_linear)"/>
<path d="M1150 0L1150 1060" stroke="url(#paint4_linear)"/>
<path d="M960 0L960 1079" stroke="url(#paint5_linear)"/>
<path d="M1339 0L1339 1041" stroke="url(#paint6_linear)"/>
<path d="M1530 0V1021" stroke="url(#paint7_linear)"/>
<defs>
<linearGradient id="paint0_linear" x1="0" y1="0" x2="1837" y2="964.5" gradientUnits="userSpaceOnUse">
<stop offset="0.0160241" stop-color="#C775FE"/>
<stop offset="1" stop-color="#B0BBF9"/>
</linearGradient>
<linearGradient id="paint1_linear" x1="391" y1="0" x2="391" y2="1021" gradientUnits="userSpaceOnUse">
<stop stop-color="#8C8C8C"/>
<stop offset="1" stop-color="#F3F4FF" stop-opacity="0"/>
</linearGradient>
<linearGradient id="paint2_linear" x1="580.5" y1="-2.18557e-08" x2="580.5" y2="1041" gradientUnits="userSpaceOnUse">
<stop stop-color="#8C8C8C"/>
<stop offset="1" stop-color="#F3F4FF" stop-opacity="0"/>
</linearGradient>
<linearGradient id="paint3_linear" x1="769.5" y1="-2.18557e-08" x2="769.5" y2="1060" gradientUnits="userSpaceOnUse">
<stop stop-color="#8C8C8C"/>
<stop offset="1" stop-color="#F3F4FF" stop-opacity="0"/>
</linearGradient>
<linearGradient id="paint4_linear" x1="1150.5" y1="-2.18557e-08" x2="1150.5" y2="1060" gradientUnits="userSpaceOnUse">
<stop stop-color="#8C8C8C"/>
<stop offset="1" stop-color="#F3F4FF" stop-opacity="0"/>
</linearGradient>
<linearGradient id="paint5_linear" x1="960.5" y1="-2.18557e-08" x2="960.5" y2="1079" gradientUnits="userSpaceOnUse">
<stop stop-color="#8C8C8C"/>
<stop offset="1" stop-color="#F3F4FF" stop-opacity="0"/>
</linearGradient>
<linearGradient id="paint6_linear" x1="1339.5" y1="-2.18557e-08" x2="1339.5" y2="1041" gradientUnits="userSpaceOnUse">
<stop stop-color="#8C8C8C"/>
<stop offset="1" stop-color="#F3F4FF" stop-opacity="0"/>
</linearGradient>
<linearGradient id="paint7_linear" x1="1530.5" y1="0" x2="1530.5" y2="1021" gradientUnits="userSpaceOnUse">
<stop stop-color="#8C8C8C"/>
<stop offset="1" stop-color="#F3F4FF" stop-opacity="0"/>
</linearGradient>
</defs>
</svg>
