<svg width="1920" height="434" viewBox="0 0 1920 434" fill="none" xmlns="http://www.w3.org/2000/svg">
<g clip-path="url(#clip0_238:2)">
<path d="M0 430.5V0L1920 1V430.5H0Z" fill="#F7C514"/>
<path d="M0 369V0L1920 1.2381e-05V369H0Z" fill="#1F212D"/>
<path d="M1529.27 117.013L1531.67 106.922C1533.24 100.345 1539.7 96.157 1546.34 97.4047L1549.02 97.9071L1546.37 97.2481C1539.81 95.6151 1535.69 89.1184 1537 82.486L1539.01 72.3089L1536.61 82.4C1535.04 88.9764 1528.58 93.1649 1521.94 91.9172L1519.26 91.4148L1521.91 92.0738C1528.47 93.7068 1532.6 100.204 1531.28 106.836L1529.27 117.013Z" fill="#FFF98D"/>
<path d="M1608.71 158.559C1609.2 156.333 1607.78 154.133 1605.56 153.648C1603.33 153.162 1601.13 154.574 1600.65 156.8C1600.16 159.026 1601.57 161.226 1603.8 161.711C1606.03 162.197 1608.22 160.782 1608.71 158.559Z" fill="#FFF98D"/>
<path d="M1679.04 54.7397L1679.46 44.377C1679.73 37.6185 1684.17 32.2627 1689.56 32.1971L1691.73 32.1718L1689.56 32.0382C1684.18 31.7069 1680.01 26.1372 1680.07 19.3734L1680.16 9L1679.75 19.3627C1679.48 26.1212 1675.04 31.4769 1669.65 31.5426L1667.48 31.5679L1669.65 31.7015C1675.02 32.0328 1679.2 37.6025 1679.14 44.3663L1679.04 54.7397Z" fill="#FFF98D"/>
<path d="M1707.05 114.11L1702.65 112.116C1699.79 110.817 1698.9 106.296 1700.64 101.841L1701.34 100.043L1700.57 101.813C1698.66 106.194 1694.86 108.75 1691.92 107.622L1687.41 105.889L1691.81 107.884C1694.68 109.183 1695.56 113.704 1693.82 118.159L1693.12 119.957L1693.89 118.187C1695.8 113.805 1699.61 111.249 1702.54 112.378L1707.05 114.11Z" fill="white"/>
<path d="M1461.61 131.359L1459.26 134.978C1457.74 137.335 1454.76 138.162 1452.51 136.856L1451.6 136.328L1452.48 136.914C1454.64 138.362 1455.21 141.393 1453.77 143.801L1451.55 147.501L1453.9 143.882C1455.42 141.525 1458.4 140.698 1460.65 142.004L1461.56 142.532L1460.68 141.946C1458.52 140.498 1457.95 137.467 1459.39 135.059L1461.61 131.359Z" fill="white"/>
<path d="M1422 142.368C1421.44 143.261 1421.66 144.402 1422.49 144.915C1423.32 145.429 1424.44 145.121 1425 144.233C1425.55 143.345 1425.33 142.196 1424.5 141.686C1423.68 141.167 1422.56 141.475 1422 142.368Z" fill="#FFF98D"/>
<path d="M1824.23 227.641L1816.59 220.628C1811.61 216.058 1811.09 208.379 1815.42 203.181L1817.16 201.086L1815.3 203.079C1810.67 208.017 1802.99 208.455 1797.84 204.079L1789.93 197.366L1797.57 204.378C1802.55 208.949 1803.07 216.628 1798.74 221.826L1797 223.921L1798.87 221.927C1803.49 216.99 1811.17 216.551 1816.32 220.928L1824.23 227.641Z" fill="#FFF98D"/>
<path d="M1876.32 110.245C1874.61 108.737 1872 108.899 1870.49 110.607C1868.99 112.316 1869.15 114.924 1870.86 116.432C1872.57 117.94 1875.17 117.778 1876.68 116.069C1878.19 114.361 1878.02 111.755 1876.32 110.245Z" fill="#FFF98D"/>
<path d="M1842.76 66.4964L1833.91 61.0888C1828.14 57.5631 1825.62 51.0755 1828.19 46.3384L1829.22 44.4294L1828.05 46.2577C1825.14 50.7931 1818.24 51.7303 1812.37 48.3809L1803.35 43.2498L1812.2 48.6575C1817.97 52.1832 1820.49 58.6707 1817.92 63.4078L1816.89 65.3168L1818.06 63.4885C1820.97 58.9531 1827.87 58.0159 1833.74 61.3653L1842.76 66.4964Z" fill="#FFF98D"/>
<path d="M1852.8 254.104L1859.37 266.506C1863.65 274.586 1861.29 284.343 1854.01 288.68L1851.07 290.429L1854.12 288.87C1861.66 285.005 1871.17 288.193 1875.74 296.119L1882.75 308.275L1876.18 295.873C1871.9 287.793 1874.25 278.036 1881.54 273.699L1884.48 271.95L1881.43 273.51C1873.89 277.374 1864.38 274.186 1859.81 266.261L1852.8 254.104Z" fill="white"/>
<path d="M1803.82 293.726L1805.84 297.536C1807.16 300.017 1806.43 303.017 1804.19 304.347L1803.29 304.886L1804.23 304.407C1806.55 303.222 1809.47 304.2 1810.87 306.633L1813.03 310.368L1811.01 306.558C1809.69 304.077 1810.42 301.076 1812.65 299.746L1813.56 299.208L1812.62 299.686C1810.3 300.872 1807.38 299.894 1805.98 297.461L1803.82 293.726Z" fill="white"/>
<path d="M1794.15 333.681C1794.66 334.602 1795.77 334.968 1796.62 334.491C1797.47 334.021 1797.75 332.89 1797.24 331.974C1796.74 331.058 1795.63 330.69 1794.78 331.164C1793.92 331.629 1793.65 332.76 1794.15 333.681Z" fill="#FFF98D"/>
<path d="M1119.84 208.756L1117.97 203.086C1116.75 199.386 1118.65 195.386 1122.28 193.986L1123.75 193.426L1122.25 193.906C1118.54 195.086 1114.56 193.146 1113.2 189.506L1111.11 183.906L1112.98 189.576C1114.2 193.276 1112.3 197.276 1108.67 198.676L1107.2 199.236L1108.7 198.756C1112.41 197.576 1116.39 199.516 1117.75 203.156L1119.84 208.756Z" fill="white"/>
<path d="M1219.24 95.0862C1218.69 93.5362 1216.99 92.7161 1215.44 93.2561C1213.89 93.8061 1213.07 95.5062 1213.61 97.0562C1214.16 98.6062 1215.86 99.4261 1217.41 98.8861C1218.97 98.3461 1219.79 96.6462 1219.24 95.0862Z" fill="white"/>
</g>
<defs>
<clipPath id="clip0_238:2">
<rect width="1920" height="434" fill="white"/>
</clipPath>
</defs>
</svg>
