<svg width="158" height="244" viewBox="0 0 158 244" fill="none" xmlns="http://www.w3.org/2000/svg">
<path d="M46.5 46.5L65 63L67.5 61L74 48L13.5 12L5.5 1.5L0 0L5.5 8H1.5L5.5 14L12 15.5L40.5 41.5L46.5 46.5Z" fill="#F2AE71"/>
<path d="M132 219.5L120 236L127 239.5C128.667 240.167 136 241.5 136 241.5C136 241.5 151.667 240.833 157.5 240.5C157.5 240.5 147.905 227.223 139 222.5C136.373 221.106 132 219.5 132 219.5Z" fill="white"/>
<path d="M96.5 221L98.5 194.5H99.5L129 199.5L120.5 216.5V219H132.5L120.5 237L99.5 225L96.5 221Z" fill="#D4965F"/>
<path d="M54.5 212.5L63 204V203L44.5 190.5C44.5 190.5 39.1218 196.435 36 200.5C25.254 214.493 15 240.5 15 240.5L19 244C19 244 28.138 230.578 36 224C42.5244 218.541 54.5 212.5 54.5 212.5Z" fill="white"/>
<path d="M64 204.5L43.5 191.5C43.5 191.5 50.3207 181.927 55.5 176.5C60.37 171.397 69 164.5 69 164.5L94 180C94 180 82.0953 184.399 76 189.5C70.2472 194.315 64 204.5 64 204.5Z" fill="#D4965F"/>
<path d="M75 91.5L68 73L75 70.5L93.5 68L95 70.5L100.5 105L66.5 131L51.5 137.5L47.5 142.5L43.5 143.5H41L41.5 142L44 140.5C43.3333 140.5 41.9 140.4 41.5 140C41.1 139.6 37 143.167 35 145L31 144L39.5 137L46.5 135.5L65 118L83 104L75 91.5Z" fill="#D4965F"/>
<path d="M94.1297 180.5L67.5 165.005L94.1297 139.698L99.3513 133.5H119.193L130.68 145.896L150 152.093L143.212 173.269C143.212 173.269 132.117 166.262 127.025 159.841C123.138 154.939 123.887 150.049 119.193 145.896C114.141 141.425 103.006 139.698 103.006 139.698C103.006 139.698 106.812 157.646 103.72 167.5C101.853 173.447 94.1297 180.5 94.1297 180.5Z" fill="#5C40B5"/>
<path d="M130.705 200L99 196.032V186.112L103.091 138C103.091 138 113.244 139.075 118.432 142.464C122.299 144.99 123.418 147.603 126.614 150.896C129.809 154.189 143.5 172.5 143.5 172.5L130.705 200Z" fill="#4D2EAE"/>
<path d="M59.5 38.1333L62.049 26.7667L63.5784 21.6L68.1667 18.5H74.7941L80.402 20.05L85.5 28.3167L84.4804 38.1333L83.4608 46.9167H79.3824L72.2451 49.5L70.7157 47.95H62.5588L61.5392 44.85V38.1333H59.5Z" fill="#CB884C"/>
<path d="M60.5 25.0002L62 27.0002V27.5L65.5 28.5V27.5L69 29L70 31L71.5 31.5C72 32 73.4 33.2 75 34C76.2 34.4 76.1667 35.1667 76 35.5C76.3333 35.8333 77.3 36.7 78.5 37.5C80 38.5 78.5 38.5 78.5 39C78.5 39.5 78 41 78 41.5C78 41.9 78.6667 42.6667 79 43C79.1667 44 79.8 45.8 81 45C82.5 44 81.5 44.5 82 44C82.5 43.5 83 48 84 46.5C85 45 84.5 41 86 39.5C87.5 38 86.5 38 86.5 37.5C86.5 37 87 34.5 86.5 33.5C86 32.5 86.5 32 88 29.5C89.2 27.5 88.5 27.0001 88 27.0002C87.5 26.3335 86.3 24.9001 85.5 24.5C84.5 23.9998 84 22.5 83 21.5L81 19.5C79.8333 18.6667 77.4 17 77 17C76.5 17 70.5 18.5002 70 18.0002C69.6 17.6002 68.8333 17.8335 68.5 18.0002H66.5L64.5 20.0002L63 21.0002L60.5 23.0002V25.0002Z" fill="#3A3131" stroke="black" stroke-linecap="round" stroke-linejoin="round"/>
<path d="M72.0018 49C75.6773 46.2826 83.0018 45 83.0018 45C83.0018 45 99.0865 50.6172 108.502 56C121.527 63.4466 129.219 68.2134 138.502 80C146.499 90.1532 153.502 109.5 153.502 109.5C153.502 109.5 155.919 119.784 156.502 126.5C157.431 137.215 155.002 154 155.002 154C155.002 154 151.999 155.093 150.002 155.5C145.601 156.396 142.894 156.438 138.502 155.5C134.565 154.66 132.35 153.735 129.002 151.5C124.632 148.583 124.544 144.14 120.002 141.5C117.65 140.133 116.146 139.637 113.502 139C106.226 137.248 95 138.5 95 138.5L97 135.5C97 135.5 99.3468 131.717 99.5 128.5C99.6894 124.522 100.21 123.098 98.5018 119.5C96.8928 116.112 92.5018 112 92.5018 112L100.502 105L94.5018 70.5C94.5018 70.5 88.6979 70.1793 85.0018 70.5C77.9717 71.1099 67.5018 75 67.5018 75C67.5018 75 65.0418 70.608 64.5018 67.5C63.7265 63.0378 64.0189 60.0719 66.0018 56C67.5782 52.763 69.1067 51.1404 72.0018 49Z" fill="#B8E0EE"/>
</svg>
