<svg width="112" height="117" viewBox="0 0 112 117" fill="none" xmlns="http://www.w3.org/2000/svg">
<mask id="path-1-inside-1" fill="white">
<path fill-rule="evenodd" clip-rule="evenodd" d="M56.887 0.430185C56.36 0.660866 55.8392 0.984499 55.7297 1.14927C55.6204 1.31404 55.1767 2.2412 54.7439 3.20959C54.3112 4.17783 53.7544 5.60315 53.5065 6.37677C53.2587 7.15039 52.9135 8.47359 52.7393 9.31711C52.5652 10.1608 52.4125 11.4163 52.4001 12.1072L52.3775 13.3633L54.3604 16.4666C55.451 18.1734 58.8028 23.4269 61.8089 28.1411C64.815 32.8552 68.3615 38.4174 69.6901 40.5016C71.0188 42.5858 72.1059 44.3576 72.1059 44.4389C72.1059 44.5202 72.0156 44.6212 71.9052 44.6637C71.7921 44.7071 71.4415 45.6971 71.1014 46.9331C70.7697 48.139 70.4544 49.3583 70.4008 49.6427C70.3473 49.9272 70.206 50.3138 70.0868 50.5019C69.9675 50.6899 69.4781 51.0972 68.9988 51.4069C68.5197 51.7165 67.4435 52.2427 66.607 52.5763C65.7708 52.9097 64.0224 53.5534 62.722 54.0068C61.4215 54.4602 60.2538 54.8652 60.1271 54.9067C59.9819 54.9545 59.8368 54.8509 59.7345 54.6266C59.6454 54.4307 59.1837 53.8495 58.7088 53.3351C58.234 52.8207 57.4491 52.1428 56.9648 51.829C56.4804 51.5149 55.6492 51.1285 55.1176 50.9701C54.5859 50.8115 53.0869 50.5452 51.7864 50.3781C50.486 50.2109 49.162 50.0049 48.8444 49.9204C48.5269 49.8357 48.0779 49.5776 47.8469 49.3466C47.4321 48.9316 47.427 48.905 47.427 47.1499C47.427 46.1728 47.4972 44.5218 47.583 43.481C47.7227 41.7888 47.7735 41.5664 48.0633 41.376C48.2417 41.259 48.7741 40.775 49.2465 40.3005C49.7188 39.8262 50.1937 39.2237 50.3017 38.9616C50.4096 38.6998 50.5437 37.887 50.6 37.1555C50.6562 36.424 50.6295 34.9186 50.5406 33.8103C50.4517 32.7019 50.2482 31.2838 50.0884 30.659C49.9285 30.0341 49.6161 29.1891 49.3942 28.7812C49.1722 28.3734 48.483 27.5637 47.8626 26.982C47.2422 26.4002 46.3086 25.6733 45.7878 25.3664C45.2669 25.0593 44.4086 24.6717 43.8803 24.5048C43.352 24.338 42.414 24.1646 41.796 24.1196C41.022 24.0633 40.3302 24.114 39.573 24.2824C38.9683 24.4171 38.0484 24.7281 37.5285 24.974C37.0088 25.2198 36.1794 25.7092 35.6857 26.0617C35.1918 26.414 34.5045 27.0097 34.1581 27.3855C33.8117 27.7613 33.3282 28.3842 33.0835 28.7699C32.8388 29.1556 32.5079 29.8937 32.3483 30.4102C32.1887 30.9268 32.0581 31.6845 32.0581 32.094C32.0581 32.8235 32.0343 32.8632 30.8744 34.0714C30.2234 34.7495 29.5826 35.531 29.4505 35.8079C29.3042 36.1147 29.2479 36.461 29.3064 36.6939C29.3621 36.916 29.6027 37.1826 29.8804 37.33C30.2113 37.5056 30.8226 37.6025 31.8646 37.6447L33.3706 37.7055L33.5407 38.465C33.6344 38.8827 33.7477 39.8139 33.7927 40.5342L33.8742 41.8441L33.5203 41.7406C33.3257 41.6836 33.0505 41.503 32.9088 41.3392C32.7371 41.1406 32.6821 40.9179 32.744 40.6711C32.8283 40.3357 32.8088 40.316 32.5373 40.4613C32.3725 40.5495 32.0643 40.8278 31.8523 41.0796C31.6245 41.3505 31.4669 41.7187 31.4669 41.981C31.4669 42.2739 31.6134 42.5708 31.8989 42.8563C32.182 43.1395 32.5002 43.2975 32.8225 43.3149C33.0929 43.3295 33.5197 43.3279 33.7708 43.3113C34.2004 43.2831 34.2515 43.3381 34.6346 44.2394C34.8586 44.7664 35.0339 45.2492 35.024 45.3123C35.0142 45.3755 34.7921 45.4046 34.5304 45.3773C34.2687 45.3498 33.8775 45.2359 33.6613 45.124C33.445 45.0121 33.1791 44.7197 33.0703 44.4739C32.9616 44.2282 32.8367 44.0272 32.7927 44.0272C32.7488 44.0272 32.6065 44.2101 32.4764 44.4336C32.3464 44.657 32.1931 45.0588 32.1359 45.3263C32.0628 45.6683 32.1028 45.9208 32.271 46.1773C32.4024 46.3779 32.7241 46.6301 32.986 46.7377C33.4389 46.9238 33.3906 46.9377 31.9842 47.0251C31.1714 47.0757 30.1866 47.2179 29.7956 47.3411C29.4047 47.4642 28.7527 47.7457 28.3469 47.9666C27.941 48.1876 27.3821 48.6194 27.1047 48.9263C26.8275 49.2332 26.4388 49.8037 26.2411 50.194C26.0433 50.5842 25.6761 51.5674 25.425 52.379C25.174 53.1904 24.8388 54.6192 24.6802 55.5539C24.5215 56.4886 24.3211 57.9419 24.2348 58.7837C24.1487 59.6254 24.078 61.654 24.078 63.2918C24.078 64.972 24.1725 67.074 24.2948 68.1159C24.4142 69.1314 24.6176 70.518 24.7469 71.1973C24.8763 71.8765 24.9505 72.4639 24.9118 72.5027C24.8732 72.5412 24.3693 72.6323 23.7921 72.7047C23.2147 72.7772 22.6108 72.907 22.4498 72.9931C22.2868 73.0803 21.8465 73.1115 21.4551 73.0633C21.0261 73.0106 18.469 73.2367 14.8817 73.6445C11.6524 74.0118 8.59343 74.4195 8.0839 74.5507C7.57436 74.6819 6.79173 74.9976 6.3447 75.2522C5.89767 75.507 4.94376 76.3084 4.22497 77.0332C3.50603 77.7582 2.53203 78.8369 2.06032 79.4303C1.58876 80.0238 1.02218 80.8914 0.801252 81.3584C0.580324 81.8252 0.309891 82.7106 0.200092 83.3259C0.051575 84.1588 0.000444356 86.1993 1.02212e-06 91.3161C-0.000294534 95.0955 0.0635453 98.6865 0.142015 99.2961C0.232751 100.001 0.450132 100.742 0.739925 101.332C1.01893 101.901 1.57709 102.647 2.18135 103.259C2.7237 103.808 3.62618 104.604 4.1867 105.028C4.74722 105.451 5.57315 105.977 6.02195 106.197C6.66685 106.513 7.10974 106.609 8.1337 106.658C8.9917 106.699 10.907 106.558 13.8032 106.24C16.2087 105.975 18.2156 105.798 18.2628 105.845C18.3101 105.892 18.2005 106.749 18.0192 107.749C17.8365 108.756 17.4994 110.006 17.2631 110.552C16.8864 111.423 16.8369 111.711 16.8369 113.032C16.8369 114.043 16.9105 114.703 17.0642 115.071C17.1892 115.37 17.4054 115.741 17.5445 115.895C17.6837 116.048 18.0619 116.309 18.3852 116.474C18.8956 116.735 19.1477 116.762 20.3063 116.685C21.0396 116.636 22.1385 116.528 22.748 116.444C23.3576 116.359 24.7454 116.193 25.832 116.073C27.424 115.897 27.9312 115.782 28.4443 115.482C28.7944 115.276 29.2225 114.929 29.3955 114.709C29.6819 114.344 29.739 114.327 30.0344 114.514C30.2128 114.627 30.5581 114.82 30.8019 114.944C31.0458 115.067 31.6382 115.196 32.1183 115.231C32.5985 115.266 33.7955 115.215 34.7783 115.117C35.7612 115.019 36.798 114.868 37.0825 114.782C37.367 114.695 37.7834 114.495 38.0079 114.338C38.3996 114.063 38.4459 114.061 39.1614 114.299C39.8128 114.515 40.0969 114.525 41.4133 114.377C42.2419 114.283 43.2855 114.145 43.7325 114.07C44.1795 113.995 45.3394 113.867 46.31 113.786C47.707 113.668 48.238 113.558 48.8573 113.255C49.2876 113.044 49.715 112.918 49.8069 112.975C49.8988 113.032 50.1987 113.129 50.4731 113.191C50.7682 113.258 52.045 113.187 53.5959 113.019C55.039 112.863 56.5684 112.635 56.9945 112.514C57.4661 112.379 58.0931 112.029 58.5969 111.619L59.4245 110.945L59.7432 111.236C59.9185 111.396 60.2839 111.639 60.5553 111.777C60.8325 111.917 61.383 112.025 61.8114 112.023C62.2309 112.021 63.7712 111.884 65.2342 111.718C66.6972 111.552 68.1426 111.377 68.4464 111.328C68.7501 111.28 69.2356 111.08 69.5252 110.883C70.0444 110.531 70.0622 110.529 70.7918 110.768C71.4899 110.996 71.7002 110.992 74.5158 110.686C76.1569 110.508 77.932 110.301 78.4603 110.226C78.9886 110.151 80.1413 110.022 81.0218 109.94C81.9532 109.854 82.8801 109.677 83.2384 109.518C83.5771 109.368 84.1097 108.961 84.4221 108.614L84.99 107.984L85.4566 108.434C85.7131 108.681 86.1103 108.954 86.3391 109.04C86.5679 109.127 87.0666 109.197 87.4474 109.196C87.8283 109.195 88.9288 109.096 89.893 108.976C91.1231 108.823 91.8265 108.658 92.2505 108.423C92.5829 108.239 93.0723 107.804 93.338 107.455C93.6037 107.106 93.8938 106.551 93.9825 106.221C94.0711 105.892 94.1313 104.947 94.1161 104.122C94.1002 103.267 94.1616 102.437 94.2585 102.194C94.3521 101.959 94.6033 101.56 94.8168 101.308C95.0302 101.055 95.3262 100.582 95.4744 100.257C95.6562 99.8578 95.7456 99.3051 95.7493 98.5572C95.7524 97.9477 95.8037 97.3766 95.8634 97.2884C95.9231 97.2 97.0028 97.0165 98.2626 96.8807C99.5224 96.7447 101.052 96.5689 101.661 96.49C102.271 96.4111 103.245 96.2424 103.825 96.1154C104.463 95.9757 105.242 95.6655 105.794 95.332C106.296 95.0283 107.338 94.1539 108.109 93.389C108.88 92.6241 109.816 91.5954 110.189 91.103C110.562 90.6106 111.055 89.8088 111.284 89.3211C111.514 88.8334 111.769 87.9689 111.851 87.4C111.935 86.817 112 83.2053 112 79.1244C112 75.0233 111.935 71.4348 111.851 70.849C111.768 70.2802 111.56 69.5155 111.388 69.1496C111.2 68.7504 110.477 67.8936 109.581 67.0066C108.759 66.1939 107.655 65.2496 107.128 64.9081C106.6 64.5667 105.772 64.1844 105.288 64.0583C104.804 63.9324 104.126 63.8294 103.783 63.8294C103.439 63.8294 101.641 64.0004 99.7866 64.2094C97.9324 64.4183 95.9572 64.6854 95.3973 64.8028C94.8374 64.9202 93.9772 65.2305 93.4858 65.4924C92.9944 65.7544 92.0426 66.4891 91.3705 67.1253C90.6984 67.7613 89.8014 68.7098 89.377 69.2329C88.9526 69.7559 88.5141 70.1839 88.4024 70.1839C88.2908 70.1839 87.5736 69.6267 86.8087 68.9458C86.044 68.2648 85.1025 67.4986 84.7168 67.2431C84.3309 66.9876 83.6844 66.6802 83.28 66.5601C82.8755 66.4399 82.1076 66.3467 81.5737 66.3529C81.0399 66.3591 79.9179 66.4442 79.0803 66.5419C78.2428 66.6396 77.5305 66.6926 77.4975 66.6597C77.4646 66.6266 77.7272 66.2256 78.0813 65.7687C78.4353 65.3116 78.9174 64.756 79.1524 64.5337C79.3875 64.3116 80.0096 63.9562 80.5348 63.744C81.06 63.5319 81.9504 63.1174 82.5136 62.8229C83.0766 62.5284 83.5603 62.3518 83.5884 62.4304C83.6164 62.509 84.1555 63.4046 84.7864 64.4205C85.6772 65.8553 86.0131 66.2791 86.2911 66.319C86.4879 66.3471 86.9179 66.2908 87.2466 66.1937C87.5753 66.0966 88.061 65.8537 88.3258 65.6537C88.5908 65.4536 88.9398 65.0306 89.1017 64.7134C89.2635 64.3963 89.3959 64.0264 89.3959 63.8915C89.3959 63.7566 88.9493 62.7628 88.4036 61.6829L87.4114 59.7196L88.001 59.0776C88.3252 58.7244 88.7519 58.1734 88.949 57.8528C89.2079 57.432 89.3094 57.0489 89.3148 56.473C89.3207 55.8197 89.262 55.6274 88.9895 55.4065C88.8067 55.2583 88.657 54.996 88.657 54.8235C88.657 54.6511 88.5633 54.2858 88.4488 54.0116C88.3343 53.7377 88.1086 53.4715 87.9471 53.4202C87.7598 53.3608 87.619 53.1432 87.5583 52.8192C87.506 52.5399 87.2934 52.11 87.0863 51.8637C86.8791 51.6175 86.623 51.4161 86.5172 51.4161C86.4112 51.4161 86.2846 51.2568 86.2358 51.0621C86.1869 50.8675 86.2462 50.4269 86.3675 50.083C86.4888 49.7391 86.5881 49.2634 86.5881 49.0258C86.5881 48.788 86.4913 48.4063 86.3729 48.1774C86.2042 47.8511 86.1913 47.6392 86.3138 47.1957C86.4263 46.7884 86.4227 46.4725 86.3014 46.0676C86.2061 45.7492 85.9431 45.3647 85.6955 45.1816C85.3582 44.9322 85.2581 44.742 85.2581 44.3493C85.2581 44.0694 85.1245 43.6242 84.9612 43.3601C84.7979 43.0959 84.4671 42.798 84.226 42.6981C83.8858 42.5572 83.7681 42.396 83.7007 41.9788C83.6528 41.683 83.5527 41.2912 83.4783 41.1081C83.4038 40.9249 83.0456 40.6307 82.682 40.4541C82.0281 40.1363 82.0064 40.1356 80.5732 40.3777C79.7769 40.5121 78.9897 40.6609 78.8239 40.7082C78.5522 40.7858 77.5228 38.7868 68.3629 20.3919C62.7752 9.17051 58.1228 -0.00576063 58.0243 2.71335e-06C57.9258 0.00591383 57.4141 0.199503 56.887 0.430185ZM58.2877 5.24257C59.0005 6.62045 59.7995 8.1467 60.0633 8.63437C60.3271 9.12204 60.8756 10.1528 61.2823 10.9249C61.689 11.6971 64.2679 16.6181 67.0131 21.8605C69.7584 27.1029 73.1911 33.6477 74.6413 36.4044C76.0916 39.161 77.2613 41.4332 77.2409 41.4538C77.2203 41.4742 77.0343 41.5334 76.8274 41.5853C76.4618 41.6771 76.3109 41.4173 71.4457 32.3244C68.6928 27.1787 64.5337 19.4111 62.2036 15.0627C59.8733 10.7143 57.5803 6.42509 57.108 5.53103C56.6359 4.63698 56.1853 3.82302 56.107 3.72238C56.0287 3.62174 55.905 3.57608 55.8321 3.62115C55.7594 3.66608 55.5703 3.94804 55.4121 4.24758C55.2539 4.54713 55.1229 4.6924 55.1212 4.57048C55.1194 4.44856 55.2403 4.07941 55.3898 3.75002C55.5395 3.42062 55.8431 2.86409 56.0647 2.51311L56.4674 1.87516L56.7297 2.30637C56.874 2.54356 57.575 3.86484 58.2877 5.24257ZM55.7751 10.851C56.5688 12.3953 57.6012 14.3903 58.069 15.2844C58.537 16.1784 60.1812 19.3372 61.7227 22.3038C63.2642 25.2705 65.2103 29.0277 66.0471 30.6533C66.8841 32.2788 67.6161 33.6753 67.6737 33.7566C67.7315 33.8379 68.6155 35.5336 69.6383 37.525C70.661 39.5163 71.7001 41.5113 71.947 41.9583C72.1939 42.4053 72.3973 42.6886 72.3988 42.588C72.4002 42.4873 72.0732 41.491 71.672 40.3741C71.2708 39.2572 70.964 38.3221 70.99 38.2961C71.016 38.27 71.6269 39.366 72.3475 40.7316L73.6575 43.2144L74.3101 43.2611C74.7978 43.2958 75.0713 43.2273 75.393 42.9895C75.6298 42.8144 75.8509 42.6985 75.8843 42.7319C75.9177 42.7653 75.7628 42.9604 75.5402 43.1655C75.2626 43.4213 74.7719 43.6156 73.9785 43.7844C73.3423 43.9197 72.7684 43.9975 72.7032 43.9571C72.638 43.9169 72.1195 43.1348 71.5508 42.2191C70.982 41.3035 69.3687 38.6924 67.9656 36.4166C66.5624 34.1408 64.899 31.4476 64.2692 30.4316C63.6392 29.4156 61.9962 26.7556 60.6181 24.5205C59.2399 22.2854 57.0381 18.7124 55.7251 16.5805L53.3381 12.7043V11.7481C53.3381 11.2221 53.4093 10.4393 53.4965 10.0086C53.5835 9.57793 53.7572 8.90362 53.8822 8.51024C54.0072 8.11685 54.1596 7.85085 54.2207 7.91913C54.2819 7.9874 54.9814 9.30676 55.7751 10.851ZM39.9246 25.3993C39.2612 25.7202 38.4118 26.2653 38.0369 26.6108C37.6621 26.9563 37.2607 27.4221 37.145 27.6457C37.0293 27.8694 36.9347 28.2469 36.9347 28.4846C36.9347 28.7223 37.0345 29.1994 37.1564 29.5449C37.2783 29.8905 37.3781 30.2302 37.3781 30.2999C37.3781 30.3697 36.9458 30.2698 36.4175 30.0781C35.7725 29.8439 35.4569 29.7872 35.4569 29.9051C35.4569 30.0017 35.6403 30.2565 35.8644 30.4712C36.0885 30.6859 36.6372 31.0688 37.0835 31.3223L37.8953 31.7829L36.7131 31.7001C36.0628 31.6546 35.3313 31.5793 35.0875 31.5327L34.6442 31.4482L35.2288 31.9793C35.5502 32.2714 36.274 32.7409 36.8372 33.0228L37.8611 33.535L36.9176 33.532C36.3987 33.5304 35.5087 33.4627 34.9397 33.3814C34.3708 33.3003 33.6892 33.1634 33.425 33.0774C32.9512 32.923 32.9447 32.9085 32.9447 31.9987C32.9447 31.4913 33.0436 30.7434 33.1643 30.3366C33.2852 29.9298 33.6483 29.1881 33.9713 28.6883C34.3477 28.106 34.8927 27.5335 35.4881 27.0948C35.9993 26.7181 36.75 26.2389 37.1564 26.0296C37.5628 25.8202 38.4938 25.4654 39.2253 25.2409C39.9568 25.0164 40.6847 24.8291 40.843 24.8245C41.0013 24.8199 40.5879 25.0785 39.9246 25.3993ZM32.1451 35.2623C32.2954 35.3721 32.6864 35.5373 33.014 35.6294C33.3417 35.7213 34.3745 35.8029 35.3092 35.8106C36.2439 35.8183 37.9729 35.7662 39.1514 35.695C40.3299 35.6238 41.2562 35.6067 41.2096 35.6569C41.1632 35.707 39.933 35.9439 38.4758 36.1831C37.0187 36.4224 35.1774 36.6974 34.3839 36.7945C33.5907 36.8914 32.3746 36.9409 31.6815 36.9046C30.7953 36.858 30.3518 36.7686 30.1862 36.6031C30.0245 36.4414 29.9821 36.2431 30.0508 35.9697C30.1058 35.7507 30.4966 35.2056 30.9196 34.7583L31.6886 33.9449L31.7802 34.5038C31.8306 34.811 31.9948 35.1524 32.1451 35.2623ZM34.9397 39.9727C35.244 40.1 35.7342 40.183 36.0291 40.1575L36.5653 40.1111L36.6123 40.7707C36.6476 41.2674 36.595 41.4773 36.3993 41.6205C36.2563 41.7249 35.7531 41.8105 35.2809 41.8105H34.4225V41.2379C34.4225 40.923 34.381 40.4575 34.3301 40.2034C34.2793 39.9494 34.2712 39.7416 34.3121 39.7416C34.3529 39.7416 34.6354 39.8457 34.9397 39.9727ZM82.652 41.0824C82.9093 41.2847 83.0414 41.5309 83.0414 41.8081C83.0414 42.0988 82.8959 42.35 82.5671 42.6267C82.3062 42.8463 81.608 43.2657 81.0154 43.5589C80.423 43.8521 79.9381 44.1732 79.9381 44.2725C79.9381 44.3718 79.9971 44.4896 80.0692 44.5341C80.1413 44.5787 80.823 44.2846 81.5839 43.8806C82.345 43.4767 83.1415 43.1449 83.354 43.1433C83.5665 43.1418 83.9157 43.2784 84.1298 43.4469C84.4276 43.6809 84.5192 43.8843 84.5192 44.3106C84.5192 44.6669 84.4198 44.958 84.2436 45.1175C84.092 45.2548 83.3473 45.6869 82.5888 46.0777C81.8303 46.4686 81.184 46.8654 81.1527 46.9594C81.1214 47.0535 81.1973 47.1305 81.3215 47.1305C81.4457 47.1305 82.0388 46.9065 82.6395 46.6328C83.2402 46.359 83.9794 46.0534 84.2819 45.9535C84.7199 45.8089 84.924 45.8098 85.2822 45.9583C85.6907 46.1274 85.7245 46.1923 85.6488 46.6588C85.6029 46.9415 85.4131 47.3359 85.2271 47.5353C85.0409 47.7346 84.2071 48.2312 83.3739 48.6387C82.5354 49.0491 81.8592 49.4716 81.8592 49.5853C81.8592 49.6982 81.9149 49.7905 81.9831 49.7905C82.0512 49.7905 82.766 49.4923 83.5717 49.1279C84.3774 48.7635 85.1783 48.4642 85.3516 48.4629C85.5361 48.4616 85.6969 48.5746 85.7388 48.7352C85.7783 48.8864 85.7232 49.2687 85.6162 49.585C85.5061 49.9104 85.1489 50.4045 84.7932 50.7234C84.4475 51.0333 83.563 51.6593 82.8273 52.1145C82.0917 52.5698 80.9578 53.1953 80.3075 53.5048C79.6573 53.8141 78.2515 54.302 77.1835 54.5889C76.1155 54.8759 75.1142 55.1105 74.9584 55.1105C74.753 55.1105 74.5353 54.8197 74.1663 54.0524C73.8864 53.4705 73.3453 52.5395 72.9637 51.9835C72.5822 51.4276 72.3196 50.9727 72.38 50.9727C72.4406 50.9727 72.8675 51.3089 73.3286 51.7199C73.7896 52.1309 74.4149 52.869 74.718 53.3599C75.2358 54.1989 75.2973 54.2482 75.7366 54.177C75.9938 54.1352 76.7163 53.8878 77.3422 53.6273C77.9682 53.3667 78.6613 53.0011 78.8825 52.8151C79.1182 52.6166 79.3891 52.1457 79.5367 51.6773C79.6754 51.2377 79.8287 50.5835 79.8778 50.2234C79.9337 49.8121 79.8749 49.2152 79.7195 48.6175C79.5836 48.0942 79.2041 47.0302 78.8763 46.253C78.5487 45.4758 78.1937 44.5228 78.0875 44.1354C77.9527 43.6433 77.9367 43.2779 78.0343 42.9246C78.1191 42.6175 78.4429 42.182 78.8578 41.8166C79.2341 41.4855 79.8471 41.1205 80.2202 41.0057C80.5933 40.8907 81.2056 40.792 81.5807 40.7864C82.0584 40.7792 82.3792 40.8678 82.652 41.0824ZM36.3628 43.6768C36.4372 43.7687 36.7005 43.8843 36.948 43.9338C37.3328 44.0108 37.3912 44.0816 37.3512 44.4231C37.3116 44.76 37.1794 44.8652 36.5047 45.0977C35.8481 45.3239 35.6715 45.3387 35.5169 45.1804C35.4135 45.0745 35.1889 44.63 35.018 44.1927C34.8471 43.7554 34.7263 43.3835 34.7495 43.3662C34.7729 43.3487 35.0912 43.2729 35.4569 43.1977C36.0065 43.0845 36.1311 43.0997 36.1749 43.2853C36.2038 43.4089 36.2885 43.585 36.3628 43.6768ZM37.8375 46.7241C37.7703 46.9071 37.5838 47.0764 37.423 47.1007C37.2621 47.1249 37.0457 47.0424 36.9418 46.9174C36.7831 46.7261 36.8085 46.668 37.1026 46.5502C37.2947 46.4733 37.5662 46.4061 37.7058 46.4009C37.9077 46.3935 37.9346 46.4598 37.8375 46.7241ZM36.4831 47.3318C36.4471 47.3656 35.952 47.3117 35.3831 47.2116L34.3486 47.03L34.9397 46.9226C35.2648 46.8636 35.6306 46.7974 35.7525 46.7757C35.8744 46.7538 36.1035 46.8561 36.2615 47.003C36.4196 47.1499 36.5193 47.2978 36.4831 47.3318ZM33.8414 48.1044C34.283 48.2335 35.1451 48.5882 35.7574 48.8925C36.3698 49.1969 37.3212 49.748 37.8718 50.1173L38.8728 50.7889L38.1642 50.8952C37.7747 50.9535 37.2721 51.0964 37.0475 51.2124C36.8229 51.3286 36.6392 51.4481 36.6392 51.478C36.6392 51.5078 37.2211 51.525 37.9322 51.5161C38.6435 51.5073 39.4666 51.5834 39.7616 51.6852C40.0565 51.7871 40.4159 52.001 40.5603 52.1606C40.818 52.4453 40.8083 52.4505 40.0138 52.4505C39.569 52.4505 38.8714 52.5497 38.4635 52.6707C38.0556 52.7919 37.4486 53.0891 37.1144 53.3311C36.7802 53.5732 36.4314 53.912 36.3393 54.0841C36.2473 54.2562 36.1979 54.4229 36.2297 54.4547C36.2613 54.4865 36.6491 54.3702 37.0914 54.1962C37.6958 53.9584 38.2253 53.8785 39.2253 53.8744C40.2059 53.8702 40.8451 53.9579 41.6584 54.208C42.2651 54.3945 43.156 54.7463 43.6381 54.9896C44.1201 55.233 45.2197 55.9623 46.0816 56.6105C46.9434 57.2586 47.6687 57.8452 47.6934 57.914C47.7181 57.983 47.4742 58.3882 47.1515 58.8146C46.8287 59.2409 46.2335 60.2279 45.8289 61.0077C45.4241 61.7876 44.9141 62.9243 44.6954 63.5339C44.4769 64.1434 44.1708 65.2929 44.0152 66.0882C43.8401 66.9839 43.7325 68.1615 43.7325 69.1821C43.7325 70.6705 43.7015 70.8629 43.4112 71.1719C43.2345 71.3599 42.9976 71.5139 42.8849 71.5139C42.7721 71.5139 42.088 71.3436 41.3647 71.1356C40.6413 70.9275 39.3654 70.4914 38.5291 70.1664C37.6928 69.8415 36.3769 69.2393 35.6047 68.828C34.8326 68.4169 33.7209 67.7489 33.1343 67.3437C32.5476 66.9385 31.5834 66.1934 30.9915 65.6882C30.3995 65.1828 29.6825 64.4601 29.3981 64.0823C29.1136 63.7044 28.8251 63.3932 28.757 63.3907C28.6889 63.3882 28.6803 63.6688 28.7378 64.0141C28.7954 64.3595 29.0639 65.5399 29.3347 66.6372C29.6054 67.7345 30.0255 69.2142 30.2682 69.9253C30.5108 70.6365 30.6781 71.2183 30.6398 71.2183C30.6017 71.2183 30.2444 71.0531 29.846 70.8512C29.2371 70.5427 29.0087 70.2957 28.4139 69.3031C28.0246 68.6536 27.6615 68.1705 27.6071 68.2295C27.5528 68.2885 27.589 68.8686 27.6875 69.5189C27.7862 70.1691 28.0166 70.9901 28.1996 71.3435C28.3824 71.6968 28.5068 72.011 28.4761 72.0417C28.4453 72.0725 27.9513 72.1412 27.3784 72.1945C26.3676 72.2884 26.3337 72.2808 26.2479 71.9386C26.1993 71.7446 26.0431 70.755 25.9007 69.7397C25.6993 68.3018 25.6411 66.8472 25.6375 63.1644C25.6349 60.2291 25.7083 57.7068 25.8314 56.5144C25.9405 55.4578 26.1169 54.0946 26.2235 53.485C26.33 52.8754 26.5554 52.0109 26.7245 51.5639C26.8934 51.1168 27.2836 50.4186 27.5919 50.0122C27.9002 49.6058 28.4826 49.0553 28.886 48.789C29.2896 48.5226 29.919 48.2114 30.2847 48.0973C30.6505 47.9833 31.4198 47.8854 31.9942 47.8798C32.5688 47.874 33.4 47.9751 33.8414 48.1044ZM51.8603 51.0737C53.0388 51.2812 54.3824 51.568 54.8459 51.7113C55.3094 51.8547 56.0089 52.207 56.4002 52.4941C56.7915 52.7814 57.2435 53.1638 57.4046 53.3441L57.6975 53.6719L57.1064 53.3732C56.7813 53.2091 55.9168 52.8625 55.1853 52.6032C54.4538 52.3438 53.3673 52.0372 52.7709 51.9216C52.1745 51.8062 51.2523 51.7116 50.7218 51.7116C49.8477 51.7116 49.6894 51.6618 49.0354 51.1818C48.6384 50.8904 48.3136 50.6203 48.3136 50.5817C48.3136 50.543 48.6294 50.5531 49.0156 50.604C49.4017 50.6549 50.6818 50.8663 51.8603 51.0737ZM70.534 53.0786C71.114 53.6679 71.7985 54.5157 72.055 54.9627C72.3114 55.4098 72.5607 55.9109 72.6091 56.0763C72.6754 56.304 72.5867 56.4419 72.2433 56.6448C71.9939 56.7921 71.7691 56.8896 71.7437 56.8612C71.7182 56.833 71.3469 56.0893 70.9185 55.2085C70.4279 54.2001 69.8687 53.3107 69.4083 52.8071C68.6873 52.0183 68.6829 52.0072 69.0783 52.0072C69.3805 52.0072 69.7389 52.271 70.534 53.0786ZM67.9507 53.2264L68.4853 53.5589L67.9697 53.6327C67.592 53.6868 67.4021 53.8153 67.2596 54.113C67.0962 54.4548 66.9727 54.5194 66.4822 54.5194C65.9005 54.5194 65.8992 54.5207 65.8992 55.1105V55.7016H64.7736C63.7718 55.7016 63.6562 55.73 63.7224 55.9602C63.7634 56.1024 63.8411 56.326 63.8953 56.4568C63.9728 56.6439 63.8735 56.7148 63.4317 56.7877C63.1227 56.8388 62.6868 56.8813 62.4634 56.8822C62.2399 56.8831 62.057 56.9294 62.057 56.9852C62.057 57.0409 62.2006 57.2394 62.3762 57.4262L62.6952 57.7659L62.1914 57.9681C61.9142 58.0792 61.5706 58.2113 61.4277 58.2617C61.2424 58.3271 61.1789 58.4849 61.2061 58.8131C61.243 59.2595 61.2074 59.2882 59.9881 59.7942C59.2972 60.0809 58.7064 60.3392 58.6751 60.3683C58.6437 60.3974 58.7296 60.5915 58.8659 60.7995C59.0021 61.0076 59.077 61.237 59.0324 61.3094C58.9876 61.3818 57.8401 62.126 56.4822 62.9631C54.8373 63.9773 53.2309 64.8212 51.6682 65.4921L49.3227 66.4987L48.1162 65.8594L46.9097 65.2202L46.8667 64.0007C46.827 62.8751 46.8658 62.6822 47.3709 61.4951C47.672 60.7877 47.995 60.0951 48.089 59.9559C48.2439 59.7262 48.3503 59.7636 49.2426 60.3623C49.7831 60.7249 50.3111 61.0216 50.4159 61.0216C50.5205 61.0216 51.1046 60.6699 51.7135 60.24C52.3225 59.8102 53.4859 59.0407 54.2986 58.53C55.1114 58.0192 56.6409 57.1756 57.6975 56.6551C58.7541 56.1348 60.9819 55.207 62.6481 54.5936C64.3143 53.98 66.01 53.3509 66.4164 53.1956C66.8228 53.0402 67.214 52.9088 67.2857 52.9035C67.3573 52.8981 67.6566 53.0434 67.9507 53.2264ZM75.5031 56.4775C75.5022 56.6604 75.4084 57.1171 75.2945 57.4926C75.1805 57.8679 74.9391 58.4664 74.758 58.8226C74.5769 59.1786 74.1662 59.8573 73.8455 60.3306C73.5247 60.804 72.8192 61.6611 72.2776 62.2353C71.7361 62.8095 70.5982 63.8361 69.7491 64.5164C68.9 65.197 67.6539 66.1204 66.9802 66.5688C66.3065 67.0171 65.6642 67.4188 65.5531 67.4615C65.405 67.5183 65.3277 67.3421 65.2638 66.8015C65.2157 66.396 64.9612 65.5473 64.6984 64.9159L64.2203 63.7676L65.6879 62.3803C66.4949 61.6172 68.107 60.171 69.2703 59.1664C70.4756 58.1256 71.7295 57.1772 72.1852 56.9616C72.6252 56.7534 73.3692 56.49 73.8386 56.3764C74.3079 56.2626 74.8748 56.164 75.0984 56.1572C75.4254 56.1473 75.5045 56.2098 75.5031 56.4775ZM44.2917 61.2943C44.0913 61.5324 43.6056 62.3499 43.2122 63.1108C42.8188 63.8718 42.2487 65.2543 41.9453 66.1831L41.3935 67.8717L41.2154 67.2175C41.1037 66.8073 41.0669 66.0535 41.1168 65.1964C41.1607 64.4446 41.1696 63.8294 41.1365 63.8294C41.1035 63.8294 40.9695 64.0789 40.8389 64.3836C40.7081 64.6885 40.4882 65.4999 40.35 66.1868L40.0988 67.4359L39.7902 66.7779C39.6204 66.4161 39.3676 65.6877 39.2281 65.1594C39.0886 64.6311 38.9407 64.0991 38.8993 63.9772C38.8521 63.8384 38.7446 63.9765 38.6116 64.3466C38.4947 64.6718 38.3985 65.4197 38.3976 66.0087L38.3961 67.0796L37.9978 66.8732C37.7788 66.7596 37.3492 66.4231 37.043 66.1252C36.7369 65.8274 36.2548 65.2397 35.9717 64.8194C35.6656 64.3648 35.4569 64.1618 35.4569 64.3183C35.4569 64.4629 35.5654 65.0131 35.698 65.5408C35.8304 66.0684 35.908 66.531 35.8703 66.5686C35.8325 66.6065 35.3417 66.4149 34.7795 66.1433C34.2174 65.8716 33.4401 65.5295 33.0523 65.383C32.6644 65.2366 32.3121 65.1517 32.2694 65.1943C32.2268 65.237 32.7025 65.6829 33.3269 66.185C33.9511 66.6872 34.9616 67.4352 35.5724 67.8474C36.1831 68.2595 37.4211 68.9486 38.3235 69.3785C39.2259 69.8084 40.2751 70.2628 40.655 70.3881C41.035 70.5136 41.7513 70.7098 42.2468 70.8243C42.7421 70.9387 43.1811 70.9779 43.2224 70.9112C43.2636 70.8446 43.2194 70.4812 43.1244 70.1035C43.0121 69.6575 42.9827 68.8129 43.0406 67.6946C43.0897 66.7473 43.2617 65.4633 43.4229 64.8411C43.5841 64.219 43.9489 63.0902 44.2333 62.3329C44.5178 61.5755 44.7293 60.9346 44.7033 60.9086C44.6773 60.8827 44.4921 61.0562 44.2917 61.2943ZM104.177 67.0805C104.321 67.0805 104.81 67.33 105.263 67.6347C105.716 67.9396 106.594 68.6876 107.214 69.2972C107.834 69.9068 108.451 70.605 108.585 70.8489C108.803 71.2457 108.829 72.1461 108.829 79.42V87.5478L108.394 88.4344C108.079 89.0752 107.485 89.7987 106.25 91.043C104.718 92.5857 104.456 92.7887 103.729 92.9932C103.283 93.1187 101.322 93.3976 99.3709 93.6127C97.4202 93.8279 95.5771 93.9711 95.2752 93.9309C94.9636 93.8895 94.2925 93.5674 93.7236 93.1863C93.1721 92.817 92.2773 92.1115 91.7352 91.6188C91.0813 91.0244 90.6691 90.5118 90.5107 90.0958C90.2991 89.5407 90.2766 88.5292 90.3142 81.2613L90.3564 73.0537L90.8706 72.2055C91.1534 71.7391 91.9006 70.801 92.5308 70.1211C93.1613 69.441 93.9749 68.6873 94.3391 68.4462C94.7044 68.2042 95.3841 67.9347 95.8559 67.8448C96.3262 67.7553 97.9079 67.5481 99.3709 67.3845C100.834 67.2209 102.264 67.0607 102.548 67.0285C102.833 66.9965 103.257 66.995 103.49 67.0253C103.724 67.0557 104.033 67.0805 104.177 67.0805ZM82.9714 70.0377C83.3757 70.3154 84.2479 71.0769 84.9095 71.7301C85.7935 72.6027 86.1559 73.0746 86.2757 73.5089C86.3653 73.834 86.4375 75.1972 86.436 76.5383C86.4346 77.8794 86.3749 79.2283 86.3033 79.5362C86.232 79.8438 85.9335 80.4423 85.6401 80.8662C85.3466 81.2898 83.4515 83.6649 81.4286 86.1439C79.4057 88.6229 77.8343 90.6708 77.9367 90.6949C78.0393 90.7189 79.9382 90.5329 82.1567 90.2814C84.3753 90.03 86.28 89.8586 86.3894 89.9006C86.5447 89.9603 86.5881 90.5079 86.5881 92.4111C86.5881 94.0671 86.5345 94.8785 86.4204 94.9489C86.3282 95.006 82.5544 95.4676 78.034 95.9751C73.5138 96.4824 69.7655 96.868 69.7045 96.8319C69.6434 96.796 69.5936 95.5825 69.5936 94.1353C69.5936 92.6882 69.661 91.1487 69.7435 90.7142C69.857 90.116 70.081 89.6836 70.6671 88.9325C71.0927 88.387 72.9687 86.1234 74.8361 83.9021C76.7034 81.6807 78.4489 79.5407 78.7152 79.1466C79.1673 78.477 79.1992 78.3474 79.1992 77.1812C79.1992 76.3668 79.123 75.7851 78.9801 75.5089C78.8404 75.2386 78.5983 75.0495 78.3119 74.9865C78.0649 74.9323 77.5973 74.9327 77.2729 74.9875C76.9059 75.0496 76.6234 75.1986 76.5252 75.3824C76.4383 75.5447 76.2033 76.451 76.0031 77.3965C75.8028 78.3418 75.5736 79.1558 75.4935 79.2053C75.4136 79.2548 74.1536 79.4179 72.6937 79.5681C71.2338 79.7182 70.0096 79.8113 69.9733 79.7751C69.9371 79.7388 70.0707 77.6867 70.2702 75.215C70.4698 72.7431 70.6637 70.69 70.7012 70.6526C70.7386 70.6151 72.9819 70.3321 75.6862 70.0235C78.3906 69.7151 80.9706 69.4785 81.4197 69.4979C82.0729 69.526 82.3832 69.6338 82.9714 70.0377ZM66.8407 73.2503C66.8893 74.449 66.9704 76.6103 67.0211 78.053C67.1045 80.4298 67.0903 80.6761 66.8692 80.6761C66.735 80.6761 65.6895 80.7793 64.5458 80.9055C63.4022 81.0317 62.4512 81.1147 62.4326 81.0902C62.4141 81.0657 62.2593 80.2922 62.0887 79.3715C61.9181 78.4509 61.6973 77.5997 61.5981 77.4803C61.4758 77.3328 61.2 77.2771 60.74 77.3071L60.062 77.3511L60.0237 84.7939L59.9853 92.2368L60.6517 92.1369L61.3181 92.0368V94.9147V97.7923L60.7639 97.8822C60.4592 97.9317 58.381 98.1696 56.1459 98.4111C53.9107 98.6524 51.7993 98.8914 51.4539 98.942L50.8258 99.0341V96.1529C50.8258 93.2898 50.8279 93.2711 51.1583 93.1826C51.3413 93.1336 51.6404 93.0926 51.8233 93.0915L52.1558 93.0895V85.6813V78.2732L51.4629 78.3513C51.0707 78.3956 50.694 78.5333 50.5949 78.6688C50.4987 78.8005 50.2695 79.6884 50.0856 80.6418C49.9019 81.5954 49.7106 82.4191 49.6606 82.4725C49.6107 82.5258 48.6112 82.6779 47.4397 82.8105C46.2682 82.9429 45.2679 82.999 45.2168 82.935C45.1657 82.8712 45.2264 80.6909 45.3519 78.09L45.5797 73.3611L55.5547 72.2341C61.041 71.6144 65.8049 71.0991 66.1411 71.0889L66.7525 71.0705L66.8407 73.2503ZM99.1899 72.3963C98.9277 72.4585 98.5425 72.6215 98.3335 72.7583C98.1247 72.8952 97.8749 73.1866 97.7786 73.4057C97.6561 73.6847 97.5881 75.6019 97.552 79.7894C97.5237 83.0812 97.5447 86.2562 97.5984 86.845C97.6605 87.5219 97.7916 88.0328 97.955 88.2347C98.1457 88.4701 98.4247 88.5713 99.0181 88.6205C99.5466 88.6644 100.011 88.6088 100.37 88.459C100.676 88.3309 101.047 88.0158 101.214 87.7414C101.502 87.2695 101.513 87.0121 101.513 80.4395C101.514 75.7362 101.462 73.4778 101.346 73.1456C101.232 72.8193 101.02 72.598 100.686 72.4585C100.415 72.3454 100.075 72.2596 99.9298 72.2678C99.785 72.2763 99.452 72.334 99.1899 72.3963ZM33.8314 77.6467V80.5283H33.4741C33.2775 80.5283 33.0115 80.5687 32.883 80.618C32.6741 80.6981 32.6492 81.4827 32.6492 87.9534V95.199L33.9174 95.0961C34.6149 95.0395 35.3445 94.9209 35.5387 94.8323C35.7328 94.7438 35.9585 94.4651 36.0402 94.213C36.1219 93.9608 36.2941 93.0895 36.423 92.2767C36.5518 91.4639 36.7032 90.7568 36.759 90.7052C36.815 90.6536 38.1514 90.4701 39.7288 90.2973C41.3063 90.1247 42.6285 90.0151 42.6672 90.0536C42.7059 90.0924 42.6237 92.2709 42.4848 94.8949C42.3459 97.5188 42.2151 99.7321 42.1943 99.8133C42.1733 99.8957 38.0144 100.422 32.8057 101.003C26.4273 101.713 23.4354 101.994 23.3935 101.885C23.3598 101.797 23.3504 100.497 23.3727 98.9958L23.413 96.2667L24.0042 96.1928L24.5953 96.1189L24.6335 88.8408L24.672 81.5628H24.0055H23.3392V78.7504C23.3392 76.6329 23.3848 75.9222 23.5239 75.8744C23.6256 75.8393 25.7036 75.5846 28.1419 75.3081C30.5803 75.0316 32.858 74.7962 33.2033 74.7851L33.8314 74.765V77.6467ZM20.8512 79.7274C20.9864 81.6715 21.1027 83.7444 21.1098 84.3336C21.1167 84.9228 21.0725 85.4044 21.0117 85.4038C20.9508 85.4031 19.6525 85.5427 18.1269 85.714C16.6012 85.8853 15.2659 85.992 15.1595 85.951C15.0442 85.9069 14.8991 85.405 14.801 84.7107C14.7103 84.0695 14.5677 83.3648 14.484 83.1449C14.3439 82.7765 14.2675 82.745 13.5109 82.745C13.0591 82.745 12.4757 82.8356 12.2141 82.9463C11.9526 83.057 11.6056 83.2967 11.443 83.4789C11.1596 83.7966 11.1457 84.0527 11.1029 89.7429C11.0708 94.0098 11.1079 95.8536 11.2347 96.31C11.3318 96.6589 11.5494 97.0412 11.7185 97.1597C11.9096 97.2934 12.3817 97.375 12.965 97.375C13.7951 97.375 13.9519 97.3273 14.3152 96.9637C14.6309 96.6482 14.7667 96.3131 14.8991 95.5229C14.994 94.9566 15.141 94.1443 15.2259 93.7175C15.3382 93.1524 15.4475 92.9411 15.6283 92.9396C15.7647 92.9384 17.0069 92.8065 18.3886 92.6461C19.7703 92.4858 21.0504 92.3538 21.2333 92.3526C21.5314 92.3507 21.5658 92.4227 21.5658 93.047C21.5658 93.4301 21.4263 95.6411 21.2559 97.9607C21.0854 100.28 20.9026 102.218 20.8495 102.268C20.7965 102.318 18.1727 102.642 15.0188 102.988C11.8651 103.334 8.95889 103.587 8.56078 103.548C8.09365 103.503 7.54731 103.303 7.02063 102.984C6.57183 102.712 5.67689 102.004 5.03184 101.41C4.31482 100.751 3.72489 100.059 3.51327 99.6291L3.16747 98.9267V91.3161C3.16747 85.4176 3.21166 83.5535 3.36417 83.0295C3.47234 82.6575 3.8808 81.926 4.27196 81.4039C4.66299 80.8817 5.60876 79.8491 6.37366 79.1092C7.56948 77.9524 7.87021 77.7386 8.51984 77.5827C8.93539 77.4831 11.7581 77.1157 14.7926 76.7662C17.827 76.4169 20.3762 76.1448 20.4575 76.1618C20.5426 76.1794 20.7096 77.6923 20.8512 79.7274ZM92.6194 98.3394C92.6563 98.915 92.6072 99.105 92.3739 99.2884C92.2134 99.4146 91.7503 100.283 91.3448 101.217C90.9393 102.152 90.5688 103.135 90.5215 103.403C90.4592 103.754 90.496 103.912 90.6545 103.973C90.8098 104.032 90.8737 104.283 90.8737 104.835V105.613L90.3195 105.699C90.0148 105.747 89.3164 105.831 88.7678 105.887L87.7703 105.987V105.154C87.7703 104.512 87.8212 104.321 87.992 104.321C88.1401 104.321 88.2137 104.172 88.2137 103.875C88.2137 103.625 87.8232 102.651 87.3258 101.658C86.8376 100.684 86.3721 99.8872 86.2914 99.8872C86.2108 99.8872 86.1448 99.5215 86.1448 99.0745C86.1448 98.4037 86.19 98.2595 86.4034 98.2493C86.5455 98.2423 87.045 98.1888 87.5133 98.1305L88.3645 98.0241L88.5849 98.7709C88.7059 99.1817 88.9113 99.9067 89.0414 100.382C89.1713 100.858 89.3267 101.19 89.3866 101.121C89.4466 101.052 89.6733 100.302 89.8905 99.4548C90.1076 98.6075 90.31 97.8894 90.3402 97.8591C90.3705 97.829 90.8187 97.7498 91.3364 97.6833C91.854 97.6168 92.3441 97.5752 92.4253 97.5911C92.5066 97.6069 92.5939 97.9437 92.6194 98.3394ZM82.1548 99.502C82.1548 100.07 82.0918 100.323 81.9359 100.383C81.7544 100.453 81.7209 100.849 81.7401 102.704C81.7577 104.408 81.81 104.959 81.959 105.016C82.0871 105.065 82.1548 105.359 82.1548 105.867V106.643L81.2464 106.738C80.7469 106.79 80.1816 106.833 79.9903 106.833H79.6425V103.853C79.6425 102.214 79.6063 100.909 79.562 100.953C79.5177 100.997 79.1614 102.373 78.7701 104.011C78.3788 105.648 78.0327 107.014 78.0009 107.045C77.9691 107.076 77.5841 107.124 77.1454 107.152C76.4043 107.199 76.3394 107.176 76.2308 106.833C76.1665 106.63 75.8339 105.348 75.4916 103.986C75.1494 102.623 74.8383 101.539 74.8006 101.577C74.7628 101.614 74.7428 102.942 74.7563 104.527L74.7806 107.408L74.293 107.482C74.0248 107.523 73.4563 107.596 73.0295 107.643L72.2536 107.73V106.912C72.2536 106.462 72.3201 106.094 72.4014 106.094C72.4936 106.094 72.5492 105.232 72.5492 103.803C72.5492 102.302 72.4957 101.513 72.394 101.513C72.2986 101.513 72.2559 101.186 72.2832 100.663L72.3275 99.8133L73.7314 99.6413C74.5036 99.5466 75.4049 99.4636 75.7341 99.4566L76.3331 99.4439L76.6737 101.567C76.8611 102.734 77.0649 103.771 77.1266 103.871C77.2026 103.994 77.265 103.94 77.3187 103.707C77.3625 103.516 77.5482 102.462 77.7313 101.365C77.9144 100.268 78.1049 99.3221 78.1544 99.2636C78.2041 99.205 78.9749 99.064 79.8672 98.95C80.7596 98.8361 81.6395 98.7344 81.8223 98.7239C82.1283 98.7065 82.1548 98.7684 82.1548 99.502ZM67.875 100.663C67.9239 100.846 67.965 101.411 67.966 101.919C67.9679 102.779 67.945 102.843 67.6356 102.844C67.4528 102.845 67.0538 102.887 66.7489 102.938C66.2729 103.016 66.1945 102.99 66.1925 102.751C66.1912 102.598 66.1345 102.385 66.0663 102.278C65.9794 102.141 65.781 102.113 65.4035 102.184C64.8686 102.284 64.8647 102.29 64.8647 103.027V103.77L65.8253 103.693L66.7859 103.616V104.338C66.7859 105.026 66.7671 105.06 66.3795 105.061C66.1559 105.062 65.7238 105.104 65.4189 105.154L64.8647 105.246V106.031C64.8647 106.462 64.9163 106.847 64.9793 106.886C65.0422 106.925 65.3211 106.91 65.5991 106.853C66.006 106.77 66.1278 106.659 66.2252 106.284C66.2917 106.027 66.4616 105.784 66.6029 105.743C66.7442 105.703 67.1569 105.649 67.5202 105.623L68.1804 105.577L68.1346 106.833C68.1094 107.524 68.0641 108.114 68.034 108.145C68.0038 108.176 66.8629 108.324 65.4984 108.474C64.1338 108.624 62.8346 108.748 62.6111 108.75C62.2229 108.754 62.2047 108.722 62.2047 108.033C62.2047 107.573 62.2848 107.246 62.4264 107.128C62.6046 106.98 62.6481 106.527 62.6481 104.815C62.6481 103.059 62.6092 102.671 62.4264 102.601C62.2673 102.54 62.2047 102.291 62.2047 101.719C62.2047 101.184 62.2655 100.919 62.3895 100.913C62.4911 100.909 63.5717 100.784 64.7909 100.636C66.01 100.488 67.1826 100.358 67.3966 100.348C67.6835 100.335 67.8092 100.418 67.875 100.663ZM57.2057 102.148L57.8453 102.636L57.8858 105.191C57.9236 107.576 57.9053 107.781 57.6131 108.254C57.441 108.532 57.0848 108.924 56.8218 109.125C56.4061 109.442 56.0304 109.525 53.9511 109.759C52.6352 109.907 51.5268 109.997 51.4879 109.958C51.4489 109.919 51.417 109.563 51.417 109.168C51.417 108.665 51.4836 108.423 51.6386 108.364C51.8223 108.293 51.8603 107.89 51.8603 106.004C51.8603 104.15 51.822 103.729 51.6528 103.729C51.5028 103.729 51.4437 103.523 51.4396 102.983C51.4357 102.497 51.5018 102.21 51.6286 102.161C51.7356 102.12 52.5464 101.999 53.4304 101.892C54.3143 101.784 55.3815 101.689 55.8018 101.679C56.4538 101.663 56.6603 101.732 57.2057 102.148ZM46.007 102.954C46.0497 103.096 46.2895 104.276 46.5398 105.577C46.7902 106.877 47.0309 108.124 47.0748 108.347C47.1185 108.57 47.2532 108.807 47.3738 108.875C47.5323 108.964 47.5804 109.199 47.547 109.725L47.5008 110.453L46.3539 110.587C45.7231 110.661 45.1667 110.681 45.1175 110.631C45.0681 110.582 44.9936 110.238 44.9517 109.866C44.9099 109.495 44.8247 109.159 44.7627 109.121C44.7006 109.082 44.3448 109.093 43.9719 109.144L43.294 109.237L43.2012 109.937C43.1501 110.322 43.0654 110.707 43.0131 110.791C42.9608 110.876 42.4238 111.014 41.82 111.097C41.216 111.181 40.6677 111.216 40.6017 111.175C40.5355 111.134 40.4814 110.826 40.4814 110.491C40.4814 110.105 40.582 109.77 40.7561 109.576C40.9524 109.358 41.1918 108.396 41.5948 106.205C41.9083 104.5 42.2293 103.134 42.3175 103.129C42.4049 103.123 43.2079 103.032 44.102 102.925C44.996 102.818 45.7729 102.723 45.8284 102.713C45.8839 102.703 45.9642 102.811 46.007 102.954ZM54.2247 105.577C54.2247 106.755 54.208 107.769 54.1878 107.83C54.1676 107.891 54.3504 107.961 54.5942 107.985C54.838 108.009 55.1671 107.933 55.3255 107.817C55.5675 107.64 55.6233 107.38 55.6755 106.19C55.7095 105.41 55.6922 104.471 55.6371 104.103L55.5366 103.434H54.8807H54.2247V105.577ZM36.4784 105.835C36.4901 106.468 36.4586 106.537 36.1589 106.539C35.9759 106.54 35.5771 106.582 35.2722 106.632C34.7823 106.713 34.7181 106.689 34.7181 106.421C34.7181 106.254 34.6777 106.013 34.6284 105.884C34.579 105.756 34.3842 105.651 34.1955 105.651C34.0069 105.651 33.748 105.755 33.6202 105.883C33.4333 106.07 33.3881 106.485 33.3881 108.015C33.3881 109.545 33.4333 109.96 33.6202 110.147C33.748 110.275 33.8766 110.379 33.9062 110.379C33.9357 110.379 34.1212 110.318 34.3183 110.243C34.5883 110.141 34.7003 109.958 34.773 109.504C34.8522 109.008 34.9278 108.901 35.2001 108.9C35.382 108.899 35.7871 108.856 36.1004 108.804L36.6701 108.71L36.5631 110.173C36.5042 110.977 36.4474 111.646 36.4369 111.659C36.4262 111.672 35.5894 111.784 34.5774 111.907C33.2614 112.067 32.6509 112.087 32.4346 111.977C32.268 111.891 31.9159 111.617 31.6517 111.367L31.1714 110.913V108.296V105.679L31.816 104.967L32.4606 104.255L34.3652 104.022L36.2697 103.789L36.3676 104.461C36.4215 104.831 36.4713 105.449 36.4784 105.835ZM43.9874 104.764C43.9393 104.886 43.8062 105.568 43.6916 106.279L43.4832 107.572H44.0529H44.6227L44.5335 107.018C44.4846 106.713 44.3613 106.031 44.2596 105.503C44.158 104.974 44.0355 104.642 43.9874 104.764ZM26.0677 108.089C26.471 110.215 26.7005 111.118 26.8379 111.118C26.9763 111.118 27.0336 111.353 27.0336 111.92V112.723L26.1839 112.816C25.7166 112.868 25.1593 112.943 24.9457 112.983C24.5734 113.052 24.5518 113.019 24.4284 112.2L24.2997 111.345L23.6347 111.391C23.269 111.417 22.9181 111.487 22.8549 111.548C22.7918 111.609 22.6993 112.004 22.6492 112.427C22.5991 112.85 22.5177 113.219 22.4683 113.247C22.4189 113.276 21.8632 113.346 21.2333 113.404L20.088 113.508V112.695C20.088 112.176 20.1548 111.86 20.2728 111.821C20.386 111.783 20.6883 110.535 21.0542 108.594L21.6509 105.429L22.9753 105.264C23.7037 105.173 24.5682 105.09 24.8964 105.079L25.4932 105.059L26.0677 108.089ZM23.4541 107.128C23.4037 107.332 23.2814 108.015 23.1822 108.647C23.0831 109.279 23.0398 109.834 23.086 109.88C23.1324 109.926 23.3798 109.918 23.636 109.862C24.0971 109.761 24.1008 109.752 24.0055 109.059C23.9524 108.674 23.8274 107.999 23.7275 107.559C23.5749 106.887 23.5311 106.818 23.4541 107.128Z"/>
</mask>
<path fill-rule="evenodd" clip-rule="evenodd" d="M56.887 0.430185C56.36 0.660866 55.8392 0.984499 55.7297 1.14927C55.6204 1.31404 55.1767 2.2412 54.7439 3.20959C54.3112 4.17783 53.7544 5.60315 53.5065 6.37677C53.2587 7.15039 52.9135 8.47359 52.7393 9.31711C52.5652 10.1608 52.4125 11.4163 52.4001 12.1072L52.3775 13.3633L54.3604 16.4666C55.451 18.1734 58.8028 23.4269 61.8089 28.1411C64.815 32.8552 68.3615 38.4174 69.6901 40.5016C71.0188 42.5858 72.1059 44.3576 72.1059 44.4389C72.1059 44.5202 72.0156 44.6212 71.9052 44.6637C71.7921 44.7071 71.4415 45.6971 71.1014 46.9331C70.7697 48.139 70.4544 49.3583 70.4008 49.6427C70.3473 49.9272 70.206 50.3138 70.0868 50.5019C69.9675 50.6899 69.4781 51.0972 68.9988 51.4069C68.5197 51.7165 67.4435 52.2427 66.607 52.5763C65.7708 52.9097 64.0224 53.5534 62.722 54.0068C61.4215 54.4602 60.2538 54.8652 60.1271 54.9067C59.9819 54.9545 59.8368 54.8509 59.7345 54.6266C59.6454 54.4307 59.1837 53.8495 58.7088 53.3351C58.234 52.8207 57.4491 52.1428 56.9648 51.829C56.4804 51.5149 55.6492 51.1285 55.1176 50.9701C54.5859 50.8115 53.0869 50.5452 51.7864 50.3781C50.486 50.2109 49.162 50.0049 48.8444 49.9204C48.5269 49.8357 48.0779 49.5776 47.8469 49.3466C47.4321 48.9316 47.427 48.905 47.427 47.1499C47.427 46.1728 47.4972 44.5218 47.583 43.481C47.7227 41.7888 47.7735 41.5664 48.0633 41.376C48.2417 41.259 48.7741 40.775 49.2465 40.3005C49.7188 39.8262 50.1937 39.2237 50.3017 38.9616C50.4096 38.6998 50.5437 37.887 50.6 37.1555C50.6562 36.424 50.6295 34.9186 50.5406 33.8103C50.4517 32.7019 50.2482 31.2838 50.0884 30.659C49.9285 30.0341 49.6161 29.1891 49.3942 28.7812C49.1722 28.3734 48.483 27.5637 47.8626 26.982C47.2422 26.4002 46.3086 25.6733 45.7878 25.3664C45.2669 25.0593 44.4086 24.6717 43.8803 24.5048C43.352 24.338 42.414 24.1646 41.796 24.1196C41.022 24.0633 40.3302 24.114 39.573 24.2824C38.9683 24.4171 38.0484 24.7281 37.5285 24.974C37.0088 25.2198 36.1794 25.7092 35.6857 26.0617C35.1918 26.414 34.5045 27.0097 34.1581 27.3855C33.8117 27.7613 33.3282 28.3842 33.0835 28.7699C32.8388 29.1556 32.5079 29.8937 32.3483 30.4102C32.1887 30.9268 32.0581 31.6845 32.0581 32.094C32.0581 32.8235 32.0343 32.8632 30.8744 34.0714C30.2234 34.7495 29.5826 35.531 29.4505 35.8079C29.3042 36.1147 29.2479 36.461 29.3064 36.6939C29.3621 36.916 29.6027 37.1826 29.8804 37.33C30.2113 37.5056 30.8226 37.6025 31.8646 37.6447L33.3706 37.7055L33.5407 38.465C33.6344 38.8827 33.7477 39.8139 33.7927 40.5342L33.8742 41.8441L33.5203 41.7406C33.3257 41.6836 33.0505 41.503 32.9088 41.3392C32.7371 41.1406 32.6821 40.9179 32.744 40.6711C32.8283 40.3357 32.8088 40.316 32.5373 40.4613C32.3725 40.5495 32.0643 40.8278 31.8523 41.0796C31.6245 41.3505 31.4669 41.7187 31.4669 41.981C31.4669 42.2739 31.6134 42.5708 31.8989 42.8563C32.182 43.1395 32.5002 43.2975 32.8225 43.3149C33.0929 43.3295 33.5197 43.3279 33.7708 43.3113C34.2004 43.2831 34.2515 43.3381 34.6346 44.2394C34.8586 44.7664 35.0339 45.2492 35.024 45.3123C35.0142 45.3755 34.7921 45.4046 34.5304 45.3773C34.2687 45.3498 33.8775 45.2359 33.6613 45.124C33.445 45.0121 33.1791 44.7197 33.0703 44.4739C32.9616 44.2282 32.8367 44.0272 32.7927 44.0272C32.7488 44.0272 32.6065 44.2101 32.4764 44.4336C32.3464 44.657 32.1931 45.0588 32.1359 45.3263C32.0628 45.6683 32.1028 45.9208 32.271 46.1773C32.4024 46.3779 32.7241 46.6301 32.986 46.7377C33.4389 46.9238 33.3906 46.9377 31.9842 47.0251C31.1714 47.0757 30.1866 47.2179 29.7956 47.3411C29.4047 47.4642 28.7527 47.7457 28.3469 47.9666C27.941 48.1876 27.3821 48.6194 27.1047 48.9263C26.8275 49.2332 26.4388 49.8037 26.2411 50.194C26.0433 50.5842 25.6761 51.5674 25.425 52.379C25.174 53.1904 24.8388 54.6192 24.6802 55.5539C24.5215 56.4886 24.3211 57.9419 24.2348 58.7837C24.1487 59.6254 24.078 61.654 24.078 63.2918C24.078 64.972 24.1725 67.074 24.2948 68.1159C24.4142 69.1314 24.6176 70.518 24.7469 71.1973C24.8763 71.8765 24.9505 72.4639 24.9118 72.5027C24.8732 72.5412 24.3693 72.6323 23.7921 72.7047C23.2147 72.7772 22.6108 72.907 22.4498 72.9931C22.2868 73.0803 21.8465 73.1115 21.4551 73.0633C21.0261 73.0106 18.469 73.2367 14.8817 73.6445C11.6524 74.0118 8.59343 74.4195 8.0839 74.5507C7.57436 74.6819 6.79173 74.9976 6.3447 75.2522C5.89767 75.507 4.94376 76.3084 4.22497 77.0332C3.50603 77.7582 2.53203 78.8369 2.06032 79.4303C1.58876 80.0238 1.02218 80.8914 0.801252 81.3584C0.580324 81.8252 0.309891 82.7106 0.200092 83.3259C0.051575 84.1588 0.000444356 86.1993 1.02212e-06 91.3161C-0.000294534 95.0955 0.0635453 98.6865 0.142015 99.2961C0.232751 100.001 0.450132 100.742 0.739925 101.332C1.01893 101.901 1.57709 102.647 2.18135 103.259C2.7237 103.808 3.62618 104.604 4.1867 105.028C4.74722 105.451 5.57315 105.977 6.02195 106.197C6.66685 106.513 7.10974 106.609 8.1337 106.658C8.9917 106.699 10.907 106.558 13.8032 106.24C16.2087 105.975 18.2156 105.798 18.2628 105.845C18.3101 105.892 18.2005 106.749 18.0192 107.749C17.8365 108.756 17.4994 110.006 17.2631 110.552C16.8864 111.423 16.8369 111.711 16.8369 113.032C16.8369 114.043 16.9105 114.703 17.0642 115.071C17.1892 115.37 17.4054 115.741 17.5445 115.895C17.6837 116.048 18.0619 116.309 18.3852 116.474C18.8956 116.735 19.1477 116.762 20.3063 116.685C21.0396 116.636 22.1385 116.528 22.748 116.444C23.3576 116.359 24.7454 116.193 25.832 116.073C27.424 115.897 27.9312 115.782 28.4443 115.482C28.7944 115.276 29.2225 114.929 29.3955 114.709C29.6819 114.344 29.739 114.327 30.0344 114.514C30.2128 114.627 30.5581 114.82 30.8019 114.944C31.0458 115.067 31.6382 115.196 32.1183 115.231C32.5985 115.266 33.7955 115.215 34.7783 115.117C35.7612 115.019 36.798 114.868 37.0825 114.782C37.367 114.695 37.7834 114.495 38.0079 114.338C38.3996 114.063 38.4459 114.061 39.1614 114.299C39.8128 114.515 40.0969 114.525 41.4133 114.377C42.2419 114.283 43.2855 114.145 43.7325 114.07C44.1795 113.995 45.3394 113.867 46.31 113.786C47.707 113.668 48.238 113.558 48.8573 113.255C49.2876 113.044 49.715 112.918 49.8069 112.975C49.8988 113.032 50.1987 113.129 50.4731 113.191C50.7682 113.258 52.045 113.187 53.5959 113.019C55.039 112.863 56.5684 112.635 56.9945 112.514C57.4661 112.379 58.0931 112.029 58.5969 111.619L59.4245 110.945L59.7432 111.236C59.9185 111.396 60.2839 111.639 60.5553 111.777C60.8325 111.917 61.383 112.025 61.8114 112.023C62.2309 112.021 63.7712 111.884 65.2342 111.718C66.6972 111.552 68.1426 111.377 68.4464 111.328C68.7501 111.28 69.2356 111.08 69.5252 110.883C70.0444 110.531 70.0622 110.529 70.7918 110.768C71.4899 110.996 71.7002 110.992 74.5158 110.686C76.1569 110.508 77.932 110.301 78.4603 110.226C78.9886 110.151 80.1413 110.022 81.0218 109.94C81.9532 109.854 82.8801 109.677 83.2384 109.518C83.5771 109.368 84.1097 108.961 84.4221 108.614L84.99 107.984L85.4566 108.434C85.7131 108.681 86.1103 108.954 86.3391 109.04C86.5679 109.127 87.0666 109.197 87.4474 109.196C87.8283 109.195 88.9288 109.096 89.893 108.976C91.1231 108.823 91.8265 108.658 92.2505 108.423C92.5829 108.239 93.0723 107.804 93.338 107.455C93.6037 107.106 93.8938 106.551 93.9825 106.221C94.0711 105.892 94.1313 104.947 94.1161 104.122C94.1002 103.267 94.1616 102.437 94.2585 102.194C94.3521 101.959 94.6033 101.56 94.8168 101.308C95.0302 101.055 95.3262 100.582 95.4744 100.257C95.6562 99.8578 95.7456 99.3051 95.7493 98.5572C95.7524 97.9477 95.8037 97.3766 95.8634 97.2884C95.9231 97.2 97.0028 97.0165 98.2626 96.8807C99.5224 96.7447 101.052 96.5689 101.661 96.49C102.271 96.4111 103.245 96.2424 103.825 96.1154C104.463 95.9757 105.242 95.6655 105.794 95.332C106.296 95.0283 107.338 94.1539 108.109 93.389C108.88 92.6241 109.816 91.5954 110.189 91.103C110.562 90.6106 111.055 89.8088 111.284 89.3211C111.514 88.8334 111.769 87.9689 111.851 87.4C111.935 86.817 112 83.2053 112 79.1244C112 75.0233 111.935 71.4348 111.851 70.849C111.768 70.2802 111.56 69.5155 111.388 69.1496C111.2 68.7504 110.477 67.8936 109.581 67.0066C108.759 66.1939 107.655 65.2496 107.128 64.9081C106.6 64.5667 105.772 64.1844 105.288 64.0583C104.804 63.9324 104.126 63.8294 103.783 63.8294C103.439 63.8294 101.641 64.0004 99.7866 64.2094C97.9324 64.4183 95.9572 64.6854 95.3973 64.8028C94.8374 64.9202 93.9772 65.2305 93.4858 65.4924C92.9944 65.7544 92.0426 66.4891 91.3705 67.1253C90.6984 67.7613 89.8014 68.7098 89.377 69.2329C88.9526 69.7559 88.5141 70.1839 88.4024 70.1839C88.2908 70.1839 87.5736 69.6267 86.8087 68.9458C86.044 68.2648 85.1025 67.4986 84.7168 67.2431C84.3309 66.9876 83.6844 66.6802 83.28 66.5601C82.8755 66.4399 82.1076 66.3467 81.5737 66.3529C81.0399 66.3591 79.9179 66.4442 79.0803 66.5419C78.2428 66.6396 77.5305 66.6926 77.4975 66.6597C77.4646 66.6266 77.7272 66.2256 78.0813 65.7687C78.4353 65.3116 78.9174 64.756 79.1524 64.5337C79.3875 64.3116 80.0096 63.9562 80.5348 63.744C81.06 63.5319 81.9504 63.1174 82.5136 62.8229C83.0766 62.5284 83.5603 62.3518 83.5884 62.4304C83.6164 62.509 84.1555 63.4046 84.7864 64.4205C85.6772 65.8553 86.0131 66.2791 86.2911 66.319C86.4879 66.3471 86.9179 66.2908 87.2466 66.1937C87.5753 66.0966 88.061 65.8537 88.3258 65.6537C88.5908 65.4536 88.9398 65.0306 89.1017 64.7134C89.2635 64.3963 89.3959 64.0264 89.3959 63.8915C89.3959 63.7566 88.9493 62.7628 88.4036 61.6829L87.4114 59.7196L88.001 59.0776C88.3252 58.7244 88.7519 58.1734 88.949 57.8528C89.2079 57.432 89.3094 57.0489 89.3148 56.473C89.3207 55.8197 89.262 55.6274 88.9895 55.4065C88.8067 55.2583 88.657 54.996 88.657 54.8235C88.657 54.6511 88.5633 54.2858 88.4488 54.0116C88.3343 53.7377 88.1086 53.4715 87.9471 53.4202C87.7598 53.3608 87.619 53.1432 87.5583 52.8192C87.506 52.5399 87.2934 52.11 87.0863 51.8637C86.8791 51.6175 86.623 51.4161 86.5172 51.4161C86.4112 51.4161 86.2846 51.2568 86.2358 51.0621C86.1869 50.8675 86.2462 50.4269 86.3675 50.083C86.4888 49.7391 86.5881 49.2634 86.5881 49.0258C86.5881 48.788 86.4913 48.4063 86.3729 48.1774C86.2042 47.8511 86.1913 47.6392 86.3138 47.1957C86.4263 46.7884 86.4227 46.4725 86.3014 46.0676C86.2061 45.7492 85.9431 45.3647 85.6955 45.1816C85.3582 44.9322 85.2581 44.742 85.2581 44.3493C85.2581 44.0694 85.1245 43.6242 84.9612 43.3601C84.7979 43.0959 84.4671 42.798 84.226 42.6981C83.8858 42.5572 83.7681 42.396 83.7007 41.9788C83.6528 41.683 83.5527 41.2912 83.4783 41.1081C83.4038 40.9249 83.0456 40.6307 82.682 40.4541C82.0281 40.1363 82.0064 40.1356 80.5732 40.3777C79.7769 40.5121 78.9897 40.6609 78.8239 40.7082C78.5522 40.7858 77.5228 38.7868 68.3629 20.3919C62.7752 9.17051 58.1228 -0.00576063 58.0243 2.71335e-06C57.9258 0.00591383 57.4141 0.199503 56.887 0.430185ZM58.2877 5.24257C59.0005 6.62045 59.7995 8.1467 60.0633 8.63437C60.3271 9.12204 60.8756 10.1528 61.2823 10.9249C61.689 11.6971 64.2679 16.6181 67.0131 21.8605C69.7584 27.1029 73.1911 33.6477 74.6413 36.4044C76.0916 39.161 77.2613 41.4332 77.2409 41.4538C77.2203 41.4742 77.0343 41.5334 76.8274 41.5853C76.4618 41.6771 76.3109 41.4173 71.4457 32.3244C68.6928 27.1787 64.5337 19.4111 62.2036 15.0627C59.8733 10.7143 57.5803 6.42509 57.108 5.53103C56.6359 4.63698 56.1853 3.82302 56.107 3.72238C56.0287 3.62174 55.905 3.57608 55.8321 3.62115C55.7594 3.66608 55.5703 3.94804 55.4121 4.24758C55.2539 4.54713 55.1229 4.6924 55.1212 4.57048C55.1194 4.44856 55.2403 4.07941 55.3898 3.75002C55.5395 3.42062 55.8431 2.86409 56.0647 2.51311L56.4674 1.87516L56.7297 2.30637C56.874 2.54356 57.575 3.86484 58.2877 5.24257ZM55.7751 10.851C56.5688 12.3953 57.6012 14.3903 58.069 15.2844C58.537 16.1784 60.1812 19.3372 61.7227 22.3038C63.2642 25.2705 65.2103 29.0277 66.0471 30.6533C66.8841 32.2788 67.6161 33.6753 67.6737 33.7566C67.7315 33.8379 68.6155 35.5336 69.6383 37.525C70.661 39.5163 71.7001 41.5113 71.947 41.9583C72.1939 42.4053 72.3973 42.6886 72.3988 42.588C72.4002 42.4873 72.0732 41.491 71.672 40.3741C71.2708 39.2572 70.964 38.3221 70.99 38.2961C71.016 38.27 71.6269 39.366 72.3475 40.7316L73.6575 43.2144L74.3101 43.2611C74.7978 43.2958 75.0713 43.2273 75.393 42.9895C75.6298 42.8144 75.8509 42.6985 75.8843 42.7319C75.9177 42.7653 75.7628 42.9604 75.5402 43.1655C75.2626 43.4213 74.7719 43.6156 73.9785 43.7844C73.3423 43.9197 72.7684 43.9975 72.7032 43.9571C72.638 43.9169 72.1195 43.1348 71.5508 42.2191C70.982 41.3035 69.3687 38.6924 67.9656 36.4166C66.5624 34.1408 64.899 31.4476 64.2692 30.4316C63.6392 29.4156 61.9962 26.7556 60.6181 24.5205C59.2399 22.2854 57.0381 18.7124 55.7251 16.5805L53.3381 12.7043V11.7481C53.3381 11.2221 53.4093 10.4393 53.4965 10.0086C53.5835 9.57793 53.7572 8.90362 53.8822 8.51024C54.0072 8.11685 54.1596 7.85085 54.2207 7.91913C54.2819 7.9874 54.9814 9.30676 55.7751 10.851ZM39.9246 25.3993C39.2612 25.7202 38.4118 26.2653 38.0369 26.6108C37.6621 26.9563 37.2607 27.4221 37.145 27.6457C37.0293 27.8694 36.9347 28.2469 36.9347 28.4846C36.9347 28.7223 37.0345 29.1994 37.1564 29.5449C37.2783 29.8905 37.3781 30.2302 37.3781 30.2999C37.3781 30.3697 36.9458 30.2698 36.4175 30.0781C35.7725 29.8439 35.4569 29.7872 35.4569 29.9051C35.4569 30.0017 35.6403 30.2565 35.8644 30.4712C36.0885 30.6859 36.6372 31.0688 37.0835 31.3223L37.8953 31.7829L36.7131 31.7001C36.0628 31.6546 35.3313 31.5793 35.0875 31.5327L34.6442 31.4482L35.2288 31.9793C35.5502 32.2714 36.274 32.7409 36.8372 33.0228L37.8611 33.535L36.9176 33.532C36.3987 33.5304 35.5087 33.4627 34.9397 33.3814C34.3708 33.3003 33.6892 33.1634 33.425 33.0774C32.9512 32.923 32.9447 32.9085 32.9447 31.9987C32.9447 31.4913 33.0436 30.7434 33.1643 30.3366C33.2852 29.9298 33.6483 29.1881 33.9713 28.6883C34.3477 28.106 34.8927 27.5335 35.4881 27.0948C35.9993 26.7181 36.75 26.2389 37.1564 26.0296C37.5628 25.8202 38.4938 25.4654 39.2253 25.2409C39.9568 25.0164 40.6847 24.8291 40.843 24.8245C41.0013 24.8199 40.5879 25.0785 39.9246 25.3993ZM32.1451 35.2623C32.2954 35.3721 32.6864 35.5373 33.014 35.6294C33.3417 35.7213 34.3745 35.8029 35.3092 35.8106C36.2439 35.8183 37.9729 35.7662 39.1514 35.695C40.3299 35.6238 41.2562 35.6067 41.2096 35.6569C41.1632 35.707 39.933 35.9439 38.4758 36.1831C37.0187 36.4224 35.1774 36.6974 34.3839 36.7945C33.5907 36.8914 32.3746 36.9409 31.6815 36.9046C30.7953 36.858 30.3518 36.7686 30.1862 36.6031C30.0245 36.4414 29.9821 36.2431 30.0508 35.9697C30.1058 35.7507 30.4966 35.2056 30.9196 34.7583L31.6886 33.9449L31.7802 34.5038C31.8306 34.811 31.9948 35.1524 32.1451 35.2623ZM34.9397 39.9727C35.244 40.1 35.7342 40.183 36.0291 40.1575L36.5653 40.1111L36.6123 40.7707C36.6476 41.2674 36.595 41.4773 36.3993 41.6205C36.2563 41.7249 35.7531 41.8105 35.2809 41.8105H34.4225V41.2379C34.4225 40.923 34.381 40.4575 34.3301 40.2034C34.2793 39.9494 34.2712 39.7416 34.3121 39.7416C34.3529 39.7416 34.6354 39.8457 34.9397 39.9727ZM82.652 41.0824C82.9093 41.2847 83.0414 41.5309 83.0414 41.8081C83.0414 42.0988 82.8959 42.35 82.5671 42.6267C82.3062 42.8463 81.608 43.2657 81.0154 43.5589C80.423 43.8521 79.9381 44.1732 79.9381 44.2725C79.9381 44.3718 79.9971 44.4896 80.0692 44.5341C80.1413 44.5787 80.823 44.2846 81.5839 43.8806C82.345 43.4767 83.1415 43.1449 83.354 43.1433C83.5665 43.1418 83.9157 43.2784 84.1298 43.4469C84.4276 43.6809 84.5192 43.8843 84.5192 44.3106C84.5192 44.6669 84.4198 44.958 84.2436 45.1175C84.092 45.2548 83.3473 45.6869 82.5888 46.0777C81.8303 46.4686 81.184 46.8654 81.1527 46.9594C81.1214 47.0535 81.1973 47.1305 81.3215 47.1305C81.4457 47.1305 82.0388 46.9065 82.6395 46.6328C83.2402 46.359 83.9794 46.0534 84.2819 45.9535C84.7199 45.8089 84.924 45.8098 85.2822 45.9583C85.6907 46.1274 85.7245 46.1923 85.6488 46.6588C85.6029 46.9415 85.4131 47.3359 85.2271 47.5353C85.0409 47.7346 84.2071 48.2312 83.3739 48.6387C82.5354 49.0491 81.8592 49.4716 81.8592 49.5853C81.8592 49.6982 81.9149 49.7905 81.9831 49.7905C82.0512 49.7905 82.766 49.4923 83.5717 49.1279C84.3774 48.7635 85.1783 48.4642 85.3516 48.4629C85.5361 48.4616 85.6969 48.5746 85.7388 48.7352C85.7783 48.8864 85.7232 49.2687 85.6162 49.585C85.5061 49.9104 85.1489 50.4045 84.7932 50.7234C84.4475 51.0333 83.563 51.6593 82.8273 52.1145C82.0917 52.5698 80.9578 53.1953 80.3075 53.5048C79.6573 53.8141 78.2515 54.302 77.1835 54.5889C76.1155 54.8759 75.1142 55.1105 74.9584 55.1105C74.753 55.1105 74.5353 54.8197 74.1663 54.0524C73.8864 53.4705 73.3453 52.5395 72.9637 51.9835C72.5822 51.4276 72.3196 50.9727 72.38 50.9727C72.4406 50.9727 72.8675 51.3089 73.3286 51.7199C73.7896 52.1309 74.4149 52.869 74.718 53.3599C75.2358 54.1989 75.2973 54.2482 75.7366 54.177C75.9938 54.1352 76.7163 53.8878 77.3422 53.6273C77.9682 53.3667 78.6613 53.0011 78.8825 52.8151C79.1182 52.6166 79.3891 52.1457 79.5367 51.6773C79.6754 51.2377 79.8287 50.5835 79.8778 50.2234C79.9337 49.8121 79.8749 49.2152 79.7195 48.6175C79.5836 48.0942 79.2041 47.0302 78.8763 46.253C78.5487 45.4758 78.1937 44.5228 78.0875 44.1354C77.9527 43.6433 77.9367 43.2779 78.0343 42.9246C78.1191 42.6175 78.4429 42.182 78.8578 41.8166C79.2341 41.4855 79.8471 41.1205 80.2202 41.0057C80.5933 40.8907 81.2056 40.792 81.5807 40.7864C82.0584 40.7792 82.3792 40.8678 82.652 41.0824ZM36.3628 43.6768C36.4372 43.7687 36.7005 43.8843 36.948 43.9338C37.3328 44.0108 37.3912 44.0816 37.3512 44.4231C37.3116 44.76 37.1794 44.8652 36.5047 45.0977C35.8481 45.3239 35.6715 45.3387 35.5169 45.1804C35.4135 45.0745 35.1889 44.63 35.018 44.1927C34.8471 43.7554 34.7263 43.3835 34.7495 43.3662C34.7729 43.3487 35.0912 43.2729 35.4569 43.1977C36.0065 43.0845 36.1311 43.0997 36.1749 43.2853C36.2038 43.4089 36.2885 43.585 36.3628 43.6768ZM37.8375 46.7241C37.7703 46.9071 37.5838 47.0764 37.423 47.1007C37.2621 47.1249 37.0457 47.0424 36.9418 46.9174C36.7831 46.7261 36.8085 46.668 37.1026 46.5502C37.2947 46.4733 37.5662 46.4061 37.7058 46.4009C37.9077 46.3935 37.9346 46.4598 37.8375 46.7241ZM36.4831 47.3318C36.4471 47.3656 35.952 47.3117 35.3831 47.2116L34.3486 47.03L34.9397 46.9226C35.2648 46.8636 35.6306 46.7974 35.7525 46.7757C35.8744 46.7538 36.1035 46.8561 36.2615 47.003C36.4196 47.1499 36.5193 47.2978 36.4831 47.3318ZM33.8414 48.1044C34.283 48.2335 35.1451 48.5882 35.7574 48.8925C36.3698 49.1969 37.3212 49.748 37.8718 50.1173L38.8728 50.7889L38.1642 50.8952C37.7747 50.9535 37.2721 51.0964 37.0475 51.2124C36.8229 51.3286 36.6392 51.4481 36.6392 51.478C36.6392 51.5078 37.2211 51.525 37.9322 51.5161C38.6435 51.5073 39.4666 51.5834 39.7616 51.6852C40.0565 51.7871 40.4159 52.001 40.5603 52.1606C40.818 52.4453 40.8083 52.4505 40.0138 52.4505C39.569 52.4505 38.8714 52.5497 38.4635 52.6707C38.0556 52.7919 37.4486 53.0891 37.1144 53.3311C36.7802 53.5732 36.4314 53.912 36.3393 54.0841C36.2473 54.2562 36.1979 54.4229 36.2297 54.4547C36.2613 54.4865 36.6491 54.3702 37.0914 54.1962C37.6958 53.9584 38.2253 53.8785 39.2253 53.8744C40.2059 53.8702 40.8451 53.9579 41.6584 54.208C42.2651 54.3945 43.156 54.7463 43.6381 54.9896C44.1201 55.233 45.2197 55.9623 46.0816 56.6105C46.9434 57.2586 47.6687 57.8452 47.6934 57.914C47.7181 57.983 47.4742 58.3882 47.1515 58.8146C46.8287 59.2409 46.2335 60.2279 45.8289 61.0077C45.4241 61.7876 44.9141 62.9243 44.6954 63.5339C44.4769 64.1434 44.1708 65.2929 44.0152 66.0882C43.8401 66.9839 43.7325 68.1615 43.7325 69.1821C43.7325 70.6705 43.7015 70.8629 43.4112 71.1719C43.2345 71.3599 42.9976 71.5139 42.8849 71.5139C42.7721 71.5139 42.088 71.3436 41.3647 71.1356C40.6413 70.9275 39.3654 70.4914 38.5291 70.1664C37.6928 69.8415 36.3769 69.2393 35.6047 68.828C34.8326 68.4169 33.7209 67.7489 33.1343 67.3437C32.5476 66.9385 31.5834 66.1934 30.9915 65.6882C30.3995 65.1828 29.6825 64.4601 29.3981 64.0823C29.1136 63.7044 28.8251 63.3932 28.757 63.3907C28.6889 63.3882 28.6803 63.6688 28.7378 64.0141C28.7954 64.3595 29.0639 65.5399 29.3347 66.6372C29.6054 67.7345 30.0255 69.2142 30.2682 69.9253C30.5108 70.6365 30.6781 71.2183 30.6398 71.2183C30.6017 71.2183 30.2444 71.0531 29.846 70.8512C29.2371 70.5427 29.0087 70.2957 28.4139 69.3031C28.0246 68.6536 27.6615 68.1705 27.6071 68.2295C27.5528 68.2885 27.589 68.8686 27.6875 69.5189C27.7862 70.1691 28.0166 70.9901 28.1996 71.3435C28.3824 71.6968 28.5068 72.011 28.4761 72.0417C28.4453 72.0725 27.9513 72.1412 27.3784 72.1945C26.3676 72.2884 26.3337 72.2808 26.2479 71.9386C26.1993 71.7446 26.0431 70.755 25.9007 69.7397C25.6993 68.3018 25.6411 66.8472 25.6375 63.1644C25.6349 60.2291 25.7083 57.7068 25.8314 56.5144C25.9405 55.4578 26.1169 54.0946 26.2235 53.485C26.33 52.8754 26.5554 52.0109 26.7245 51.5639C26.8934 51.1168 27.2836 50.4186 27.5919 50.0122C27.9002 49.6058 28.4826 49.0553 28.886 48.789C29.2896 48.5226 29.919 48.2114 30.2847 48.0973C30.6505 47.9833 31.4198 47.8854 31.9942 47.8798C32.5688 47.874 33.4 47.9751 33.8414 48.1044ZM51.8603 51.0737C53.0388 51.2812 54.3824 51.568 54.8459 51.7113C55.3094 51.8547 56.0089 52.207 56.4002 52.4941C56.7915 52.7814 57.2435 53.1638 57.4046 53.3441L57.6975 53.6719L57.1064 53.3732C56.7813 53.2091 55.9168 52.8625 55.1853 52.6032C54.4538 52.3438 53.3673 52.0372 52.7709 51.9216C52.1745 51.8062 51.2523 51.7116 50.7218 51.7116C49.8477 51.7116 49.6894 51.6618 49.0354 51.1818C48.6384 50.8904 48.3136 50.6203 48.3136 50.5817C48.3136 50.543 48.6294 50.5531 49.0156 50.604C49.4017 50.6549 50.6818 50.8663 51.8603 51.0737ZM70.534 53.0786C71.114 53.6679 71.7985 54.5157 72.055 54.9627C72.3114 55.4098 72.5607 55.9109 72.6091 56.0763C72.6754 56.304 72.5867 56.4419 72.2433 56.6448C71.9939 56.7921 71.7691 56.8896 71.7437 56.8612C71.7182 56.833 71.3469 56.0893 70.9185 55.2085C70.4279 54.2001 69.8687 53.3107 69.4083 52.8071C68.6873 52.0183 68.6829 52.0072 69.0783 52.0072C69.3805 52.0072 69.7389 52.271 70.534 53.0786ZM67.9507 53.2264L68.4853 53.5589L67.9697 53.6327C67.592 53.6868 67.4021 53.8153 67.2596 54.113C67.0962 54.4548 66.9727 54.5194 66.4822 54.5194C65.9005 54.5194 65.8992 54.5207 65.8992 55.1105V55.7016H64.7736C63.7718 55.7016 63.6562 55.73 63.7224 55.9602C63.7634 56.1024 63.8411 56.326 63.8953 56.4568C63.9728 56.6439 63.8735 56.7148 63.4317 56.7877C63.1227 56.8388 62.6868 56.8813 62.4634 56.8822C62.2399 56.8831 62.057 56.9294 62.057 56.9852C62.057 57.0409 62.2006 57.2394 62.3762 57.4262L62.6952 57.7659L62.1914 57.9681C61.9142 58.0792 61.5706 58.2113 61.4277 58.2617C61.2424 58.3271 61.1789 58.4849 61.2061 58.8131C61.243 59.2595 61.2074 59.2882 59.9881 59.7942C59.2972 60.0809 58.7064 60.3392 58.6751 60.3683C58.6437 60.3974 58.7296 60.5915 58.8659 60.7995C59.0021 61.0076 59.077 61.237 59.0324 61.3094C58.9876 61.3818 57.8401 62.126 56.4822 62.9631C54.8373 63.9773 53.2309 64.8212 51.6682 65.4921L49.3227 66.4987L48.1162 65.8594L46.9097 65.2202L46.8667 64.0007C46.827 62.8751 46.8658 62.6822 47.3709 61.4951C47.672 60.7877 47.995 60.0951 48.089 59.9559C48.2439 59.7262 48.3503 59.7636 49.2426 60.3623C49.7831 60.7249 50.3111 61.0216 50.4159 61.0216C50.5205 61.0216 51.1046 60.6699 51.7135 60.24C52.3225 59.8102 53.4859 59.0407 54.2986 58.53C55.1114 58.0192 56.6409 57.1756 57.6975 56.6551C58.7541 56.1348 60.9819 55.207 62.6481 54.5936C64.3143 53.98 66.01 53.3509 66.4164 53.1956C66.8228 53.0402 67.214 52.9088 67.2857 52.9035C67.3573 52.8981 67.6566 53.0434 67.9507 53.2264ZM75.5031 56.4775C75.5022 56.6604 75.4084 57.1171 75.2945 57.4926C75.1805 57.8679 74.9391 58.4664 74.758 58.8226C74.5769 59.1786 74.1662 59.8573 73.8455 60.3306C73.5247 60.804 72.8192 61.6611 72.2776 62.2353C71.7361 62.8095 70.5982 63.8361 69.7491 64.5164C68.9 65.197 67.6539 66.1204 66.9802 66.5688C66.3065 67.0171 65.6642 67.4188 65.5531 67.4615C65.405 67.5183 65.3277 67.3421 65.2638 66.8015C65.2157 66.396 64.9612 65.5473 64.6984 64.9159L64.2203 63.7676L65.6879 62.3803C66.4949 61.6172 68.107 60.171 69.2703 59.1664C70.4756 58.1256 71.7295 57.1772 72.1852 56.9616C72.6252 56.7534 73.3692 56.49 73.8386 56.3764C74.3079 56.2626 74.8748 56.164 75.0984 56.1572C75.4254 56.1473 75.5045 56.2098 75.5031 56.4775ZM44.2917 61.2943C44.0913 61.5324 43.6056 62.3499 43.2122 63.1108C42.8188 63.8718 42.2487 65.2543 41.9453 66.1831L41.3935 67.8717L41.2154 67.2175C41.1037 66.8073 41.0669 66.0535 41.1168 65.1964C41.1607 64.4446 41.1696 63.8294 41.1365 63.8294C41.1035 63.8294 40.9695 64.0789 40.8389 64.3836C40.7081 64.6885 40.4882 65.4999 40.35 66.1868L40.0988 67.4359L39.7902 66.7779C39.6204 66.4161 39.3676 65.6877 39.2281 65.1594C39.0886 64.6311 38.9407 64.0991 38.8993 63.9772C38.8521 63.8384 38.7446 63.9765 38.6116 64.3466C38.4947 64.6718 38.3985 65.4197 38.3976 66.0087L38.3961 67.0796L37.9978 66.8732C37.7788 66.7596 37.3492 66.4231 37.043 66.1252C36.7369 65.8274 36.2548 65.2397 35.9717 64.8194C35.6656 64.3648 35.4569 64.1618 35.4569 64.3183C35.4569 64.4629 35.5654 65.0131 35.698 65.5408C35.8304 66.0684 35.908 66.531 35.8703 66.5686C35.8325 66.6065 35.3417 66.4149 34.7795 66.1433C34.2174 65.8716 33.4401 65.5295 33.0523 65.383C32.6644 65.2366 32.3121 65.1517 32.2694 65.1943C32.2268 65.237 32.7025 65.6829 33.3269 66.185C33.9511 66.6872 34.9616 67.4352 35.5724 67.8474C36.1831 68.2595 37.4211 68.9486 38.3235 69.3785C39.2259 69.8084 40.2751 70.2628 40.655 70.3881C41.035 70.5136 41.7513 70.7098 42.2468 70.8243C42.7421 70.9387 43.1811 70.9779 43.2224 70.9112C43.2636 70.8446 43.2194 70.4812 43.1244 70.1035C43.0121 69.6575 42.9827 68.8129 43.0406 67.6946C43.0897 66.7473 43.2617 65.4633 43.4229 64.8411C43.5841 64.219 43.9489 63.0902 44.2333 62.3329C44.5178 61.5755 44.7293 60.9346 44.7033 60.9086C44.6773 60.8827 44.4921 61.0562 44.2917 61.2943ZM104.177 67.0805C104.321 67.0805 104.81 67.33 105.263 67.6347C105.716 67.9396 106.594 68.6876 107.214 69.2972C107.834 69.9068 108.451 70.605 108.585 70.8489C108.803 71.2457 108.829 72.1461 108.829 79.42V87.5478L108.394 88.4344C108.079 89.0752 107.485 89.7987 106.25 91.043C104.718 92.5857 104.456 92.7887 103.729 92.9932C103.283 93.1187 101.322 93.3976 99.3709 93.6127C97.4202 93.8279 95.5771 93.9711 95.2752 93.9309C94.9636 93.8895 94.2925 93.5674 93.7236 93.1863C93.1721 92.817 92.2773 92.1115 91.7352 91.6188C91.0813 91.0244 90.6691 90.5118 90.5107 90.0958C90.2991 89.5407 90.2766 88.5292 90.3142 81.2613L90.3564 73.0537L90.8706 72.2055C91.1534 71.7391 91.9006 70.801 92.5308 70.1211C93.1613 69.441 93.9749 68.6873 94.3391 68.4462C94.7044 68.2042 95.3841 67.9347 95.8559 67.8448C96.3262 67.7553 97.9079 67.5481 99.3709 67.3845C100.834 67.2209 102.264 67.0607 102.548 67.0285C102.833 66.9965 103.257 66.995 103.49 67.0253C103.724 67.0557 104.033 67.0805 104.177 67.0805ZM82.9714 70.0377C83.3757 70.3154 84.2479 71.0769 84.9095 71.7301C85.7935 72.6027 86.1559 73.0746 86.2757 73.5089C86.3653 73.834 86.4375 75.1972 86.436 76.5383C86.4346 77.8794 86.3749 79.2283 86.3033 79.5362C86.232 79.8438 85.9335 80.4423 85.6401 80.8662C85.3466 81.2898 83.4515 83.6649 81.4286 86.1439C79.4057 88.6229 77.8343 90.6708 77.9367 90.6949C78.0393 90.7189 79.9382 90.5329 82.1567 90.2814C84.3753 90.03 86.28 89.8586 86.3894 89.9006C86.5447 89.9603 86.5881 90.5079 86.5881 92.4111C86.5881 94.0671 86.5345 94.8785 86.4204 94.9489C86.3282 95.006 82.5544 95.4676 78.034 95.9751C73.5138 96.4824 69.7655 96.868 69.7045 96.8319C69.6434 96.796 69.5936 95.5825 69.5936 94.1353C69.5936 92.6882 69.661 91.1487 69.7435 90.7142C69.857 90.116 70.081 89.6836 70.6671 88.9325C71.0927 88.387 72.9687 86.1234 74.8361 83.9021C76.7034 81.6807 78.4489 79.5407 78.7152 79.1466C79.1673 78.477 79.1992 78.3474 79.1992 77.1812C79.1992 76.3668 79.123 75.7851 78.9801 75.5089C78.8404 75.2386 78.5983 75.0495 78.3119 74.9865C78.0649 74.9323 77.5973 74.9327 77.2729 74.9875C76.9059 75.0496 76.6234 75.1986 76.5252 75.3824C76.4383 75.5447 76.2033 76.451 76.0031 77.3965C75.8028 78.3418 75.5736 79.1558 75.4935 79.2053C75.4136 79.2548 74.1536 79.4179 72.6937 79.5681C71.2338 79.7182 70.0096 79.8113 69.9733 79.7751C69.9371 79.7388 70.0707 77.6867 70.2702 75.215C70.4698 72.7431 70.6637 70.69 70.7012 70.6526C70.7386 70.6151 72.9819 70.3321 75.6862 70.0235C78.3906 69.7151 80.9706 69.4785 81.4197 69.4979C82.0729 69.526 82.3832 69.6338 82.9714 70.0377ZM66.8407 73.2503C66.8893 74.449 66.9704 76.6103 67.0211 78.053C67.1045 80.4298 67.0903 80.6761 66.8692 80.6761C66.735 80.6761 65.6895 80.7793 64.5458 80.9055C63.4022 81.0317 62.4512 81.1147 62.4326 81.0902C62.4141 81.0657 62.2593 80.2922 62.0887 79.3715C61.9181 78.4509 61.6973 77.5997 61.5981 77.4803C61.4758 77.3328 61.2 77.2771 60.74 77.3071L60.062 77.3511L60.0237 84.7939L59.9853 92.2368L60.6517 92.1369L61.3181 92.0368V94.9147V97.7923L60.7639 97.8822C60.4592 97.9317 58.381 98.1696 56.1459 98.4111C53.9107 98.6524 51.7993 98.8914 51.4539 98.942L50.8258 99.0341V96.1529C50.8258 93.2898 50.8279 93.2711 51.1583 93.1826C51.3413 93.1336 51.6404 93.0926 51.8233 93.0915L52.1558 93.0895V85.6813V78.2732L51.4629 78.3513C51.0707 78.3956 50.694 78.5333 50.5949 78.6688C50.4987 78.8005 50.2695 79.6884 50.0856 80.6418C49.9019 81.5954 49.7106 82.4191 49.6606 82.4725C49.6107 82.5258 48.6112 82.6779 47.4397 82.8105C46.2682 82.9429 45.2679 82.999 45.2168 82.935C45.1657 82.8712 45.2264 80.6909 45.3519 78.09L45.5797 73.3611L55.5547 72.2341C61.041 71.6144 65.8049 71.0991 66.1411 71.0889L66.7525 71.0705L66.8407 73.2503ZM99.1899 72.3963C98.9277 72.4585 98.5425 72.6215 98.3335 72.7583C98.1247 72.8952 97.8749 73.1866 97.7786 73.4057C97.6561 73.6847 97.5881 75.6019 97.552 79.7894C97.5237 83.0812 97.5447 86.2562 97.5984 86.845C97.6605 87.5219 97.7916 88.0328 97.955 88.2347C98.1457 88.4701 98.4247 88.5713 99.0181 88.6205C99.5466 88.6644 100.011 88.6088 100.37 88.459C100.676 88.3309 101.047 88.0158 101.214 87.7414C101.502 87.2695 101.513 87.0121 101.513 80.4395C101.514 75.7362 101.462 73.4778 101.346 73.1456C101.232 72.8193 101.02 72.598 100.686 72.4585C100.415 72.3454 100.075 72.2596 99.9298 72.2678C99.785 72.2763 99.452 72.334 99.1899 72.3963ZM33.8314 77.6467V80.5283H33.4741C33.2775 80.5283 33.0115 80.5687 32.883 80.618C32.6741 80.6981 32.6492 81.4827 32.6492 87.9534V95.199L33.9174 95.0961C34.6149 95.0395 35.3445 94.9209 35.5387 94.8323C35.7328 94.7438 35.9585 94.4651 36.0402 94.213C36.1219 93.9608 36.2941 93.0895 36.423 92.2767C36.5518 91.4639 36.7032 90.7568 36.759 90.7052C36.815 90.6536 38.1514 90.4701 39.7288 90.2973C41.3063 90.1247 42.6285 90.0151 42.6672 90.0536C42.7059 90.0924 42.6237 92.2709 42.4848 94.8949C42.3459 97.5188 42.2151 99.7321 42.1943 99.8133C42.1733 99.8957 38.0144 100.422 32.8057 101.003C26.4273 101.713 23.4354 101.994 23.3935 101.885C23.3598 101.797 23.3504 100.497 23.3727 98.9958L23.413 96.2667L24.0042 96.1928L24.5953 96.1189L24.6335 88.8408L24.672 81.5628H24.0055H23.3392V78.7504C23.3392 76.6329 23.3848 75.9222 23.5239 75.8744C23.6256 75.8393 25.7036 75.5846 28.1419 75.3081C30.5803 75.0316 32.858 74.7962 33.2033 74.7851L33.8314 74.765V77.6467ZM20.8512 79.7274C20.9864 81.6715 21.1027 83.7444 21.1098 84.3336C21.1167 84.9228 21.0725 85.4044 21.0117 85.4038C20.9508 85.4031 19.6525 85.5427 18.1269 85.714C16.6012 85.8853 15.2659 85.992 15.1595 85.951C15.0442 85.9069 14.8991 85.405 14.801 84.7107C14.7103 84.0695 14.5677 83.3648 14.484 83.1449C14.3439 82.7765 14.2675 82.745 13.5109 82.745C13.0591 82.745 12.4757 82.8356 12.2141 82.9463C11.9526 83.057 11.6056 83.2967 11.443 83.4789C11.1596 83.7966 11.1457 84.0527 11.1029 89.7429C11.0708 94.0098 11.1079 95.8536 11.2347 96.31C11.3318 96.6589 11.5494 97.0412 11.7185 97.1597C11.9096 97.2934 12.3817 97.375 12.965 97.375C13.7951 97.375 13.9519 97.3273 14.3152 96.9637C14.6309 96.6482 14.7667 96.3131 14.8991 95.5229C14.994 94.9566 15.141 94.1443 15.2259 93.7175C15.3382 93.1524 15.4475 92.9411 15.6283 92.9396C15.7647 92.9384 17.0069 92.8065 18.3886 92.6461C19.7703 92.4858 21.0504 92.3538 21.2333 92.3526C21.5314 92.3507 21.5658 92.4227 21.5658 93.047C21.5658 93.4301 21.4263 95.6411 21.2559 97.9607C21.0854 100.28 20.9026 102.218 20.8495 102.268C20.7965 102.318 18.1727 102.642 15.0188 102.988C11.8651 103.334 8.95889 103.587 8.56078 103.548C8.09365 103.503 7.54731 103.303 7.02063 102.984C6.57183 102.712 5.67689 102.004 5.03184 101.41C4.31482 100.751 3.72489 100.059 3.51327 99.6291L3.16747 98.9267V91.3161C3.16747 85.4176 3.21166 83.5535 3.36417 83.0295C3.47234 82.6575 3.8808 81.926 4.27196 81.4039C4.66299 80.8817 5.60876 79.8491 6.37366 79.1092C7.56948 77.9524 7.87021 77.7386 8.51984 77.5827C8.93539 77.4831 11.7581 77.1157 14.7926 76.7662C17.827 76.4169 20.3762 76.1448 20.4575 76.1618C20.5426 76.1794 20.7096 77.6923 20.8512 79.7274ZM92.6194 98.3394C92.6563 98.915 92.6072 99.105 92.3739 99.2884C92.2134 99.4146 91.7503 100.283 91.3448 101.217C90.9393 102.152 90.5688 103.135 90.5215 103.403C90.4592 103.754 90.496 103.912 90.6545 103.973C90.8098 104.032 90.8737 104.283 90.8737 104.835V105.613L90.3195 105.699C90.0148 105.747 89.3164 105.831 88.7678 105.887L87.7703 105.987V105.154C87.7703 104.512 87.8212 104.321 87.992 104.321C88.1401 104.321 88.2137 104.172 88.2137 103.875C88.2137 103.625 87.8232 102.651 87.3258 101.658C86.8376 100.684 86.3721 99.8872 86.2914 99.8872C86.2108 99.8872 86.1448 99.5215 86.1448 99.0745C86.1448 98.4037 86.19 98.2595 86.4034 98.2493C86.5455 98.2423 87.045 98.1888 87.5133 98.1305L88.3645 98.0241L88.5849 98.7709C88.7059 99.1817 88.9113 99.9067 89.0414 100.382C89.1713 100.858 89.3267 101.19 89.3866 101.121C89.4466 101.052 89.6733 100.302 89.8905 99.4548C90.1076 98.6075 90.31 97.8894 90.3402 97.8591C90.3705 97.829 90.8187 97.7498 91.3364 97.6833C91.854 97.6168 92.3441 97.5752 92.4253 97.5911C92.5066 97.6069 92.5939 97.9437 92.6194 98.3394ZM82.1548 99.502C82.1548 100.07 82.0918 100.323 81.9359 100.383C81.7544 100.453 81.7209 100.849 81.7401 102.704C81.7577 104.408 81.81 104.959 81.959 105.016C82.0871 105.065 82.1548 105.359 82.1548 105.867V106.643L81.2464 106.738C80.7469 106.79 80.1816 106.833 79.9903 106.833H79.6425V103.853C79.6425 102.214 79.6063 100.909 79.562 100.953C79.5177 100.997 79.1614 102.373 78.7701 104.011C78.3788 105.648 78.0327 107.014 78.0009 107.045C77.9691 107.076 77.5841 107.124 77.1454 107.152C76.4043 107.199 76.3394 107.176 76.2308 106.833C76.1665 106.63 75.8339 105.348 75.4916 103.986C75.1494 102.623 74.8383 101.539 74.8006 101.577C74.7628 101.614 74.7428 102.942 74.7563 104.527L74.7806 107.408L74.293 107.482C74.0248 107.523 73.4563 107.596 73.0295 107.643L72.2536 107.73V106.912C72.2536 106.462 72.3201 106.094 72.4014 106.094C72.4936 106.094 72.5492 105.232 72.5492 103.803C72.5492 102.302 72.4957 101.513 72.394 101.513C72.2986 101.513 72.2559 101.186 72.2832 100.663L72.3275 99.8133L73.7314 99.6413C74.5036 99.5466 75.4049 99.4636 75.7341 99.4566L76.3331 99.4439L76.6737 101.567C76.8611 102.734 77.0649 103.771 77.1266 103.871C77.2026 103.994 77.265 103.94 77.3187 103.707C77.3625 103.516 77.5482 102.462 77.7313 101.365C77.9144 100.268 78.1049 99.3221 78.1544 99.2636C78.2041 99.205 78.9749 99.064 79.8672 98.95C80.7596 98.8361 81.6395 98.7344 81.8223 98.7239C82.1283 98.7065 82.1548 98.7684 82.1548 99.502ZM67.875 100.663C67.9239 100.846 67.965 101.411 67.966 101.919C67.9679 102.779 67.945 102.843 67.6356 102.844C67.4528 102.845 67.0538 102.887 66.7489 102.938C66.2729 103.016 66.1945 102.99 66.1925 102.751C66.1912 102.598 66.1345 102.385 66.0663 102.278C65.9794 102.141 65.781 102.113 65.4035 102.184C64.8686 102.284 64.8647 102.29 64.8647 103.027V103.77L65.8253 103.693L66.7859 103.616V104.338C66.7859 105.026 66.7671 105.06 66.3795 105.061C66.1559 105.062 65.7238 105.104 65.4189 105.154L64.8647 105.246V106.031C64.8647 106.462 64.9163 106.847 64.9793 106.886C65.0422 106.925 65.3211 106.91 65.5991 106.853C66.006 106.77 66.1278 106.659 66.2252 106.284C66.2917 106.027 66.4616 105.784 66.6029 105.743C66.7442 105.703 67.1569 105.649 67.5202 105.623L68.1804 105.577L68.1346 106.833C68.1094 107.524 68.0641 108.114 68.034 108.145C68.0038 108.176 66.8629 108.324 65.4984 108.474C64.1338 108.624 62.8346 108.748 62.6111 108.75C62.2229 108.754 62.2047 108.722 62.2047 108.033C62.2047 107.573 62.2848 107.246 62.4264 107.128C62.6046 106.98 62.6481 106.527 62.6481 104.815C62.6481 103.059 62.6092 102.671 62.4264 102.601C62.2673 102.54 62.2047 102.291 62.2047 101.719C62.2047 101.184 62.2655 100.919 62.3895 100.913C62.4911 100.909 63.5717 100.784 64.7909 100.636C66.01 100.488 67.1826 100.358 67.3966 100.348C67.6835 100.335 67.8092 100.418 67.875 100.663ZM57.2057 102.148L57.8453 102.636L57.8858 105.191C57.9236 107.576 57.9053 107.781 57.6131 108.254C57.441 108.532 57.0848 108.924 56.8218 109.125C56.4061 109.442 56.0304 109.525 53.9511 109.759C52.6352 109.907 51.5268 109.997 51.4879 109.958C51.4489 109.919 51.417 109.563 51.417 109.168C51.417 108.665 51.4836 108.423 51.6386 108.364C51.8223 108.293 51.8603 107.89 51.8603 106.004C51.8603 104.15 51.822 103.729 51.6528 103.729C51.5028 103.729 51.4437 103.523 51.4396 102.983C51.4357 102.497 51.5018 102.21 51.6286 102.161C51.7356 102.12 52.5464 101.999 53.4304 101.892C54.3143 101.784 55.3815 101.689 55.8018 101.679C56.4538 101.663 56.6603 101.732 57.2057 102.148ZM46.007 102.954C46.0497 103.096 46.2895 104.276 46.5398 105.577C46.7902 106.877 47.0309 108.124 47.0748 108.347C47.1185 108.57 47.2532 108.807 47.3738 108.875C47.5323 108.964 47.5804 109.199 47.547 109.725L47.5008 110.453L46.3539 110.587C45.7231 110.661 45.1667 110.681 45.1175 110.631C45.0681 110.582 44.9936 110.238 44.9517 109.866C44.9099 109.495 44.8247 109.159 44.7627 109.121C44.7006 109.082 44.3448 109.093 43.9719 109.144L43.294 109.237L43.2012 109.937C43.1501 110.322 43.0654 110.707 43.0131 110.791C42.9608 110.876 42.4238 111.014 41.82 111.097C41.216 111.181 40.6677 111.216 40.6017 111.175C40.5355 111.134 40.4814 110.826 40.4814 110.491C40.4814 110.105 40.582 109.77 40.7561 109.576C40.9524 109.358 41.1918 108.396 41.5948 106.205C41.9083 104.5 42.2293 103.134 42.3175 103.129C42.4049 103.123 43.2079 103.032 44.102 102.925C44.996 102.818 45.7729 102.723 45.8284 102.713C45.8839 102.703 45.9642 102.811 46.007 102.954ZM54.2247 105.577C54.2247 106.755 54.208 107.769 54.1878 107.83C54.1676 107.891 54.3504 107.961 54.5942 107.985C54.838 108.009 55.1671 107.933 55.3255 107.817C55.5675 107.64 55.6233 107.38 55.6755 106.19C55.7095 105.41 55.6922 104.471 55.6371 104.103L55.5366 103.434H54.8807H54.2247V105.577ZM36.4784 105.835C36.4901 106.468 36.4586 106.537 36.1589 106.539C35.9759 106.54 35.5771 106.582 35.2722 106.632C34.7823 106.713 34.7181 106.689 34.7181 106.421C34.7181 106.254 34.6777 106.013 34.6284 105.884C34.579 105.756 34.3842 105.651 34.1955 105.651C34.0069 105.651 33.748 105.755 33.6202 105.883C33.4333 106.07 33.3881 106.485 33.3881 108.015C33.3881 109.545 33.4333 109.96 33.6202 110.147C33.748 110.275 33.8766 110.379 33.9062 110.379C33.9357 110.379 34.1212 110.318 34.3183 110.243C34.5883 110.141 34.7003 109.958 34.773 109.504C34.8522 109.008 34.9278 108.901 35.2001 108.9C35.382 108.899 35.7871 108.856 36.1004 108.804L36.6701 108.71L36.5631 110.173C36.5042 110.977 36.4474 111.646 36.4369 111.659C36.4262 111.672 35.5894 111.784 34.5774 111.907C33.2614 112.067 32.6509 112.087 32.4346 111.977C32.268 111.891 31.9159 111.617 31.6517 111.367L31.1714 110.913V108.296V105.679L31.816 104.967L32.4606 104.255L34.3652 104.022L36.2697 103.789L36.3676 104.461C36.4215 104.831 36.4713 105.449 36.4784 105.835ZM43.9874 104.764C43.9393 104.886 43.8062 105.568 43.6916 106.279L43.4832 107.572H44.0529H44.6227L44.5335 107.018C44.4846 106.713 44.3613 106.031 44.2596 105.503C44.158 104.974 44.0355 104.642 43.9874 104.764ZM26.0677 108.089C26.471 110.215 26.7005 111.118 26.8379 111.118C26.9763 111.118 27.0336 111.353 27.0336 111.92V112.723L26.1839 112.816C25.7166 112.868 25.1593 112.943 24.9457 112.983C24.5734 113.052 24.5518 113.019 24.4284 112.2L24.2997 111.345L23.6347 111.391C23.269 111.417 22.9181 111.487 22.8549 111.548C22.7918 111.609 22.6993 112.004 22.6492 112.427C22.5991 112.85 22.5177 113.219 22.4683 113.247C22.4189 113.276 21.8632 113.346 21.2333 113.404L20.088 113.508V112.695C20.088 112.176 20.1548 111.86 20.2728 111.821C20.386 111.783 20.6883 110.535 21.0542 108.594L21.6509 105.429L22.9753 105.264C23.7037 105.173 24.5682 105.09 24.8964 105.079L25.4932 105.059L26.0677 108.089ZM23.4541 107.128C23.4037 107.332 23.2814 108.015 23.1822 108.647C23.0831 109.279 23.0398 109.834 23.086 109.88C23.1324 109.926 23.3798 109.918 23.636 109.862C24.0971 109.761 24.1008 109.752 24.0055 109.059C23.9524 108.674 23.8274 107.999 23.7275 107.559C23.5749 106.887 23.5311 106.818 23.4541 107.128Z" fill="#30BEC2" stroke="#374550" stroke-width="20" mask="url(#path-1-inside-1)"/>
</svg>
