<svg width="80" height="107" viewBox="0 0 80 107" fill="none" xmlns="http://www.w3.org/2000/svg">
<path fill-rule="evenodd" clip-rule="evenodd" d="M38.0363 2.59025C37.0494 4.01412 35.0447 6.14185 33.5812 7.31765C32.1183 8.49345 29.4703 10.2084 27.6968 11.1287C25.924 12.0484 22.8235 13.2397 20.8081 13.7761C18.7919 14.3126 15.7378 14.7556 14.0202 14.7597C12.3032 14.7644 8.91227 14.1546 6.48605 13.4051C4.05916 12.6555 1.89177 11.7479 1.66924 11.3882C1.4474 11.0286 0.980842 10.7341 0.632606 10.7341C0.245379 10.7341 0 24.6851 0 46.7274C0 80.7846 0.0685713 82.8545 1.27933 85.2149C1.98252 86.5863 3.26924 88.3718 4.13849 89.1826C5.00706 89.9933 7.3963 91.4246 9.44672 92.3638C11.4978 93.3023 16.3018 94.6972 20.123 95.4636C23.9872 96.2381 28.7462 97.709 30.8464 98.7786C32.923 99.8354 35.8198 101.939 37.2834 103.453L39.9449 106.205L42.9976 103.243C44.677 101.614 47.596 99.5113 49.485 98.5695C51.3741 97.6283 56.0484 96.2307 59.8723 95.4643C63.6961 94.6979 68.5022 93.3023 70.5533 92.3638C72.6037 91.4246 74.9929 89.9933 75.8615 89.1826C76.7308 88.3718 78.0175 86.5863 78.7207 85.2149C79.9314 82.8545 80 80.7846 80 46.7274C80 24.6851 79.7546 10.7341 79.3674 10.7341C79.0192 10.7341 78.5526 11.0286 78.3308 11.3882C78.1082 11.7479 75.9408 12.6555 73.514 13.4051C71.0877 14.1546 67.6968 14.7644 65.9798 14.7597C64.2622 14.7556 61.2706 14.3294 59.3318 13.8131C57.3929 13.2968 54.4652 12.2252 52.8255 11.4319C51.1859 10.638 48.5755 8.98421 47.0232 7.75597C45.4716 6.52841 43.2188 4.28101 42.0168 2.76168L39.8313 0L38.0363 2.59025ZM48.8383 13.2652C49.2619 13.5368 49.9724 15.1133 50.4175 16.7677C50.8948 18.5446 51.0427 21.1536 50.7785 23.1442C50.5331 24.997 49.5469 27.9557 48.5869 29.719C47.6269 31.4824 45.7963 33.7224 44.5183 34.6972C43.2397 35.672 40.7933 36.9903 39.0803 37.6262C37.3674 38.2622 34.9829 38.9688 33.7815 39.1953C32.1923 39.4958 31.5966 39.3607 31.5966 38.7012C31.5966 38.2024 32.039 36.5392 32.5802 35.0064C33.1213 33.473 34.0706 31.1496 34.6904 29.8434C35.3936 28.3624 36.162 27.6007 36.7321 27.8199C37.2356 28.0128 37.6471 27.8884 37.6471 27.5436C37.6471 27.198 37.0622 26.603 36.3469 26.2199C35.6316 25.8373 34.4968 25.5288 33.8259 25.5341C32.8713 25.5422 32.8067 25.6726 33.5301 26.1304C34.3086 26.6239 34.2857 27.1805 33.3855 29.6498C32.7973 31.2632 31.9745 33.9315 31.557 35.5792C30.8914 38.2044 30.7086 38.4168 30.0793 37.2921C29.684 36.5856 29.3418 33.8669 29.319 31.2504C29.2847 27.3701 29.6182 25.7957 31.1254 22.714C32.1862 20.5466 34.0397 18.123 35.4736 17.0293C36.8484 15.9812 39.4877 14.599 41.3392 13.959C43.1913 13.319 45.4622 12.7893 46.3866 12.7832C47.3109 12.7765 48.4141 12.9936 48.8383 13.2652ZM45.4501 14.714C44.3805 15.4192 43.0945 15.8387 42.5929 15.6464C42.0914 15.4535 41.6807 15.596 41.6807 15.9617C41.6807 16.3281 42.2097 16.8148 42.8571 17.0427C43.5045 17.2713 44.4497 17.6464 44.958 17.8777C45.5556 18.1486 45.764 17.9704 45.5476 17.3728C45.364 16.8646 45.8326 15.7674 46.5896 14.9358C47.3459 14.1042 47.8373 13.4252 47.68 13.4279C47.5234 13.4299 46.5197 14.0087 45.4501 14.714ZM11.7264 20.833L13.7815 20.8477L12.1728 22.0847C10.9123 23.0541 10.6602 23.7056 11.0091 25.0951C11.2538 26.0706 11.1832 26.8686 10.8511 26.8686C10.5197 26.8686 9.88168 26.4262 9.4326 25.8851C8.71933 25.0259 8.39731 25.0454 6.88672 26.035L5.15698 27.1678L5.62689 25.2962C5.99798 23.8185 5.77345 23.155 4.56134 22.1439L3.02521 20.8632L5.13748 20.8404C6.8605 20.8222 7.34319 20.478 7.76 18.9694L8.2716 17.1207L8.97143 18.9694C9.52202 20.4242 10.1089 20.8215 11.7264 20.833ZM25.3835 20.8182H27.1254L25.7358 22.3308C24.685 23.4743 24.4874 24.2125 24.9244 25.356C25.2424 26.1876 25.3573 26.8686 25.1792 26.8686C25.001 26.8686 24.2548 26.4935 23.52 26.0343C22.4571 25.3708 21.9126 25.3708 20.8497 26.0343C20.115 26.4935 19.3479 26.8686 19.1449 26.8686C18.9425 26.8686 19.1153 26.2353 19.5294 25.4609C20.1533 24.2958 20.0208 23.7735 18.7637 22.4356L17.2444 20.8182H19.0588C20.4121 20.8182 21.0608 20.3476 21.6094 18.9694L22.3449 17.1207L22.9936 18.9694C23.475 20.3435 24.0887 20.8182 25.3835 20.8182ZM38.9916 17.92C38.9916 18.2239 39.9166 18.8827 41.0467 19.3829C42.1775 19.883 43.2437 20.1513 43.4165 19.9792C43.5886 19.8064 43.3445 19.3567 42.8733 18.9795C42.402 18.6024 41.3358 18.0847 40.5042 17.8299C39.6726 17.5751 38.9916 17.6155 38.9916 17.92ZM58.4874 19.1375C58.9533 20.363 59.6316 20.8242 60.9916 20.8404L62.8571 20.8632L61.321 22.1439C60.1365 23.1314 59.8877 23.832 60.2333 25.2074C60.6555 26.8894 60.5997 26.9399 59.2477 26.0955C58.0975 25.3768 57.5516 25.3654 56.48 26.0343C55.7452 26.4935 54.9963 26.8686 54.8155 26.8686C54.6346 26.8686 54.7684 26.1278 55.1133 25.2222C55.641 23.8326 55.4555 23.3641 53.92 22.2185L52.1008 20.8605L54.2729 20.8397C56.0208 20.8222 56.5271 20.4901 56.8666 19.1375C57.0985 18.2131 57.4145 17.4568 57.5684 17.4568C57.7224 17.4568 58.1358 18.2131 58.4874 19.1375ZM74.9197 20.8404L76.9748 20.8632L75.3889 22.1842C74.154 23.2128 73.9025 23.9012 74.2528 25.2955C74.6891 27.0353 74.6582 27.0568 73.1556 26.0592C71.7728 25.1409 71.4454 25.1402 70.0518 26.0531C68.5385 27.0447 68.5069 27.0232 68.9418 25.2894C69.2901 23.9025 69.0373 23.2108 67.8044 22.1842L66.2185 20.8632L68.3308 20.8404C70.0538 20.8222 70.5365 20.478 70.9533 18.9694L71.4649 17.1207L72.1647 18.9694C72.7146 20.4215 73.3055 20.8229 74.9197 20.8404ZM38.3193 21.4904C39.6134 22.199 40.8995 22.7913 41.1765 22.8067C41.4534 22.8222 41.6807 22.5809 41.6807 22.2709C41.6807 21.9604 40.9103 21.3553 39.9684 20.9264C39.0266 20.4968 37.7412 20.1587 37.1113 20.1741C36.4255 20.1909 36.9096 20.7187 38.3193 21.4904ZM34.6588 22.6857C34.4316 22.913 35.3654 23.6437 36.7334 24.3086C38.1015 24.9741 39.3506 25.3889 39.5099 25.2303C39.6686 25.0709 39.6175 24.6481 39.3963 24.2904C39.1751 23.9328 38.1116 23.3318 37.0333 22.956C35.955 22.5802 34.8861 22.4585 34.6588 22.6857ZM11.7082 33.5913H13.7445L12.1835 34.6851C10.9358 35.5583 10.7032 36.1815 11.0239 37.7862C11.4198 39.7647 11.4024 39.7789 9.83529 38.7523C8.39731 37.8098 8.10017 37.8111 6.73815 38.7651C5.2605 39.8004 5.24034 39.7815 5.68 37.7795C6.04437 36.1231 5.84 35.5368 4.59563 34.6649L3.06219 33.5913H5.15563C6.86723 33.5913 7.34252 33.2545 7.76 31.7425L8.2716 29.8938L8.97143 31.7425C9.52269 33.1987 10.1042 33.5913 11.7082 33.5913ZM25.434 33.6135C27.2215 33.6357 27.2229 33.6397 25.8366 34.7994C24.7462 35.711 24.5546 36.3698 24.9506 37.8494C25.4548 39.7345 25.4534 39.7358 23.7634 38.6279C22.2205 37.6175 21.9677 37.6128 20.8988 38.5809C20.2534 39.1644 19.5308 39.6417 19.2914 39.6417C19.0521 39.6417 19.1677 38.8236 19.5482 37.8232C20.1412 36.2636 20.0188 35.834 18.6911 34.8128L17.1429 33.6209L19.0084 33.6061C20.4094 33.5953 21.0568 33.1315 21.6094 31.7425L22.3449 29.8938L22.9936 31.7425C23.4776 33.1247 24.0941 33.5967 25.434 33.6135ZM58.4874 31.9106C58.9546 33.1395 59.6282 33.5953 60.9916 33.6061L62.8571 33.6209L61.3089 34.8128C59.9812 35.834 59.8588 36.2636 60.4518 37.8232C60.8323 38.8236 60.9479 39.6417 60.7086 39.6417C60.4692 39.6417 59.7466 39.1644 59.1012 38.5809C58.0329 37.6141 57.7842 37.6141 56.3079 38.5815C54.7119 39.6269 54.6911 39.6128 54.9701 37.7089C55.1845 36.2508 54.8706 35.5052 53.6961 34.6831L52.1378 33.5913H54.2911C56.0276 33.5913 56.5264 33.2659 56.8666 31.9106C57.0985 30.9862 57.4145 30.2299 57.5684 30.2299C57.7224 30.2299 58.1358 30.9862 58.4874 31.9106ZM74.9015 33.5913H76.9378L75.4044 34.6649C74.16 35.5368 73.9556 36.1231 74.32 37.7795C74.763 39.7984 74.7509 39.8084 73.2161 38.7335C71.8017 37.7426 71.5213 37.7399 70.0511 38.7032C68.4545 39.7493 68.443 39.7399 68.88 37.7493C69.2363 36.1271 69.0259 35.5321 67.7889 34.6649L66.2555 33.5913H68.3489C70.0605 33.5913 70.5358 33.2545 70.9533 31.7425L71.4649 29.8938L72.1647 31.7425C72.716 33.1987 73.2975 33.5913 74.9015 33.5913ZM75.2941 63.1194V82.5641L73.5287 84.6616C72.558 85.8152 70.5681 87.3695 69.1072 88.115C67.6457 88.8599 63.524 90.0902 59.9482 90.8478C56.3718 91.6055 51.8467 92.8229 49.8931 93.5537C47.9388 94.2838 44.9869 95.9147 43.3324 97.1779C41.678 98.4404 40.1782 99.4737 40 99.4737C39.8218 99.4737 38.322 98.4404 36.6676 97.1779C35.0131 95.9147 31.9267 94.2334 29.8091 93.4407C27.6908 92.6488 23.1913 91.4434 19.8091 90.7631C16.4269 90.0828 12.439 88.9036 10.9479 88.1426C9.45681 87.3823 7.44202 85.8152 6.47126 84.6616L4.70588 82.5641V63.1194V43.6753H40H75.2941V63.1194ZM8.06723 49.3661C8.06723 51.0071 8.46454 51.9079 9.41176 52.4148C10.6824 53.0945 10.7563 53.8226 10.7563 65.6108C10.7563 77.6303 10.7059 78.1002 9.37546 78.4478C8.29849 78.7295 8.03966 79.2606 8.19899 80.8659C8.37983 82.6891 8.74756 83.0105 11.4286 83.6895C13.0924 84.111 15.2854 84.6643 16.3025 84.9191C18.0471 85.3554 18.1513 85.2532 18.1513 83.0979C18.1513 81.8421 17.6975 80.4384 17.1429 79.9779C16.3503 79.3197 16.1466 77.5402 16.1909 71.6606L16.2474 64.1795L20.037 75.4259C23.5523 85.8575 23.9691 86.7221 25.795 87.3587C26.878 87.7365 28.0208 88.0451 28.3355 88.0451C28.6501 88.0451 28.9076 80.0606 28.9076 70.3019C28.9076 55.1503 29.0548 52.5022 29.916 52.1715C30.5486 51.9288 30.9244 50.9009 30.9244 49.4105V47.0367H26.2185H21.5126V49.4105C21.5126 50.9009 21.8884 51.9288 22.521 52.1715C23.3513 52.4901 23.5173 54.117 23.4608 61.3943L23.3929 70.23L19.5953 58.6441L15.7983 47.0582L11.9328 47.0474L8.06723 47.0367V49.3661ZM33.6134 49.391C33.6134 50.8989 33.9866 51.9281 34.6218 52.1715C35.479 52.5009 35.6303 54.96 35.6303 68.5876C35.6303 82.5076 35.4904 84.6952 34.5667 85.2122C33.8918 85.59 33.5845 86.4895 33.7264 87.6734C33.9193 89.2881 34.5277 89.7567 38.2333 91.1456C40.5889 92.0283 42.7825 92.751 43.1072 92.751C43.4319 92.751 43.6975 91.9012 43.6975 90.8626C43.6975 89.8239 43.2531 88.3873 42.7106 87.6693C41.961 86.6784 41.7183 84.2226 41.7022 77.4569L41.6807 68.5493H43.6255C44.7341 68.5493 45.7371 68.9829 45.9576 69.5577C46.1701 70.1123 46.9587 70.5661 47.7103 70.5661C48.9526 70.5661 49.0756 70.1419 49.0756 65.8602C49.0756 61.6915 48.9304 61.1543 47.803 61.1543C47.1032 61.1543 46.3563 61.6081 46.1432 62.1627C45.9173 62.7523 44.9096 63.1711 43.7183 63.1711H41.6807V57.793V52.4148H44.0686C46.1176 52.4148 46.5566 52.7012 47.1597 54.4316C47.7264 56.0572 48.2467 56.4484 49.8447 56.4484H51.8259L51.6276 51.9106L51.4286 47.3728L42.521 47.1853L33.6134 46.9977V49.391ZM54.2299 47.4851C53.9832 47.7311 53.7815 48.7174 53.7815 49.676C53.7815 50.6911 54.3429 51.7701 55.1261 52.2589C56.4007 53.0548 56.4706 53.8266 56.4706 67.1059C56.4706 80.2602 56.3886 81.188 55.1261 82.3308C54.3657 83.0192 53.7815 84.4014 53.7815 85.5133C53.7815 87.3291 53.9294 87.4475 55.7143 87.0549C56.7778 86.8216 60.7859 85.7876 64.6219 84.7577L71.5966 82.8848L71.7909 77.0616L71.9852 71.2384H69.9906C68.0773 71.2384 67.9771 71.389 67.5341 74.9359C67.28 76.9695 66.7287 78.6374 66.3092 78.6428C65.8897 78.6475 64.8659 78.8344 64.0336 79.0569L62.521 79.4622V66.0108C62.521 54.6737 62.6797 52.4975 63.5294 52.1715C64.162 51.9288 64.5378 50.9009 64.5378 49.4105V47.0367H59.6081C56.8961 47.0367 54.476 47.2384 54.2299 47.4851Z" fill="#1C8CCA"/>
</svg>
