<svg width="169" height="35" viewBox="0 0 169 35" fill="none" xmlns="http://www.w3.org/2000/svg">
<path fill-rule="evenodd" clip-rule="evenodd" d="M0 11.2712V22.5424H2.02568H4.05137V11.2712V0H2.02568H0V11.2712ZM4.63014 11.2712C4.63014 20.8944 4.75689 22.5424 5.49829 22.5424C6.23969 22.5424 6.36644 20.8944 6.36644 11.2712C6.36644 1.64797 6.23969 0 5.49829 0C4.75689 0 4.63014 1.64797 4.63014 11.2712ZM6.94521 11.2712C6.94521 20.8944 7.07196 22.5424 7.81336 22.5424C8.55476 22.5424 8.68151 20.8944 8.68151 11.2712C8.68151 1.64797 8.55476 0 7.81336 0C7.07196 0 6.94521 1.64797 6.94521 11.2712ZM9.26027 11.2712V22.5424H10.9966H12.7329V11.2712V0H10.9966H9.26027V11.2712ZM15.6267 11.2712C15.6267 20.8944 15.7535 22.5424 16.4949 22.5424C17.2363 22.5424 17.363 20.8944 17.363 11.2712C17.363 1.64797 17.2363 0 16.4949 0C15.7535 0 15.6267 1.64797 15.6267 11.2712ZM17.9418 11.2712V22.5424H19.9675H21.9932V11.2712V0H19.9675H17.9418V11.2712ZM22.5719 11.2712C22.5719 20.8944 22.6987 22.5424 23.4401 22.5424C24.1815 22.5424 24.3082 20.8944 24.3082 11.2712C24.3082 1.64797 24.1815 0 23.4401 0C22.6987 0 22.5719 1.64797 22.5719 11.2712ZM24.887 11.2712C24.887 18.3898 25.1 22.5424 25.4658 22.5424C25.8315 22.5424 26.0445 18.3898 26.0445 11.2712C26.0445 4.15254 25.8315 0 25.4658 0C25.1 0 24.887 4.15254 24.887 11.2712ZM28.9384 11.2712C28.9384 20.8944 29.0651 22.5424 29.8065 22.5424C30.5479 22.5424 30.6747 20.8944 30.6747 11.2712C30.6747 1.64797 30.5479 0 29.8065 0C29.0651 0 28.9384 1.64797 28.9384 11.2712ZM31.2534 11.2712V22.5424H33.2791H35.3048V11.2712V0H33.2791H31.2534V11.2712ZM35.8836 11.2712C35.8836 20.8944 36.0103 22.5424 36.7517 22.5424C37.4931 22.5424 37.6199 20.8944 37.6199 11.2712C37.6199 1.64797 37.4931 0 36.7517 0C36.0103 0 35.8836 1.64797 35.8836 11.2712ZM38.1986 11.2712V22.5424H39.9349H41.6712V11.2712V0H39.9349H38.1986V11.2712ZM42.25 11.2712C42.25 20.8944 42.3767 22.5424 43.1182 22.5424C43.8596 22.5424 43.9863 20.8944 43.9863 11.2712C43.9863 1.64797 43.8596 0 43.1182 0C42.3767 0 42.25 1.64797 42.25 11.2712ZM44.5651 11.2712V22.5424H46.5908H48.6164V11.2712V0H46.5908H44.5651V11.2712ZM51.5103 11.2712C51.5103 20.8944 51.637 22.5424 52.3784 22.5424C53.1198 22.5424 53.2466 20.8944 53.2466 11.2712C53.2466 1.64797 53.1198 0 52.3784 0C51.637 0 51.5103 1.64797 51.5103 11.2712ZM53.8253 11.2712V22.5424H55.5616H57.2979V11.2712V0H55.5616H53.8253V11.2712ZM57.8767 11.2712C57.8767 20.8944 58.0035 22.5424 58.7449 22.5424C59.4863 22.5424 59.613 20.8944 59.613 11.2712C59.613 1.64797 59.4863 0 58.7449 0C58.0035 0 57.8767 1.64797 57.8767 11.2712ZM60.1918 11.2712C60.1918 20.8944 60.3185 22.5424 61.0599 22.5424C61.8013 22.5424 61.9281 20.8944 61.9281 11.2712C61.9281 1.64797 61.8013 0 61.0599 0C60.3185 0 60.1918 1.64797 60.1918 11.2712ZM64.8219 11.2712V22.5424H66.5582H68.2945V11.2712V0H66.5582H64.8219V11.2712ZM68.8733 11.2712C68.8733 20.8944 69 22.5424 69.7414 22.5424C70.4828 22.5424 70.6096 20.8944 70.6096 11.2712C70.6096 1.64797 70.4828 0 69.7414 0C69 0 68.8733 1.64797 68.8733 11.2712ZM71.1884 11.2712V22.5424H73.214H75.2397V11.2712V0H73.214H71.1884V11.2712ZM75.8185 11.2712C75.8185 20.8944 75.9452 22.5424 76.6866 22.5424C77.428 22.5424 77.5548 20.8944 77.5548 11.2712C77.5548 1.64797 77.428 0 76.6866 0C75.9452 0 75.8185 1.64797 75.8185 11.2712ZM78.1336 11.2712C78.1336 20.8944 78.2603 22.5424 79.0017 22.5424C79.7431 22.5424 79.8699 20.8944 79.8699 11.2712C79.8699 1.64797 79.7431 0 79.0017 0C78.2603 0 78.1336 1.64797 78.1336 11.2712ZM82.7637 11.2712C82.7637 18.3898 82.9767 22.5424 83.3425 22.5424C83.7082 22.5424 83.9212 18.3898 83.9212 11.2712C83.9212 4.15254 83.7082 0 83.3425 0C82.9767 0 82.7637 4.15254 82.7637 11.2712ZM84.5 11.2712V22.5424H86.5257H88.5514V11.2712V0H86.5257H84.5V11.2712ZM98.3904 11.2712C98.3904 20.8944 98.5172 22.5424 99.2586 22.5424C100 22.5424 100.127 20.8944 100.127 11.2712C100.127 1.64797 100 0 99.2586 0C98.5172 0 98.3904 1.64797 98.3904 11.2712ZM103.021 11.2712C103.021 20.8944 103.147 22.5424 103.889 22.5424C104.63 22.5424 104.757 20.8944 104.757 11.2712C104.757 1.64797 104.63 0 103.889 0C103.147 0 103.021 1.64797 103.021 11.2712ZM107.072 11.2712C107.072 20.8944 107.199 22.5424 107.94 22.5424C108.681 22.5424 108.808 20.8944 108.808 11.2712C108.808 1.64797 108.681 0 107.94 0C107.199 0 107.072 1.64797 107.072 11.2712ZM109.387 11.2712C109.387 20.8944 109.514 22.5424 110.255 22.5424C110.997 22.5424 111.123 20.8944 111.123 11.2712C111.123 1.64797 110.997 0 110.255 0C109.514 0 109.387 1.64797 109.387 11.2712ZM114.017 11.2712C114.017 20.8944 114.144 22.5424 114.885 22.5424C115.627 22.5424 115.753 20.8944 115.753 11.2712C115.753 1.64797 115.627 0 114.885 0C114.144 0 114.017 1.64797 114.017 11.2712ZM116.332 11.2712C116.332 20.8944 116.459 22.5424 117.2 22.5424C117.942 22.5424 118.068 20.8944 118.068 11.2712C118.068 1.64797 117.942 0 117.2 0C116.459 0 116.332 1.64797 116.332 11.2712ZM118.647 11.2712C118.647 18.3898 118.86 22.5424 119.226 22.5424C119.592 22.5424 119.805 18.3898 119.805 11.2712C119.805 4.15254 119.592 0 119.226 0C118.86 0 118.647 4.15254 118.647 11.2712ZM120.962 11.2712C120.962 18.3898 121.175 22.5424 121.541 22.5424C121.907 22.5424 122.12 18.3898 122.12 11.2712C122.12 4.15254 121.907 0 121.541 0C121.175 0 120.962 4.15254 120.962 11.2712ZM125.014 11.2712V22.5424H127.039H129.065V11.2712V0H127.039H125.014V11.2712ZM129.644 11.2712V22.5424H131.38H133.116V11.2712V0H131.38H129.644V11.2712ZM133.695 11.2712C133.695 20.8944 133.822 22.5424 134.563 22.5424C135.305 22.5424 135.432 20.8944 135.432 11.2712C135.432 1.64797 135.305 0 134.563 0C133.822 0 133.695 1.64797 133.695 11.2712ZM136.01 11.2712V22.5424H138.036H140.062V11.2712V0H138.036H136.01V11.2712ZM142.955 11.2712C142.955 20.8944 143.082 22.5424 143.824 22.5424C144.565 22.5424 144.692 20.8944 144.692 11.2712C144.692 1.64797 144.565 0 143.824 0C143.082 0 142.955 1.64797 142.955 11.2712ZM145.271 11.2712C145.271 18.3898 145.484 22.5424 145.849 22.5424C146.215 22.5424 146.428 18.3898 146.428 11.2712C146.428 4.15254 146.215 0 145.849 0C145.484 0 145.271 4.15254 145.271 11.2712ZM147.007 11.2712V22.5424H149.033H151.058V11.2712V0H149.033H147.007V11.2712ZM151.637 11.2712V22.5424H153.663H155.688V11.2712V0H153.663H151.637V11.2712ZM156.267 11.2712C156.267 20.8944 156.394 22.5424 157.135 22.5424C157.877 22.5424 158.003 20.8944 158.003 11.2712C158.003 1.64797 157.877 0 157.135 0C156.394 0 156.267 1.64797 156.267 11.2712ZM160.318 11.2712C160.318 20.8944 160.445 22.5424 161.187 22.5424C161.928 22.5424 162.055 20.8944 162.055 11.2712C162.055 1.64797 161.928 0 161.187 0C160.445 0 160.318 1.64797 160.318 11.2712ZM162.634 11.2712C162.634 20.8944 162.76 22.5424 163.502 22.5424C164.243 22.5424 164.37 20.8944 164.37 11.2712C164.37 1.64797 164.243 0 163.502 0C162.76 0 162.634 1.64797 162.634 11.2712ZM164.949 11.2712V22.5424H166.974H169V11.2712V0H166.974H164.949V11.2712ZM115.753 26.6949C115.753 27.6737 116.014 28.4746 116.332 28.4746C116.651 28.4746 116.914 28.2741 116.919 28.0297C116.923 27.7853 117.084 26.9838 117.276 26.25C117.533 25.2688 117.377 24.9153 116.689 24.9153C116.035 24.9153 115.753 25.4515 115.753 26.6949ZM6.36644 29.9576C6.36644 33.5169 6.54007 34.4068 7.23459 34.4068C7.81336 34.4068 8.10274 33.8136 8.10274 32.6271C8.10274 31.6483 8.35624 30.8475 8.66646 30.8475C8.97668 30.8475 9.63474 31.6483 10.1284 32.6271C10.6221 33.6059 11.2802 34.4068 11.5904 34.4068C11.9006 34.4068 12.1541 34.2603 12.1541 34.0805C12.1541 33.9014 11.7698 32.9931 11.3004 32.0624C10.5475 30.5704 10.5475 30.3302 11.3004 30.0342C11.7698 29.8497 12.1541 29.0761 12.1541 28.315C12.1541 27.5545 11.8416 26.6119 11.4596 26.2203C11.0776 25.8288 9.77538 25.5085 8.56575 25.5085H6.36644V29.9576ZM25.4646 29.2161C24.7417 31.2556 24.0281 33.2577 23.8782 33.6653C23.7283 34.0734 23.9002 34.4068 24.2608 34.4068C24.6208 34.4068 25.1631 33.7394 25.4658 32.9237C25.8003 32.022 26.4711 31.4407 27.1766 31.4407C27.9325 31.4407 28.4643 31.9586 28.7005 32.9237C28.9002 33.7394 29.4141 34.4068 29.8418 34.4068C30.424 34.4068 30.2273 33.2862 29.0593 29.9576C28.2004 27.5106 27.3357 25.5085 27.1384 25.5085C26.9405 25.5085 26.1869 27.1772 25.4646 29.2161ZM42.8594 26.3603C42.4531 26.8622 42.2737 27.682 42.4607 28.1821C42.6482 28.6822 43.7299 29.6527 44.8649 30.3391C46.0004 31.0254 46.8257 31.888 46.6996 32.2558C46.574 32.623 45.5108 32.8923 44.3376 32.8537C43.0007 32.8104 42.2836 33.0317 42.4167 33.447C42.533 33.8118 43.4718 34.195 44.5026 34.2988C45.5333 34.4026 46.7505 34.1701 47.2071 33.7815C47.6638 33.393 48.0377 32.5648 48.0377 31.9414C48.0377 31.2746 47.2037 30.3029 46.012 29.5821C44.8979 28.9088 43.9863 27.9502 43.9863 27.4519C43.9863 26.7572 44.4007 26.6314 45.7689 26.912C47.0486 27.1742 47.4855 27.0698 47.3159 26.5413C47.1863 26.1361 46.2967 25.725 45.3395 25.6265C44.2971 25.5197 43.3016 25.814 42.8594 26.3603ZM59.613 29.9576C59.613 33.5169 59.7866 34.4068 60.4812 34.4068C61.0599 34.4068 61.3493 33.8136 61.3493 32.6271C61.3493 31.1245 61.5745 30.8475 62.7962 30.8475C64.018 30.8475 64.2432 31.1245 64.2432 32.6271C64.2432 33.6059 64.5036 34.4068 64.8219 34.4068C65.1564 34.4068 65.4007 32.5281 65.4007 29.9576C65.4007 27.3872 65.1564 25.5085 64.8219 25.5085C64.5036 25.5085 64.2432 26.4428 64.2432 27.5847C64.2432 29.4042 64.0637 29.661 62.7962 29.661C61.5287 29.661 61.3493 29.4042 61.3493 27.5847C61.3493 26.1349 61.0877 25.5085 60.4812 25.5085C59.7866 25.5085 59.613 26.3983 59.613 29.9576ZM78.6186 29.9606C77.4958 33.2019 77.2828 34.4068 77.8326 34.4068C78.2476 34.4068 78.7505 33.7394 78.9502 32.9237C79.1863 31.9586 79.7182 31.4407 80.4741 31.4407C81.1796 31.4407 81.8504 32.022 82.1849 32.9237C82.4876 33.7394 83.0022 34.4068 83.328 34.4068C83.6544 34.4068 83.9212 34.2887 83.9212 34.144C83.9212 33.9998 83.24 31.9977 82.4072 29.6948C81.5743 27.3925 80.7282 25.5097 80.5262 25.5114C80.3242 25.5132 79.4659 27.5153 78.6186 29.9606ZM159.427 26.3716C158.406 27.163 158.394 27.2525 159.306 27.2692C160.156 27.2852 160.318 27.86 160.318 30.8475C160.318 33.6605 160.506 34.4068 161.212 34.4068C161.95 34.4068 162.076 33.6676 161.936 30.1534C161.842 27.8137 161.495 25.8081 161.163 25.6965C160.832 25.5844 160.051 25.8881 159.427 26.3716ZM140.683 26.9387C140.257 27.4655 140.216 27.9086 140.572 28.1347C140.884 28.3322 141.303 28.2225 141.503 27.8908C141.702 27.5592 142.371 27.2881 142.99 27.2881C143.778 27.2881 144.113 27.6975 144.113 28.6603C144.113 29.4148 143.332 30.7994 142.377 31.7373C141.422 32.6752 140.64 33.7928 140.64 34.2211C140.64 34.7485 141.481 35 143.245 35C144.677 35 145.849 34.7331 145.849 34.4068C145.849 34.0805 145.041 33.8136 144.053 33.8136H142.257L144.053 31.7165C145.041 30.5633 145.849 29.1485 145.849 28.5725C145.849 27.9964 145.537 27.2051 145.155 26.8136C144.773 26.422 143.763 26.1017 142.91 26.1017C142.058 26.1017 141.056 26.4784 140.683 26.9387ZM10.8096 27.6447C11.0053 28.1667 10.8015 28.8305 10.3576 29.1188C9.91312 29.4071 9.22439 29.6468 8.8262 29.6521C8.42859 29.6569 8.10274 28.9936 8.10274 28.178C8.10274 27.0829 8.41006 26.6949 9.27821 26.6949C9.92528 26.6949 10.614 27.122 10.8096 27.6447ZM27.7808 29.9926C27.7808 30.4631 27.4145 30.8475 26.9671 30.8475C26.4392 30.8475 26.2587 30.4322 26.4537 29.6675C26.6192 29.0186 26.9856 28.6342 27.268 28.8127C27.5499 28.9919 27.7808 29.5222 27.7808 29.9926ZM80.9134 30.7608C80.6182 30.8765 80.2304 30.8214 80.0516 30.6381C79.8728 30.4553 79.9173 29.8265 80.15 29.2416C80.5441 28.2497 80.6026 28.2581 81.0118 29.3644C81.2531 30.0169 81.2091 30.6452 80.9134 30.7608Z" fill="white"/>
</svg>
