<svg width="141" height="141" viewBox="0 0 141 141" fill="none" xmlns="http://www.w3.org/2000/svg">
<g clip-path="url(#clip0)">
<path d="M89.2097 51.9248L89.0298 51.8664L88.994 51.9826L96.1608 78.7292L96.0778 78.7026L77.6527 98.524L84.2316 123.077C85.2889 122.011 120.673 86.3521 121.73 85.2867C121.329 83.7894 107.913 33.7212 107.512 32.2248L89.2097 51.9248Z" fill="#FF5284"/>
<path d="M62.9287 43.4476L44.3283 63.026L51.7025 90.5469L77.6521 98.5242L96.0772 78.7028L96.1364 78.6409L88.9934 51.9828L89.0291 51.8666L62.9287 43.4476Z" fill="white"/>
<path d="M62.9287 43.4476L44.3283 63.026L51.7025 90.5469L70.1864 70.662L96.0772 78.7028L96.1364 78.6409L88.9934 51.9828L89.0291 51.8666L62.9287 43.4476Z" fill="#425072"/>
<path d="M55.7972 16.9529C54.4988 18.3185 20.6753 53.9019 18.6456 56.0369L44.3303 63.0258L62.9307 43.4474L89.0311 51.8664L89.2111 51.9248L107.513 32.2248C104.988 31.4791 58.0889 17.6293 55.7972 16.9529Z" fill="#FFE35C"/>
<path d="M51.7035 90.547L44.3293 63.026L18.6445 56.0371L32.8624 109.099C34.3108 109.493 82.7835 122.683 84.2319 123.077L77.653 98.5242L51.7035 90.547Z" fill="#A0E4F8"/>
<path d="M67.1257 59.2299C65.9352 59.5489 65.2277 60.7743 65.5467 61.9648C65.8657 63.1554 67.0911 63.8629 68.2817 63.5439C69.4722 63.2249 70.1797 61.9995 69.8607 60.8089C69.5417 59.6184 68.3163 58.9109 67.1257 59.2299Z" fill="black"/>
<path d="M123.889 84.7089L109.671 31.6471C109.668 31.6344 109.662 31.6225 109.658 31.609C109.448 30.8768 108.886 30.3167 108.18 30.096C108.169 30.0926 108.157 30.0867 108.147 30.0832L56.4303 14.8113C55.6263 14.5743 54.7568 14.8072 54.179 15.4145L17.038 54.4876C16.5085 55.0358 16.2905 55.8402 16.485 56.5927C16.487 56.6003 16.4871 56.6075 16.4891 56.6151L30.707 109.677C30.9127 110.445 31.5108 111.046 32.2773 111.254L83.6468 125.232C84.0179 125.333 84.4272 125.337 84.8114 125.234C85.1956 125.131 85.5495 124.921 85.8181 124.65L123.316 86.8599C123.877 86.2961 124.094 85.4765 123.889 84.7089ZM21.8087 59.212L42.506 64.8434L48.503 87.2247L27.5924 80.797L21.8087 59.212ZM38.8492 38.025L58.8685 44.4829L43.6309 60.5215L22.842 54.865L38.8492 38.025ZM103.425 33.3461L88.5441 49.363L66.9967 42.4124L81.7039 26.9323L103.425 33.3461ZM76.9724 95.9779L55.7635 89.4586L70.8683 73.2108L92.0271 79.7825L76.9724 95.9779ZM70.8511 68.5294C70.0316 68.2749 69.138 68.5126 68.5534 69.1415L52.817 86.0687L46.8118 63.6571L61.7789 47.9032L63.2349 53.337C63.5541 54.5284 64.7785 55.2352 65.9698 54.916C67.1612 54.5968 67.8681 53.3725 67.5489 52.1811L66.1123 46.8198L87.1162 53.5954L92.9577 75.3961L70.8511 68.5294ZM54.9067 93.8676L75.8173 100.295L81.0709 119.902L60.3736 114.27L54.9067 93.8676ZM80.1313 99.1393L95.0262 83.1158L100.494 103.52L85.3849 118.746L80.1313 99.1393ZM91.509 52.7335L106.402 36.7033L112.146 58.1409L97.2513 74.1644L91.509 52.7335ZM56.4752 19.4816L76.8936 25.5111L62.2814 40.8909L42.2629 34.4327L56.4752 19.4816ZM28.9567 85.8887L49.8673 92.3163L55.3862 112.913L34.6889 107.282L28.9567 85.8887ZM104.134 99.851L98.6159 79.2569L113.511 63.2325L119.243 84.6254L104.134 99.851Z" fill="black"/>
</g>
<defs>
<clipPath id="clip0">
<rect width="114.333" height="114.333" fill="white" transform="translate(0 29.5918) rotate(-15)"/>
</clipPath>
</defs>
</svg>
