<svg width="97" height="101" viewBox="0 0 97 101" fill="none" xmlns="http://www.w3.org/2000/svg">
<path fill-rule="evenodd" clip-rule="evenodd" d="M18.3989 6.70961C16.0922 10.5867 13.4794 16.3149 12.2101 20.2783C11.0023 24.0509 10.0956 27.22 10.1964 27.3208C10.2973 27.4209 14.2092 21.2336 18.8892 13.5701C24.1249 4.99776 26.4018 0.753653 24.8074 2.53877L22.2164 5.44023L22.4689 2.72011C22.6081 1.22441 22.6473 0 22.5566 0C22.466 0 20.5945 3.01896 18.3989 6.70961ZM69.7989 7.80346C73.1203 9.55884 76.9045 12.5031 80.7402 16.3141C85.3666 20.9122 87.2402 23.4408 89.6187 28.2979C91.2769 31.6846 93.1266 36.4002 93.7286 38.7779C94.3473 41.2188 94.8239 46.2847 94.8239 50.4128C94.8239 54.5408 94.3473 59.6067 93.7286 62.0476C93.1266 64.4253 91.2769 69.1409 89.6187 72.5277C87.2518 77.3608 85.342 79.9459 80.7308 84.5564C76.1204 89.1675 73.5352 91.0774 68.7021 93.4442C65.3154 95.1024 60.5998 96.9521 58.222 97.5541C55.7812 98.1729 50.7153 98.6494 46.5872 98.6494C42.4592 98.6494 37.3932 98.1729 34.9524 97.5541C32.5746 96.9521 27.8591 95.1024 24.4723 93.4442C19.6218 91.0687 17.078 89.1856 12.4792 84.5658C8.63038 80.6996 5.79059 77.0488 4.14401 73.8507C2.76945 71.1828 1.52617 69.1184 1.3811 69.2642C1.23603 69.4093 2.36179 71.9191 3.8836 74.8401C5.84354 78.6018 8.45702 81.9523 12.8375 86.3183C17.062 90.529 20.6671 93.3492 24.2068 95.2141C27.0583 96.7164 31.9247 98.5929 35.022 99.385C38.7439 100.337 43.0134 100.822 47.61 100.815C51.4356 100.809 56.6879 100.308 59.2811 99.7019C61.8743 99.0963 66.7705 97.2386 70.1615 95.5739C75.0955 93.1526 77.5588 91.3095 82.4927 86.3502C86.6933 82.1278 89.5288 78.5003 91.3886 74.9692C92.8908 72.1178 94.7673 67.2514 95.5594 64.1541C96.53 60.359 97 56.1301 97 51.1889C97 46.0033 96.5604 42.2698 95.5 38.4414C94.6745 35.4638 92.8038 30.7373 91.3422 27.9381C89.5302 24.4672 86.7209 20.8752 82.5058 16.6406C78.1355 12.2492 74.8097 9.64806 71.1437 7.75486C68.2923 6.28238 65.681 5.08697 65.3408 5.09858C64.9999 5.11019 67.0062 6.32735 69.7989 7.80346ZM24.8394 13.5911C24.1887 15.8905 23.4764 18.3843 23.2566 19.1329C22.9179 20.2862 23.5257 20.1267 27.2374 18.0862L31.6172 15.678L29.4382 12.9267C28.2399 11.4136 26.9806 10.0035 26.6412 9.79313C26.301 9.58278 25.49 11.2925 24.8394 13.5911ZM45.983 13.5404C45.7168 13.8058 45.4992 14.8903 45.4992 15.9486C45.4992 17.7866 45.2518 17.9121 40.0227 18.7253C37.0102 19.1938 32.6958 20.4516 30.4355 21.5215C27.9439 22.7003 24.6413 25.2013 22.0503 27.8721C19.6987 30.2955 16.6914 33.4429 15.3668 34.8653C13.2996 37.0849 12.9768 37.922 13.087 40.7756C13.1755 43.0641 12.8201 44.5373 11.9468 45.5021C11.2497 46.2731 10.8515 47.0768 11.0625 47.2879C11.2736 47.499 11.8967 50.2474 12.4458 53.3947C12.9956 56.5421 13.3402 59.2259 13.2118 59.3594C13.0834 59.4921 11.1605 58.4389 8.93939 57.0179C6.7176 55.5962 3.52963 53.5688 1.85476 52.5112C-0.987211 50.7174 -0.829806 50.9851 4.20132 56.5094C7.16733 59.7656 11.1206 63.4171 12.9869 64.6241C14.8533 65.8304 17.8984 68.594 19.7531 70.765L23.1253 74.7124H16.9032C13.2393 74.7124 10.6817 75.0106 10.6817 75.4378C10.6817 75.8368 10.1109 76.1958 9.41233 76.2357C8.56583 76.2836 8.74717 76.5012 9.95635 76.8885C10.9537 77.2077 13.8914 77.5124 16.4846 77.5646C20.5568 77.6473 21.0276 77.7909 19.9366 78.6185C18.8544 79.4404 19.7321 79.6471 26.1022 80.0693C30.1882 80.3398 34.8363 80.8701 36.4321 81.2465C38.0279 81.623 41.9217 81.9392 45.0857 81.9487L50.8379 81.9661L47.8058 79.3707C45.172 77.1163 44.7738 76.3895 44.7738 73.8348C44.7738 72.1418 45.4012 69.8793 46.2521 68.5026C47.0747 67.1716 49.1499 65.4234 50.9329 64.5603C52.7796 63.6666 55.1371 63.1074 56.4986 63.2394C58.3345 63.4178 59.3485 64.1642 61.0481 66.5891C62.6627 68.8929 63.2394 70.5431 63.2525 72.9012L63.2706 76.0943L66.0574 73.409C67.5908 71.9314 69.772 69.3905 70.905 67.7613C72.0388 66.1321 73.6404 62.7969 74.4651 60.3495C75.4465 57.4365 75.9645 54.0381 75.9645 50.5121C75.9645 47.1653 75.4124 43.3376 74.5057 40.4035C73.6534 37.6442 71.6855 33.8317 69.772 31.2313C67.7134 28.435 64.8591 25.7236 62.0911 23.9348C59.6677 22.3688 56.9839 20.8687 56.1257 20.6011C55.2684 20.3334 54.3261 19.7509 54.0331 19.3055C53.74 18.8609 53.4956 17.7932 53.4891 16.9329C53.4804 15.723 52.7107 15.1079 50.0849 14.2128C48.2186 13.5766 46.6409 13.0565 46.5792 13.0565C46.5169 13.0565 46.2485 13.2742 45.983 13.5404ZM50.6964 17.9223C51.3608 18.1145 52.0746 18.9748 52.282 19.8343C52.4895 20.6946 53.3491 25.152 54.1927 29.7399C55.0363 34.3278 55.9205 38.7315 56.1577 39.5265C56.5501 40.8416 56.4725 40.875 55.2916 39.895C54.1114 38.915 54.0324 38.9484 54.4175 40.2635C54.6496 41.0585 55.367 44.6012 56.0111 48.1373C56.6553 51.6735 57.0542 54.6946 56.8975 54.852C56.7401 55.0087 56.22 53.8292 55.7413 52.2305C55.2626 50.6325 54.6126 49.3247 54.2978 49.3247C53.983 49.3247 51.9948 43.4906 49.8789 36.3603C46.6046 25.3268 46.1085 22.8881 46.5437 19.9823C46.9659 17.1679 47.2698 16.6573 48.2722 17.0714C48.941 17.3471 50.032 17.7301 50.6964 17.9223ZM75.5263 23.5946C74.3708 24.6036 73.0166 25.7598 72.5161 26.1646C71.7929 26.75 71.8292 27.3295 72.6923 28.9993C73.2893 30.1541 74.0321 31.2559 74.3433 31.4481C74.6544 31.6404 76.7769 30.5414 79.0596 29.0066L83.2108 26.2161L81.3365 23.9885C80.3058 22.7634 79.0494 21.7609 78.5446 21.7609C78.0397 21.7609 76.6818 22.5864 75.5263 23.5946ZM79.5913 24.9822C79.5913 25.5575 79.2873 26.2154 78.916 26.4446C78.5446 26.6745 78.0361 26.5302 77.7851 26.1247C77.5349 25.7192 77.5312 25.0613 77.7779 24.6624C78.0245 24.2634 78.533 23.937 78.9087 23.937C79.2844 23.937 79.5913 24.407 79.5913 24.9822ZM39.6963 29.2242C39.6963 29.6601 40.1438 29.4048 40.6907 28.6569C41.6373 27.3622 41.7447 27.3999 42.9045 29.4251L44.1239 31.5533L43.6836 29.4556L43.244 27.3585L45.0052 29.4556C45.9743 30.6096 47.4606 34.087 48.3092 37.1829C49.1572 40.2794 49.8514 43.6901 49.8514 44.7622C49.8514 45.8343 50.9002 49.9108 52.1819 53.8213C53.4637 57.731 54.913 60.9305 55.4033 60.9305C55.8929 60.9305 56.4449 61.1757 56.6292 61.4746C56.8127 61.7734 55.8342 62.1013 54.4538 62.2028C53.0734 62.3044 51.0098 62.8702 49.8673 63.4613C48.7241 64.0518 47.1566 65.4379 46.3827 66.5412C45.6087 67.6445 44.5526 69.8474 44.0368 71.4381C43.2107 73.982 43.0192 74.1561 42.4418 72.8889C42.0813 72.0961 39.8457 70.0614 37.4745 68.3655C34.787 66.4433 32.373 65.2827 31.0659 65.2827C29.9126 65.2827 26.829 64.6219 24.2141 63.8139C20.6569 62.7157 19.0575 61.7814 17.8635 60.1036L16.267 57.8623L18.0079 58.3729C19.3019 58.7523 19.0575 58.399 17.0555 56.9976C15.2203 55.7123 14.0837 54.1825 13.4881 52.195C12.8484 50.0602 12.8295 49.0629 13.4185 48.4739C13.8603 48.0321 15.1819 47.6346 16.3548 47.5904L18.4874 47.5113L16.3983 45.1285C15.2486 43.8185 14.3085 41.9412 14.3085 40.9577C14.3085 39.4997 14.669 39.1696 16.2634 39.1696C17.3855 39.1696 19.146 40.0198 20.3936 41.1644L22.569 43.1591L20.6148 40.7458C19.5399 39.4192 18.6658 37.9503 18.6716 37.4817C18.6781 37.0138 18.9226 36.258 19.2156 35.8025C19.5507 35.2817 22.6459 38.1599 27.5464 43.5487C34.2038 50.869 35.3441 52.4793 35.3441 54.5553C35.3441 56.5646 36.0985 57.7331 39.6897 61.2867C42.9698 64.5327 44.2399 65.3814 44.871 64.7503C45.5021 64.1192 44.303 62.1861 39.9813 56.8634C36.8325 52.9849 31.5628 46.8563 28.2718 43.2433C23.9189 38.4646 22.2875 36.1478 22.2875 34.742C22.2875 33.3558 22.7431 32.6914 23.9 32.3889C24.9815 32.106 26.0986 32.4963 27.2933 33.5735L29.0733 35.1801L27.4913 32.8887C26.5665 31.549 26.1029 30.0932 26.3742 29.3845C26.6876 28.5692 27.3411 28.3066 28.3719 28.5837C29.2148 28.81 30.4682 28.9993 31.1587 29.0044C31.8863 29.0102 33.0345 30.2324 33.8934 31.916C34.7072 33.5118 35.5385 34.8175 35.7401 34.8175C35.9418 34.8175 35.5769 33.7932 34.9292 32.5405C34.0268 30.7946 33.9311 29.8712 34.5201 28.5793C35.2077 27.0684 35.516 26.9741 37.4919 27.6625C38.704 28.0854 39.6963 28.7882 39.6963 29.2242ZM76.5237 27.7002C76.3656 28.1738 75.8491 28.6903 75.3755 28.8484C74.9011 29.0066 74.5137 28.6185 74.5137 27.9867C74.5137 27.3556 75.0309 26.8385 75.662 26.8385C76.2938 26.8385 76.6818 27.2258 76.5237 27.7002ZM79.2286 31.3444C77.2338 32.2003 75.5125 32.9591 75.403 33.0302C75.2942 33.1012 75.3958 33.6561 75.6293 34.264C75.992 35.2091 76.5767 35.1163 79.6732 33.6228C81.6636 32.6624 83.6025 32.0676 83.9804 32.3019C84.3591 32.5355 84.6688 32.9787 84.6688 33.2855C84.6688 33.593 83.0367 34.6085 81.042 35.5428C79.0472 36.4771 77.4152 37.4926 77.4152 37.8001C77.4152 38.107 77.7293 38.5531 78.1137 38.7903C78.4974 39.0275 80.4559 38.3884 82.4659 37.37C85.5349 35.8148 86.1195 35.1954 86.1195 33.4995C86.1195 32.3889 85.7278 31.0891 85.2491 30.6103C84.7704 30.1316 84.0356 29.7508 83.617 29.7638C83.1978 29.7769 81.2233 30.4878 79.2286 31.3444ZM40.5914 33.086C41.0665 34.1291 41.5793 34.6078 41.7324 34.1501C41.8847 33.6931 41.8252 32.8401 41.6011 32.2547C41.3762 31.6694 40.8627 31.1906 40.4601 31.1906C40.0002 31.1906 40.0488 31.8964 40.5914 33.086ZM42.6587 37.3562C42.6587 37.7552 43.2839 39.224 44.0484 40.6204C44.813 42.0167 45.4382 42.8327 45.4382 42.4338C45.4382 42.0348 44.813 40.566 44.0484 39.1696C43.2839 37.7733 42.6587 36.9573 42.6587 37.3562ZM85.3942 38.4015C85.3942 38.7772 85.7206 39.2857 86.1195 39.5323C86.5185 39.7789 86.8449 40.3991 86.8449 40.9105C86.8449 41.4458 85.1519 42.2191 82.8554 42.7333C80.6612 43.2244 78.8659 43.9099 78.8659 44.2566C78.8659 44.6033 79.1415 45.0574 79.4781 45.2649C79.8147 45.473 81.2016 45.3613 82.5609 45.0161C83.9195 44.6708 85.9527 44.1812 87.0777 43.928C88.9499 43.5073 89.0812 43.2694 88.6191 41.1375C88.3406 39.8558 87.7465 38.5669 87.2975 38.2738C86.8492 37.9808 86.237 37.7363 85.9382 37.7298C85.6393 37.724 85.3942 38.0257 85.3942 38.4015ZM29.5412 42.3721C29.5412 42.5672 31.01 43.7372 32.8053 44.9725C34.6006 46.2078 36.0694 47.7115 36.0694 48.3143C36.0694 49.0056 35.7351 49.2036 35.1627 48.8511C34.6644 48.5435 35.2919 49.5851 36.5583 51.1657C37.8241 52.7463 40.4354 55.8871 42.3613 58.1459C44.2864 60.4046 46.1883 62.2485 46.5872 62.2442C46.9862 62.2398 47.2226 61.9178 47.1131 61.5282C47.0029 61.1387 44.9624 57.9188 42.5781 54.3733C39.2864 49.4771 37.1974 47.2161 33.8926 44.9718C31.4989 43.347 29.5412 42.177 29.5412 42.3721ZM45.859 44.7912C46.1259 45.7305 46.004 46.4233 45.5717 46.4233C45.159 46.4233 46.2913 49.5902 48.088 53.4615C49.8847 57.332 51.5059 60.6506 51.6909 60.8355C51.8758 61.0212 52.1841 61.0154 52.3756 60.8239C52.5671 60.6324 51.968 58.0255 51.0439 55.0312C50.1205 52.0361 48.4717 48.1402 47.38 46.3725C46.2891 44.6055 45.6044 43.8939 45.859 44.7912ZM40.8286 46.7511C41.1223 48.3273 43.0075 52.2443 45.0175 55.4555C47.0268 58.666 48.7735 61.4296 48.8982 61.5957C49.0237 61.7618 49.3146 61.7089 49.546 61.4782C49.7766 61.2468 48.5972 57.9507 46.9252 54.1527C45.2533 50.3555 43.0772 46.4915 42.0892 45.5659L40.2932 43.8845L40.8286 46.7511ZM87.4158 48.5994C87.7262 50.716 87.6537 50.7754 84.7508 50.7754C82.8939 50.7754 81.7347 50.4331 81.6818 49.8687C81.6339 49.3704 81.6484 48.5544 81.713 48.0553C81.7782 47.557 81.3271 47.1486 80.7112 47.1486C79.9685 47.1486 79.5913 47.8319 79.5913 49.1797C79.5913 50.2967 79.983 51.6024 80.4617 52.0811C80.9404 52.5598 82.8873 52.9515 84.7885 52.9515C87.4629 52.9515 88.4146 52.6346 88.9956 51.5487C89.4083 50.7769 89.7464 49.5061 89.7464 48.7248C89.7464 47.9429 89.2299 47.1058 88.5988 46.8636C87.9678 46.6213 87.3715 46.4233 87.2736 46.4233C87.1764 46.4233 87.2402 47.4025 87.4158 48.5994ZM30.0366 57.3951C30.9078 58.3424 31.9624 60.0188 32.3802 61.1213C32.851 62.3653 34.8479 64.2056 37.6449 65.974C40.1228 67.5408 42.4142 68.66 42.737 68.4605C43.0591 68.2618 43.3231 67.8534 43.3231 67.5546C43.3231 67.255 40.7865 64.709 37.6863 61.896C34.5861 59.083 31.2407 56.5319 30.2513 56.2273L28.4531 55.6731L30.0366 57.3951ZM78.8659 57.3037C78.8659 58.3678 79.3497 58.7544 80.6793 58.7544C81.6767 58.7544 82.4927 59.0809 82.4927 59.4798C82.4927 59.8788 81.742 60.2052 80.8244 60.2052C79.9068 60.2052 78.7644 60.5969 78.2856 61.0756C77.8069 61.5543 77.4152 62.1673 77.4152 62.4378C77.4152 62.7091 79.5224 63.4599 82.0981 64.1062C84.6732 64.7532 86.9581 65.2827 87.1757 65.2827C87.3925 65.2827 87.5703 64.8192 87.5703 64.252C87.5703 63.6855 86.5091 62.9753 85.2128 62.6743L82.8554 62.1267L85.7569 61.2823C87.6355 60.7354 88.7497 59.9491 88.918 59.0518C89.0616 58.2902 88.9608 57.8753 88.6953 58.1314C88.4298 58.3867 86.1906 57.9812 83.72 57.2305C81.2502 56.479 79.1466 55.8617 79.0472 55.8588C78.9479 55.8552 78.8659 56.5058 78.8659 57.3037ZM75.72 66.5521C75.1658 67.6489 74.8612 68.9639 75.0425 69.4731C75.2246 69.9823 76.6354 71.0428 78.1783 71.8306C79.7218 72.6176 81.4794 73.2617 82.0843 73.2617C82.6893 73.2617 83.7092 72.4616 84.3497 71.4838C84.9902 70.5061 85.3209 69.096 85.0844 68.3503C84.848 67.6053 83.5039 66.4469 82.0981 65.776C80.6924 65.1057 78.9087 64.5574 78.1347 64.5574C77.3267 64.5574 76.2981 65.4075 75.72 66.5521ZM81.0783 67.8404C82.2548 68.4489 83.2181 69.2751 83.2181 69.6763C83.2181 70.0774 82.7582 70.5822 82.1953 70.7984C81.6332 71.0138 80.1643 70.6693 78.9312 70.0317C77.6988 69.3941 76.6898 68.6085 76.6898 68.2865C76.6898 67.9644 76.9074 67.4828 77.1736 67.2173C77.4391 66.9511 77.9454 66.7334 78.2972 66.7334C78.6498 66.7334 79.901 67.2318 81.0783 67.8404ZM71.4549 72.8301C69.8402 74.8539 69.661 75.4472 70.4633 76.1131C71.2104 76.7326 71.5513 76.6434 71.8988 75.7381C72.2811 74.7407 72.8642 74.9692 75.551 77.1707C77.3085 78.6113 78.9022 79.79 79.0915 79.79C79.2808 79.79 79.6094 79.3381 79.8212 78.7854C80.0577 78.1703 78.9515 76.8798 76.9655 75.453C74.5594 73.7252 73.9175 72.8918 74.4753 72.2201C74.8887 71.7225 75.012 71.1001 74.7495 70.8376C74.4869 70.575 74.0814 70.3603 73.8486 70.3603C73.6157 70.3603 72.5386 71.4715 71.4549 72.8301ZM67.5945 76.9342C67.3326 77.3586 67.6394 78.282 68.277 78.9863C68.9146 79.6906 69.4362 80.4943 69.4362 80.7721C69.4362 81.0507 68.4743 80.7808 67.2993 80.173C65.3277 79.1531 64.9716 79.18 62.7113 80.5139L60.2603 81.9596L62.3508 86.3154C63.5005 88.7105 64.6945 90.6704 65.0042 90.6704C65.3139 90.6704 65.7702 90.4673 66.0183 90.2193C66.2663 89.9712 65.6679 88.1868 64.6887 86.2537C63.7094 84.3213 62.9079 82.4028 62.9079 81.99C62.9079 81.578 63.1531 81.256 63.4519 81.2741C63.7508 81.2929 64.9266 82.5166 66.064 83.9942C67.2013 85.4718 68.4004 87.1495 68.7289 87.7226C69.2164 88.5727 69.5297 88.5945 70.4379 87.8401C71.4287 87.0182 71.3961 86.7506 70.1383 85.4007C69.3615 84.5672 68.8407 83.7708 68.9806 83.6308C69.1206 83.4908 70.1528 83.7251 71.2742 84.1516C72.3957 84.5781 73.755 84.7573 74.2947 84.5498C74.9975 84.2807 74.394 83.049 72.1752 80.2223C70.4691 78.0484 68.8479 76.2466 68.5723 76.2169C68.2966 76.1871 67.8563 76.5099 67.5945 76.9342ZM25.8454 86.6128L23.9631 91.2377L26.8377 92.1865C29.4491 93.0482 29.8037 93.0097 30.7148 91.7643C31.2661 91.0099 31.7173 89.8218 31.7173 89.124C31.7173 88.4254 32.0437 87.6529 32.4426 87.4063C32.8416 87.1597 33.168 86.3328 33.168 85.569C33.168 84.7638 32.2678 83.7142 31.0282 83.073C29.8509 82.4644 28.6265 81.9712 28.3081 81.977C27.9889 81.9835 26.8805 84.0696 25.8454 86.6128ZM56.405 84.0943C55.9923 84.8661 55.6543 86.0658 55.6543 86.76C55.6543 87.8633 55.441 87.8212 53.9533 86.4242C52.9893 85.5182 51.7685 85.0126 51.1353 85.2556C50.1691 85.6263 50.2699 86.3212 51.8766 90.3709C52.8993 92.9488 54.086 94.9327 54.514 94.7804C54.9412 94.6288 55.2459 94.0492 55.1908 93.4936C55.1356 92.9387 54.8353 91.831 54.5242 91.0331C53.9649 89.602 53.9787 89.6013 55.531 90.9642C57.0869 92.3301 57.105 92.3279 57.105 90.7829C57.105 89.9233 57.4249 89.2197 57.8166 89.2197C58.2075 89.2197 58.7378 90.0553 58.9938 91.0766C59.3043 92.3119 59.8142 92.7972 60.5178 92.5274C61.0996 92.304 61.7524 92.1212 61.9678 92.1212C62.184 92.1212 62.0418 91.7135 61.6537 91.2145C61.265 90.7161 60.3445 88.5937 59.6082 86.4996C58.8713 84.4055 58.019 82.6914 57.7128 82.6914C57.4067 82.6914 56.8185 83.3225 56.405 84.0943ZM30.8258 85.7293C30.6677 86.2029 30.1512 86.7194 29.6775 86.8775C29.2032 87.0356 28.8158 86.6476 28.8158 86.0158C28.8158 85.3847 29.333 84.8675 29.9641 84.8675C30.5958 84.8675 30.9839 85.2549 30.8258 85.7293ZM34.7914 89.5614C32.6073 93.9912 32.5493 94.2973 33.8999 94.2973C34.6942 94.2973 35.3441 93.9469 35.3441 93.5189C35.3441 93.0903 35.9149 92.8502 36.6135 92.9844C37.312 93.1193 37.8829 93.7141 37.8829 94.3074C37.8829 94.9 38.6532 95.4941 39.5954 95.6276C40.6886 95.7821 41.1318 95.5848 40.8206 95.0814C40.5522 94.6476 40.1083 92.2575 39.8334 89.771C39.4808 86.5794 39.0086 85.1867 38.2303 85.0373C37.502 84.8973 36.3335 86.435 34.7914 89.5614ZM42.8574 88.313C43.1048 89.8094 43.3108 92.0943 43.3151 93.3906C43.3224 95.5725 43.5015 95.748 45.7168 95.748C47.0333 95.748 48.5022 95.3563 48.9809 94.8776C49.4597 94.3988 49.8514 92.745 49.8514 91.2029C49.8514 89.6607 49.5133 87.7675 49.1006 86.9958C48.5457 85.9592 47.5737 85.5929 45.3788 85.5929H42.4077L42.8574 88.313ZM47.6753 90.6704C47.6753 92.3352 47.2814 93.5675 46.675 93.8004C45.9576 94.076 45.5616 93.3376 45.2736 91.1905C45.0524 89.544 45.0233 87.9518 45.209 87.6522C45.394 87.3519 46.0251 87.291 46.6104 87.5158C47.2872 87.7755 47.6753 88.9252 47.6753 90.6704ZM29.5412 89.5824C29.5412 90.1808 29.0515 90.6704 28.4531 90.6704C27.8547 90.6704 27.3651 90.1808 27.3651 89.5824C27.3651 88.984 27.8547 88.4944 28.4531 88.4944C29.0515 88.4944 29.5412 88.984 29.5412 89.5824ZM37.5202 90.3078C37.5202 90.9062 37.2039 91.3958 36.8173 91.3958C36.4314 91.3958 36.303 90.9062 36.5322 90.3078C36.7622 89.7093 37.0784 89.2197 37.2351 89.2197C37.3918 89.2197 37.5202 89.7093 37.5202 90.3078Z" fill="#152F57"/>
</svg>
