<svg width="112" height="100" viewBox="0 0 112 100" fill="none" xmlns="http://www.w3.org/2000/svg">
<mask id="path-1-inside-1" fill="white">
<path fill-rule="evenodd" clip-rule="evenodd" d="M38.0744 0.789973C35.5306 1.43817 30.6474 3.03837 27.2244 4.34457L21 6.72177V21.307V35.8908H10.5C2.4108 35.8908 0 36.343 0 37.8592C0 39.108 0.9786 39.5728 2.6726 39.1304C4.4674 38.66 5.5636 39.2788 6.0102 41.0106C6.6066 43.3248 6.692 43.3388 6.8376 41.1408C6.9286 39.7744 8.1158 38.6908 9.52 38.6908C10.906 38.6908 12.7246 39.3754 13.5618 40.2126C14.658 41.3088 15.3468 41.3088 16.0244 40.2126C16.5424 39.3754 18.1566 38.6908 19.6126 38.6908C21.07 38.6908 22.9026 39.794 23.688 41.1408C24.9718 43.3444 25.1188 43.357 25.158 41.2626C25.193 39.3166 26.7848 38.9442 34.8698 38.9848C44.1756 39.031 44.5648 39.171 45.241 42.7032C45.626 44.7234 45.6484 46.8514 45.2886 47.4324C44.9288 48.0148 43.4126 48.4908 41.9174 48.4908C40.4222 48.4908 39.2 47.9126 39.2 47.207C39.2 46.5014 39.8986 45.6908 40.754 45.4066C41.7256 45.0818 41.4638 44.1886 40.054 43.0182C38.08 41.3802 37.8 41.6028 37.8 44.82C37.8 47.1496 37.0328 48.4908 35.7 48.4908C34.3476 48.4908 33.593 47.1202 33.579 44.6408C33.5636 41.8394 33.2178 41.3284 32.3078 42.7634C31.6218 43.8484 31.353 45.5032 31.7128 46.4384C32.1202 47.501 31.0198 48.1408 28.7826 48.1408C26.4264 48.1408 25.186 47.3624 25.158 45.8658C25.1202 43.875 24.9368 43.896 23.688 46.0408C22.9026 47.389 21.1092 48.4908 19.7022 48.4908C18.2938 48.4908 16.3114 47.4884 15.295 46.2648C13.6094 44.2334 13.2986 44.2418 11.753 46.3558C10.8206 47.6298 9.212 48.5566 8.1788 48.4166C7.1456 48.2752 4.8832 48.2332 3.15 48.3256C1.4168 48.4166 0 49.1208 0 49.8908C0 50.7686 8.8662 51.2908 23.8 51.2908C44.0216 51.2908 47.6 51.6058 47.6 53.3908C47.6 54.9056 46.1356 55.4572 42.35 55.3732C39.4632 55.3074 33.4082 54.795 28.8946 54.2322L20.6906 53.2088L21.5166 59.2414C21.9716 62.5594 23.8868 68.3176 25.7726 72.0388C27.6584 75.76 32.9 82.2224 37.4206 86.3972C41.9426 90.5734 47.9724 95.2368 50.8228 96.76L56.0042 99.5306L62.5198 96.06C66.1038 94.1518 72.2736 89.4408 76.2314 85.5908C80.1878 81.7408 84.8022 75.6326 86.4836 72.0178C88.1664 68.4016 89.9514 62.8898 90.4498 59.7678C91.0602 55.9514 90.8404 54.0908 89.7792 54.0908C88.893 54.0908 88.186 56.3952 88.1692 59.3408C88.1524 62.229 86.9148 67.2872 85.4182 70.5842C83.923 73.8798 79.632 79.5638 75.8828 83.215C72.135 86.8662 66.1276 91.4134 62.5338 93.3202L56 96.7866L49.35 93.2964C45.6932 91.377 39.8454 86.967 36.3552 83.4978C32.8664 80.0286 28.7056 74.3558 27.1096 70.8908C25.515 67.4258 23.8182 62.544 23.3394 60.0408C22.862 57.5376 23.0146 55.4908 23.6796 55.4908C24.3446 55.4908 25.326 57.8246 25.8608 60.675C26.3956 63.5268 27.9818 68.1104 29.3846 70.86C30.7874 73.6096 35.112 78.8316 38.9942 82.4632C42.8778 86.0948 48.2916 90.1338 51.0272 91.4386C55.7004 93.666 56.2996 93.666 60.9728 91.4386C63.7084 90.1338 69.1222 86.0948 73.0058 82.4632C76.888 78.8316 81.249 73.5396 82.6952 70.7032C84.1428 67.8682 85.7458 62.9192 86.2596 59.7062L87.1948 53.864L75.7974 54.858C65.7916 55.7316 64.4 55.5734 64.4 53.5714C64.4 51.554 67.1398 51.2908 88.2 51.2908C103.134 51.2908 112 50.7686 112 49.8908C112 49.1208 109.638 48.3914 106.75 48.2696C103.863 48.1464 100.398 48.1394 99.05 48.2528C97.7018 48.3648 96.6 48.2444 96.6 47.9826C96.6 47.7222 97.2916 45.5242 98.1372 43.0994C98.9828 40.6746 100.23 38.6908 100.911 38.6908C101.59 38.6908 102.592 40.4226 103.137 42.5408L104.126 46.3908L104.952 42.9944C105.406 41.1268 106.547 39.3418 107.489 39.0282C108.542 38.6768 109.2 39.8472 109.2 42.0746C109.2 44.0626 109.83 45.6908 110.6 45.6908C111.37 45.6908 112 43.4858 112 40.7908V35.8908H101.5H91V21.3196V6.74837L82.25 3.66277C75.8142 1.39337 69.4288 0.449774 58.1 0.0941736C49.63 -0.170426 40.6182 0.141773 38.0744 0.789973ZM74.8748 5.08377C80.8822 6.62097 86.653 8.58797 87.6988 9.45597C89.0386 10.5676 89.6 14.7004 89.6 23.4616C89.6 30.8144 89.0288 35.8908 88.2 35.8908C87.3712 35.8908 86.8 30.771 86.8 23.33V10.7692L78.75 8.27997C72.8182 6.44597 66.2802 5.81737 53.9 5.89157C42.4424 5.96017 35.3192 6.67137 31.5 8.12737L25.9 10.2624L25.4814 19.7572C25.0866 28.7312 25.221 29.2114 27.93 28.503C29.5078 28.0914 31.1682 28.3546 31.6232 29.0896C32.0768 29.8232 32.0432 31.4794 31.549 32.7688C30.7748 34.7862 30.4682 34.8254 29.3468 33.0516C28.385 31.5312 28.0378 31.4724 28.021 32.8234C28.0098 33.8314 27.37 34.2668 26.6 33.7908C25.83 33.3148 25.2 33.5934 25.2 34.4082C25.2 35.223 24.57 35.8908 23.8 35.8908C22.9642 35.8908 22.4 30.512 22.4 22.5558C22.4 9.30477 22.4238 9.21237 26.25 7.72557C28.3668 6.90377 33.88 5.39457 38.5 4.37117C43.12 3.34917 50.7374 2.46297 55.426 2.40137C60.116 2.34117 68.8674 3.54797 74.8748 5.08377ZM72.2428 11.64C73.3194 12.053 74.2 13.74 74.2 15.3906C74.2 18.3096 73.6876 18.3908 55.3 18.3908C36.7486 18.3908 36.4 18.3334 36.4 15.3038C36.4 12.823 37.4304 12.0502 41.65 11.3614C44.5382 10.8896 47.845 10.2708 49 9.98657C50.155 9.70237 55.4176 9.78777 60.6928 10.1784C65.9694 10.569 71.1676 11.227 72.2428 11.64ZM35 18.2886C35 19.3862 36.1032 20.5734 37.45 20.9262C38.9578 21.3196 38.4188 21.629 36.05 21.7284C33.0792 21.8544 32.2 21.251 32.2 19.0908C32.2 17.5508 32.83 16.2908 33.6 16.2908C34.37 16.2908 35 17.1896 35 18.2886ZM78.8424 17.3408C79.1756 17.919 79.0566 19.4072 78.575 20.649C77.9478 22.266 76.9048 22.5922 74.9 21.797C73.36 21.1866 72.8882 20.6434 73.85 20.5888C74.8132 20.5356 75.6 19.5458 75.6 18.3908C75.6 17.2358 76.1922 16.2908 76.9174 16.2908C77.6426 16.2908 78.5078 16.7626 78.8424 17.3408ZM53.2 22.4676C53.2 24.9274 52.535 25.7156 50.75 25.374C49.4032 25.1164 47.8282 24.8574 47.25 24.7986C46.6718 24.7384 46.2 23.7892 46.2 22.6888C46.2 21.587 47.6182 20.4124 49.35 20.0792C51.0818 19.7446 52.6568 19.3862 52.85 19.2812C53.0432 19.1762 53.2 20.6098 53.2 22.4676ZM60.3106 20.8408C60.3988 22.231 60.5668 22.2296 61.1296 20.8324C61.5202 19.865 62.4148 19.4296 63.119 19.865C63.8232 20.3004 64.4 21.7998 64.4 23.1984C64.4 24.9764 63.3486 25.7408 60.9 25.7408C58.6432 25.7408 57.365 24.933 57.302 23.4658C57.2264 21.72 56.924 21.8418 56 23.9908C54.9332 26.4716 54.7862 26.3526 54.698 22.9408C54.6224 19.991 55.2552 19.0908 57.4 19.0908C58.94 19.0908 60.2504 19.879 60.3106 20.8408ZM42.252 30.2908C43.0304 32.01 43.2208 31.9456 43.302 29.9408C43.3608 28.4568 44.5046 27.4908 46.2 27.4908C48.0662 27.4908 49 28.4246 49 30.2908C49 31.8308 48.37 33.0908 47.6 33.0908C46.83 33.0908 46.1272 31.9876 46.0376 30.6408C45.8836 28.3224 45.8402 28.3238 45.2326 30.6548C44.7762 32.4006 43.3958 33.0278 40.495 32.8066C38.2424 32.6358 36.3552 31.842 36.302 31.0426C36.2474 30.2446 35.6622 30.8508 35 32.3908C33.9276 34.887 33.7862 34.7806 33.698 31.4066C33.6126 28.1222 34.1082 27.6602 37.45 27.9066C39.5668 28.0634 41.7284 29.1358 42.252 30.2908ZM75.6 29.3486C75.6 30.0556 76.4204 29.9534 77.4228 29.1204C78.4252 28.2888 80.6302 27.9696 82.3228 28.412C84.0154 28.8558 85.3902 29.616 85.379 30.1046C85.3664 30.5918 84.7462 31.9358 84 33.0908C82.8702 34.838 82.621 34.7204 82.5104 32.3908C82.439 30.8508 82.061 30.379 81.6732 31.3408C81.2294 32.4384 78.1396 33.0908 73.3838 33.0908C68.3088 33.0908 65.7636 32.5112 65.6894 31.3408C65.611 30.0976 65.359 30.1438 64.82 31.499C64.1788 33.1104 63.8722 33.1104 62.8516 31.499C61.9668 30.1018 61.6378 30.0598 61.621 31.3408C61.6084 32.4034 59.675 33.0908 56.7 33.0908C52.8066 33.0908 51.8 32.5406 51.8 30.4112C51.8 27.9668 52.8528 27.7456 63.7 27.8968C70.245 27.9878 75.6 28.6416 75.6 29.3486ZM57.75 40.7908C57.5568 41.5608 56.665 42.1908 55.7662 42.1908C54.8688 42.1908 53.8972 42.8992 53.6088 43.7658C53.3106 44.659 54.6322 45.3408 56.6594 45.3408C59.255 45.3408 60.4632 44.4294 61.0694 42.0158C61.5286 40.1874 62.3504 38.6908 62.8978 38.6908C63.4452 38.6908 64.911 40.7376 66.157 43.2408L68.4208 47.7908L68.5104 43.2408C68.5692 40.2546 69.293 38.6908 70.6174 38.6908C71.7276 38.6908 73.066 39.388 73.5924 40.2406C74.2672 41.3312 74.8804 41.2542 75.6686 39.9802C76.5814 38.5032 77.1918 38.5074 78.9936 40.0026C80.4706 41.2276 81.2 41.3144 81.2 40.2616C81.2 39.3978 81.83 38.6908 82.6 38.6908C83.37 38.6908 84 40.8496 84 43.4886V48.2878L67.5682 48.0386C52.9424 47.8174 51.0832 47.5122 50.6492 45.2596C50.3818 43.8666 50.5288 41.775 50.9754 40.6102C51.4514 39.3698 53.0922 38.6796 54.9444 38.9428C56.679 39.1892 57.9432 40.0208 57.75 40.7908ZM88.2 43.5908C88.2 46.2858 87.57 48.4908 86.8 48.4908C86.03 48.4908 85.4 46.2858 85.4 43.5908C85.4 40.8958 86.03 38.6908 86.8 38.6908C87.57 38.6908 88.2 40.8958 88.2 43.5908ZM92.4 40.2616C92.4 41.3368 93.0748 41.2738 94.5336 40.0628C95.7068 39.0884 96.957 38.5802 97.3098 38.933C97.6626 39.2872 97.1936 41.5818 96.2682 44.0332C95.3428 46.4846 94.0786 48.4908 93.4584 48.4908C92.8382 48.4908 91.7168 46.8752 90.965 44.8998C90.2146 42.9244 89.6 40.7194 89.6 39.9998C89.6 39.2802 90.23 38.6908 91 38.6908C91.77 38.6908 92.4 39.3978 92.4 40.2616ZM18.2 43.5082C18.2 44.708 18.83 45.6908 19.6 45.6908C20.37 45.6908 21 45.0986 21 44.3734C21 43.6482 20.37 42.6668 19.6 42.1908C18.83 41.7148 18.2 42.3084 18.2 43.5082ZM0 44.2908C0 45.0608 0.6678 45.6908 1.4826 45.6908C2.2974 45.6908 2.576 45.0608 2.1 44.2908C1.624 43.5208 0.9576 42.8908 0.6174 42.8908C0.2772 42.8908 0 43.5208 0 44.2908ZM74.3106 45.107C74.3778 46.738 74.7096 47.0698 75.1562 45.954C75.5608 44.9432 75.5104 43.735 75.0456 43.2702C74.5808 42.8054 74.2504 43.6314 74.3106 45.107ZM63 55.1408C63 58.827 62.7032 58.9908 56 58.9908C49.2968 58.9908 49 58.827 49 55.1408C49 51.4546 49.2968 51.2908 56 51.2908C62.7032 51.2908 63 51.4546 63 55.1408ZM50.0192 62.67C51.177 63.8278 51.1854 64.9128 50.0542 66.7244C48.7186 68.8636 48.2384 68.9294 46.5178 67.2088C45.423 66.114 44.884 64.2898 45.3194 63.1544C45.7562 62.019 46.6354 61.0908 47.2766 61.0908C47.9164 61.0908 49.1512 61.802 50.0192 62.67ZM56.5012 66.597C56.2002 66.9316 55.2622 66.513 54.418 65.6688C53.5752 64.826 53.3792 63.3336 53.984 62.3564C54.796 61.0418 55.3392 61.284 56.0658 63.2832C56.6062 64.7728 56.8022 66.2638 56.5012 66.597ZM72.548 64.9548C72.8826 67.2998 72.2932 68.0908 70.2142 68.0908C68.684 68.0908 67.158 67.304 66.8234 66.3408C66.4874 65.379 66.514 63.7718 66.8822 62.7722C67.2504 61.7712 68.5762 61.1482 69.8264 61.3862C71.0766 61.6242 72.3016 63.23 72.548 64.9548ZM58.4752 71.8918C56.371 72.211 52.591 72.2166 50.0752 71.9058C47.5594 71.5936 49.28 71.3318 53.9 71.3248C58.52 71.3164 60.5794 71.5712 58.4752 71.8918ZM59.3852 74.5406C60.7656 75.0698 61.6 77.076 61.6 79.8606C61.6 82.319 62.356 85.0868 63.28 86.0108C64.5862 87.317 64.5862 87.6908 63.28 87.6908C62.356 87.6908 61.6 87.0608 61.6 86.2908C61.6 85.5208 60.97 84.8908 60.2 84.8908C59.43 84.8908 58.8 85.7308 58.8 86.757C58.8 87.828 57.4574 88.5238 55.65 88.3908C53.9182 88.2634 52.5448 87.5816 52.5994 86.8746C52.6554 86.169 51.8672 84.7578 50.8494 83.7414C49.833 82.7236 49 80.7076 49 79.26C49 77.8138 50.1032 75.9882 51.45 75.2028C52.7968 74.4174 54.6364 73.7566 55.5352 73.7328C56.4354 73.7104 58.1672 74.073 59.3852 74.5406Z"/>
</mask>
<path fill-rule="evenodd" clip-rule="evenodd" d="M38.0744 0.789973C35.5306 1.43817 30.6474 3.03837 27.2244 4.34457L21 6.72177V21.307V35.8908H10.5C2.4108 35.8908 0 36.343 0 37.8592C0 39.108 0.9786 39.5728 2.6726 39.1304C4.4674 38.66 5.5636 39.2788 6.0102 41.0106C6.6066 43.3248 6.692 43.3388 6.8376 41.1408C6.9286 39.7744 8.1158 38.6908 9.52 38.6908C10.906 38.6908 12.7246 39.3754 13.5618 40.2126C14.658 41.3088 15.3468 41.3088 16.0244 40.2126C16.5424 39.3754 18.1566 38.6908 19.6126 38.6908C21.07 38.6908 22.9026 39.794 23.688 41.1408C24.9718 43.3444 25.1188 43.357 25.158 41.2626C25.193 39.3166 26.7848 38.9442 34.8698 38.9848C44.1756 39.031 44.5648 39.171 45.241 42.7032C45.626 44.7234 45.6484 46.8514 45.2886 47.4324C44.9288 48.0148 43.4126 48.4908 41.9174 48.4908C40.4222 48.4908 39.2 47.9126 39.2 47.207C39.2 46.5014 39.8986 45.6908 40.754 45.4066C41.7256 45.0818 41.4638 44.1886 40.054 43.0182C38.08 41.3802 37.8 41.6028 37.8 44.82C37.8 47.1496 37.0328 48.4908 35.7 48.4908C34.3476 48.4908 33.593 47.1202 33.579 44.6408C33.5636 41.8394 33.2178 41.3284 32.3078 42.7634C31.6218 43.8484 31.353 45.5032 31.7128 46.4384C32.1202 47.501 31.0198 48.1408 28.7826 48.1408C26.4264 48.1408 25.186 47.3624 25.158 45.8658C25.1202 43.875 24.9368 43.896 23.688 46.0408C22.9026 47.389 21.1092 48.4908 19.7022 48.4908C18.2938 48.4908 16.3114 47.4884 15.295 46.2648C13.6094 44.2334 13.2986 44.2418 11.753 46.3558C10.8206 47.6298 9.212 48.5566 8.1788 48.4166C7.1456 48.2752 4.8832 48.2332 3.15 48.3256C1.4168 48.4166 0 49.1208 0 49.8908C0 50.7686 8.8662 51.2908 23.8 51.2908C44.0216 51.2908 47.6 51.6058 47.6 53.3908C47.6 54.9056 46.1356 55.4572 42.35 55.3732C39.4632 55.3074 33.4082 54.795 28.8946 54.2322L20.6906 53.2088L21.5166 59.2414C21.9716 62.5594 23.8868 68.3176 25.7726 72.0388C27.6584 75.76 32.9 82.2224 37.4206 86.3972C41.9426 90.5734 47.9724 95.2368 50.8228 96.76L56.0042 99.5306L62.5198 96.06C66.1038 94.1518 72.2736 89.4408 76.2314 85.5908C80.1878 81.7408 84.8022 75.6326 86.4836 72.0178C88.1664 68.4016 89.9514 62.8898 90.4498 59.7678C91.0602 55.9514 90.8404 54.0908 89.7792 54.0908C88.893 54.0908 88.186 56.3952 88.1692 59.3408C88.1524 62.229 86.9148 67.2872 85.4182 70.5842C83.923 73.8798 79.632 79.5638 75.8828 83.215C72.135 86.8662 66.1276 91.4134 62.5338 93.3202L56 96.7866L49.35 93.2964C45.6932 91.377 39.8454 86.967 36.3552 83.4978C32.8664 80.0286 28.7056 74.3558 27.1096 70.8908C25.515 67.4258 23.8182 62.544 23.3394 60.0408C22.862 57.5376 23.0146 55.4908 23.6796 55.4908C24.3446 55.4908 25.326 57.8246 25.8608 60.675C26.3956 63.5268 27.9818 68.1104 29.3846 70.86C30.7874 73.6096 35.112 78.8316 38.9942 82.4632C42.8778 86.0948 48.2916 90.1338 51.0272 91.4386C55.7004 93.666 56.2996 93.666 60.9728 91.4386C63.7084 90.1338 69.1222 86.0948 73.0058 82.4632C76.888 78.8316 81.249 73.5396 82.6952 70.7032C84.1428 67.8682 85.7458 62.9192 86.2596 59.7062L87.1948 53.864L75.7974 54.858C65.7916 55.7316 64.4 55.5734 64.4 53.5714C64.4 51.554 67.1398 51.2908 88.2 51.2908C103.134 51.2908 112 50.7686 112 49.8908C112 49.1208 109.638 48.3914 106.75 48.2696C103.863 48.1464 100.398 48.1394 99.05 48.2528C97.7018 48.3648 96.6 48.2444 96.6 47.9826C96.6 47.7222 97.2916 45.5242 98.1372 43.0994C98.9828 40.6746 100.23 38.6908 100.911 38.6908C101.59 38.6908 102.592 40.4226 103.137 42.5408L104.126 46.3908L104.952 42.9944C105.406 41.1268 106.547 39.3418 107.489 39.0282C108.542 38.6768 109.2 39.8472 109.2 42.0746C109.2 44.0626 109.83 45.6908 110.6 45.6908C111.37 45.6908 112 43.4858 112 40.7908V35.8908H101.5H91V21.3196V6.74837L82.25 3.66277C75.8142 1.39337 69.4288 0.449774 58.1 0.0941736C49.63 -0.170426 40.6182 0.141773 38.0744 0.789973ZM74.8748 5.08377C80.8822 6.62097 86.653 8.58797 87.6988 9.45597C89.0386 10.5676 89.6 14.7004 89.6 23.4616C89.6 30.8144 89.0288 35.8908 88.2 35.8908C87.3712 35.8908 86.8 30.771 86.8 23.33V10.7692L78.75 8.27997C72.8182 6.44597 66.2802 5.81737 53.9 5.89157C42.4424 5.96017 35.3192 6.67137 31.5 8.12737L25.9 10.2624L25.4814 19.7572C25.0866 28.7312 25.221 29.2114 27.93 28.503C29.5078 28.0914 31.1682 28.3546 31.6232 29.0896C32.0768 29.8232 32.0432 31.4794 31.549 32.7688C30.7748 34.7862 30.4682 34.8254 29.3468 33.0516C28.385 31.5312 28.0378 31.4724 28.021 32.8234C28.0098 33.8314 27.37 34.2668 26.6 33.7908C25.83 33.3148 25.2 33.5934 25.2 34.4082C25.2 35.223 24.57 35.8908 23.8 35.8908C22.9642 35.8908 22.4 30.512 22.4 22.5558C22.4 9.30477 22.4238 9.21237 26.25 7.72557C28.3668 6.90377 33.88 5.39457 38.5 4.37117C43.12 3.34917 50.7374 2.46297 55.426 2.40137C60.116 2.34117 68.8674 3.54797 74.8748 5.08377ZM72.2428 11.64C73.3194 12.053 74.2 13.74 74.2 15.3906C74.2 18.3096 73.6876 18.3908 55.3 18.3908C36.7486 18.3908 36.4 18.3334 36.4 15.3038C36.4 12.823 37.4304 12.0502 41.65 11.3614C44.5382 10.8896 47.845 10.2708 49 9.98657C50.155 9.70237 55.4176 9.78777 60.6928 10.1784C65.9694 10.569 71.1676 11.227 72.2428 11.64ZM35 18.2886C35 19.3862 36.1032 20.5734 37.45 20.9262C38.9578 21.3196 38.4188 21.629 36.05 21.7284C33.0792 21.8544 32.2 21.251 32.2 19.0908C32.2 17.5508 32.83 16.2908 33.6 16.2908C34.37 16.2908 35 17.1896 35 18.2886ZM78.8424 17.3408C79.1756 17.919 79.0566 19.4072 78.575 20.649C77.9478 22.266 76.9048 22.5922 74.9 21.797C73.36 21.1866 72.8882 20.6434 73.85 20.5888C74.8132 20.5356 75.6 19.5458 75.6 18.3908C75.6 17.2358 76.1922 16.2908 76.9174 16.2908C77.6426 16.2908 78.5078 16.7626 78.8424 17.3408ZM53.2 22.4676C53.2 24.9274 52.535 25.7156 50.75 25.374C49.4032 25.1164 47.8282 24.8574 47.25 24.7986C46.6718 24.7384 46.2 23.7892 46.2 22.6888C46.2 21.587 47.6182 20.4124 49.35 20.0792C51.0818 19.7446 52.6568 19.3862 52.85 19.2812C53.0432 19.1762 53.2 20.6098 53.2 22.4676ZM60.3106 20.8408C60.3988 22.231 60.5668 22.2296 61.1296 20.8324C61.5202 19.865 62.4148 19.4296 63.119 19.865C63.8232 20.3004 64.4 21.7998 64.4 23.1984C64.4 24.9764 63.3486 25.7408 60.9 25.7408C58.6432 25.7408 57.365 24.933 57.302 23.4658C57.2264 21.72 56.924 21.8418 56 23.9908C54.9332 26.4716 54.7862 26.3526 54.698 22.9408C54.6224 19.991 55.2552 19.0908 57.4 19.0908C58.94 19.0908 60.2504 19.879 60.3106 20.8408ZM42.252 30.2908C43.0304 32.01 43.2208 31.9456 43.302 29.9408C43.3608 28.4568 44.5046 27.4908 46.2 27.4908C48.0662 27.4908 49 28.4246 49 30.2908C49 31.8308 48.37 33.0908 47.6 33.0908C46.83 33.0908 46.1272 31.9876 46.0376 30.6408C45.8836 28.3224 45.8402 28.3238 45.2326 30.6548C44.7762 32.4006 43.3958 33.0278 40.495 32.8066C38.2424 32.6358 36.3552 31.842 36.302 31.0426C36.2474 30.2446 35.6622 30.8508 35 32.3908C33.9276 34.887 33.7862 34.7806 33.698 31.4066C33.6126 28.1222 34.1082 27.6602 37.45 27.9066C39.5668 28.0634 41.7284 29.1358 42.252 30.2908ZM75.6 29.3486C75.6 30.0556 76.4204 29.9534 77.4228 29.1204C78.4252 28.2888 80.6302 27.9696 82.3228 28.412C84.0154 28.8558 85.3902 29.616 85.379 30.1046C85.3664 30.5918 84.7462 31.9358 84 33.0908C82.8702 34.838 82.621 34.7204 82.5104 32.3908C82.439 30.8508 82.061 30.379 81.6732 31.3408C81.2294 32.4384 78.1396 33.0908 73.3838 33.0908C68.3088 33.0908 65.7636 32.5112 65.6894 31.3408C65.611 30.0976 65.359 30.1438 64.82 31.499C64.1788 33.1104 63.8722 33.1104 62.8516 31.499C61.9668 30.1018 61.6378 30.0598 61.621 31.3408C61.6084 32.4034 59.675 33.0908 56.7 33.0908C52.8066 33.0908 51.8 32.5406 51.8 30.4112C51.8 27.9668 52.8528 27.7456 63.7 27.8968C70.245 27.9878 75.6 28.6416 75.6 29.3486ZM57.75 40.7908C57.5568 41.5608 56.665 42.1908 55.7662 42.1908C54.8688 42.1908 53.8972 42.8992 53.6088 43.7658C53.3106 44.659 54.6322 45.3408 56.6594 45.3408C59.255 45.3408 60.4632 44.4294 61.0694 42.0158C61.5286 40.1874 62.3504 38.6908 62.8978 38.6908C63.4452 38.6908 64.911 40.7376 66.157 43.2408L68.4208 47.7908L68.5104 43.2408C68.5692 40.2546 69.293 38.6908 70.6174 38.6908C71.7276 38.6908 73.066 39.388 73.5924 40.2406C74.2672 41.3312 74.8804 41.2542 75.6686 39.9802C76.5814 38.5032 77.1918 38.5074 78.9936 40.0026C80.4706 41.2276 81.2 41.3144 81.2 40.2616C81.2 39.3978 81.83 38.6908 82.6 38.6908C83.37 38.6908 84 40.8496 84 43.4886V48.2878L67.5682 48.0386C52.9424 47.8174 51.0832 47.5122 50.6492 45.2596C50.3818 43.8666 50.5288 41.775 50.9754 40.6102C51.4514 39.3698 53.0922 38.6796 54.9444 38.9428C56.679 39.1892 57.9432 40.0208 57.75 40.7908ZM88.2 43.5908C88.2 46.2858 87.57 48.4908 86.8 48.4908C86.03 48.4908 85.4 46.2858 85.4 43.5908C85.4 40.8958 86.03 38.6908 86.8 38.6908C87.57 38.6908 88.2 40.8958 88.2 43.5908ZM92.4 40.2616C92.4 41.3368 93.0748 41.2738 94.5336 40.0628C95.7068 39.0884 96.957 38.5802 97.3098 38.933C97.6626 39.2872 97.1936 41.5818 96.2682 44.0332C95.3428 46.4846 94.0786 48.4908 93.4584 48.4908C92.8382 48.4908 91.7168 46.8752 90.965 44.8998C90.2146 42.9244 89.6 40.7194 89.6 39.9998C89.6 39.2802 90.23 38.6908 91 38.6908C91.77 38.6908 92.4 39.3978 92.4 40.2616ZM18.2 43.5082C18.2 44.708 18.83 45.6908 19.6 45.6908C20.37 45.6908 21 45.0986 21 44.3734C21 43.6482 20.37 42.6668 19.6 42.1908C18.83 41.7148 18.2 42.3084 18.2 43.5082ZM0 44.2908C0 45.0608 0.6678 45.6908 1.4826 45.6908C2.2974 45.6908 2.576 45.0608 2.1 44.2908C1.624 43.5208 0.9576 42.8908 0.6174 42.8908C0.2772 42.8908 0 43.5208 0 44.2908ZM74.3106 45.107C74.3778 46.738 74.7096 47.0698 75.1562 45.954C75.5608 44.9432 75.5104 43.735 75.0456 43.2702C74.5808 42.8054 74.2504 43.6314 74.3106 45.107ZM63 55.1408C63 58.827 62.7032 58.9908 56 58.9908C49.2968 58.9908 49 58.827 49 55.1408C49 51.4546 49.2968 51.2908 56 51.2908C62.7032 51.2908 63 51.4546 63 55.1408ZM50.0192 62.67C51.177 63.8278 51.1854 64.9128 50.0542 66.7244C48.7186 68.8636 48.2384 68.9294 46.5178 67.2088C45.423 66.114 44.884 64.2898 45.3194 63.1544C45.7562 62.019 46.6354 61.0908 47.2766 61.0908C47.9164 61.0908 49.1512 61.802 50.0192 62.67ZM56.5012 66.597C56.2002 66.9316 55.2622 66.513 54.418 65.6688C53.5752 64.826 53.3792 63.3336 53.984 62.3564C54.796 61.0418 55.3392 61.284 56.0658 63.2832C56.6062 64.7728 56.8022 66.2638 56.5012 66.597ZM72.548 64.9548C72.8826 67.2998 72.2932 68.0908 70.2142 68.0908C68.684 68.0908 67.158 67.304 66.8234 66.3408C66.4874 65.379 66.514 63.7718 66.8822 62.7722C67.2504 61.7712 68.5762 61.1482 69.8264 61.3862C71.0766 61.6242 72.3016 63.23 72.548 64.9548ZM58.4752 71.8918C56.371 72.211 52.591 72.2166 50.0752 71.9058C47.5594 71.5936 49.28 71.3318 53.9 71.3248C58.52 71.3164 60.5794 71.5712 58.4752 71.8918ZM59.3852 74.5406C60.7656 75.0698 61.6 77.076 61.6 79.8606C61.6 82.319 62.356 85.0868 63.28 86.0108C64.5862 87.317 64.5862 87.6908 63.28 87.6908C62.356 87.6908 61.6 87.0608 61.6 86.2908C61.6 85.5208 60.97 84.8908 60.2 84.8908C59.43 84.8908 58.8 85.7308 58.8 86.757C58.8 87.828 57.4574 88.5238 55.65 88.3908C53.9182 88.2634 52.5448 87.5816 52.5994 86.8746C52.6554 86.169 51.8672 84.7578 50.8494 83.7414C49.833 82.7236 49 80.7076 49 79.26C49 77.8138 50.1032 75.9882 51.45 75.2028C52.7968 74.4174 54.6364 73.7566 55.5352 73.7328C56.4354 73.7104 58.1672 74.073 59.3852 74.5406Z" fill="#3F6A7B" stroke="#0A4258" stroke-width="10" mask="url(#path-1-inside-1)"/>
</svg>
