<svg width="1920" height="1080" viewBox="0 0 1920 1080" fill="none" xmlns="http://www.w3.org/2000/svg">
<path d="M191.018 542.103C189.031 544.188 185.73 544.267 183.644 542.28L171.792 530.981C169.707 528.993 169.628 525.692 171.616 523.607C173.604 521.522 176.905 521.443 178.99 523.431L190.842 534.729C192.927 536.717 193.006 540.018 191.018 542.103Z" fill="#FF2A6B"/>
<path d="M173.661 493.508C168.386 479.221 171.228 457.211 182.266 448.84C193.327 440.49 201.441 453.336 196.103 457.003C191.629 460.07 186.109 468.716 186.987 472.234C187.864 475.752 189.677 477.103 194.113 472.45C198.548 467.797 199.925 467.979 198.216 470.958C196.508 473.98 209.486 462.388 219.939 454.631C230.435 446.873 248.987 446.837 241.258 453.714C233.509 460.613 222.605 469.238 216.789 474.503C210.996 479.789 216.702 481.626 222.825 476.654C230.253 470.664 236.217 466.253 243.388 461.149C250.579 456.022 268.027 459.165 260.5 465.48C252.95 471.773 237.652 485.007 234.169 488.222C230.686 491.48 237.151 497.223 242.766 492.564C248.381 487.904 259.858 479.908 263.526 477.247C267.217 474.606 277.625 480.255 268.547 488.987C259.49 497.697 249.804 507.023 247.304 509.249C245.814 510.593 247.602 514.518 252.158 511.321C253.698 510.233 262.391 502.432 264.03 501.021C268.087 497.556 273.815 502.095 268.793 507.363C263.772 512.63 239.804 533.729 229.242 538.743C218.702 543.735 210.723 541.03 207.556 540.441C204.389 539.852 204.821 532.807 195.522 525.115C186.222 517.423 178.327 508.346 178.327 508.346L173.661 493.508Z" fill="#FF2A6B"/>
<path d="M177.339 557.722L156.51 537.865C151.199 532.802 151.019 524.377 156.061 519.087L164.054 510.703C169.118 505.391 177.543 505.212 182.832 510.254L203.661 530.111C208.973 535.174 209.153 543.599 204.11 548.888L196.117 557.273C191.054 562.584 182.651 562.785 177.339 557.722ZM178.208 515.105C175.574 512.594 171.416 512.693 168.905 515.327L160.912 523.711C158.401 526.345 158.501 530.504 161.134 533.015L181.964 552.871C184.597 555.382 188.756 555.282 191.267 552.649L199.26 544.264C201.77 541.63 201.671 537.472 199.037 534.961L178.208 515.105Z" fill="black"/>
<path d="M169.768 512.583C169.505 512.332 169.261 512.016 169.082 511.677C158.615 491.058 155.901 472.592 161.135 458.268C164.719 448.488 172.026 441.042 182.24 436.744C189.948 433.493 197.566 434.555 203.093 439.656C206.383 442.709 208.452 446.735 208.999 450.775C213.788 446.543 218.781 442.756 223.399 440.329C241.532 430.844 260.597 441.52 271.482 456.338C283.389 472.59 287.778 496.507 270.83 513.363C252.414 531.67 233.424 542.976 224.941 544.316C216.587 545.652 204.262 543.287 203.723 543.193C201.914 542.85 200.713 541.077 201.056 539.267C201.399 537.458 203.172 536.257 204.981 536.6C205.089 536.619 216.681 538.83 223.86 537.671C230.078 536.686 247.772 526.783 266.083 508.586C280.224 494.543 276.263 474.176 266.064 460.264C256.907 447.764 241.116 438.576 226.499 446.217C212.455 453.567 194.592 475.249 193.333 478.196C192.468 480.597 190.658 481.134 189.888 481.238C188.264 481.491 186.681 480.779 185.53 479.262C183.295 476.377 182.421 470.349 185.024 464.367C188.298 456.89 197.758 454.261 202.413 453.378C202.576 450.35 201.163 446.866 198.554 444.505C196.471 442.603 191.944 439.837 184.83 442.817C176.23 446.433 170.366 452.364 167.407 460.478C162.817 473.027 165.445 489.651 175.034 508.554C175.889 510.206 175.208 512.239 173.554 513.05C172.286 513.81 170.778 513.546 169.768 512.583ZM198 461.698C195.09 462.861 192.322 464.622 191.203 467.158C190.572 468.567 190.302 469.861 190.202 471.021C192.155 468.401 194.844 465.141 198 461.698Z" fill="black"/>
<path d="M182.397 544.024L169.908 532.119C167.274 529.608 167.174 525.407 169.685 522.773C172.196 520.139 176.397 520.039 179.031 522.549L191.519 534.455C194.153 536.966 194.254 541.167 191.743 543.801C189.21 546.414 185.031 546.535 182.397 544.024ZM175.934 525.798C175.078 524.982 173.728 525.035 172.933 525.869C172.117 526.725 172.171 528.075 173.005 528.87L185.494 540.776C186.35 541.592 187.699 541.538 188.495 540.704C189.311 539.848 189.257 538.498 188.423 537.703L175.934 525.798Z" fill="black"/>
<path d="M235.476 550.928C235.279 550.739 235.123 550.507 234.988 550.253C234.468 549.129 234.973 547.808 236.097 547.288C237.116 546.835 238.154 546.317 239.171 545.778C240.251 545.216 241.612 545.633 242.196 546.735C242.759 547.815 242.341 549.176 241.239 549.76C240.138 550.344 239.056 550.864 237.953 551.362C237.104 551.725 236.113 551.534 235.476 550.928Z" fill="black"/>
<path d="M251.461 541.408C251.351 541.303 251.263 541.22 251.174 541.093C250.464 540.081 250.688 538.702 251.701 537.992C263.49 529.624 273.407 520.057 273.511 519.947C274.413 519.089 275.828 519.055 276.687 520C277.545 520.902 277.514 522.297 276.655 523.154C276.55 523.263 266.425 533.05 254.318 541.618C253.41 542.219 252.207 542.119 251.461 541.408Z" fill="black"/>
<path d="M261.1 439.491C260.31 438.738 260.173 437.476 260.837 436.559C261.564 435.577 262.953 435.351 263.979 436.077C264.699 436.596 265.398 437.137 266.098 437.72C267.039 438.492 267.202 439.903 266.43 440.844C265.638 441.807 264.248 441.947 263.286 441.198C262.63 440.656 261.974 440.157 261.32 439.701C261.254 439.638 261.166 439.554 261.1 439.491Z" fill="black"/>
<path d="M229.22 431.889C228.956 431.638 228.756 431.321 228.618 430.938C228.246 429.746 228.903 428.529 230.074 428.136C230.499 427.998 240.763 424.878 254.022 430.438C255.17 430.904 255.695 432.243 255.207 433.37C254.719 434.496 253.403 435.043 252.276 434.555C240.598 429.665 231.483 432.371 231.398 432.416C230.632 432.649 229.768 432.412 229.22 431.889Z" fill="black"/>
<path d="M178.986 514.292C178.767 514.083 178.589 513.83 178.453 513.533C167.399 487.159 166.046 467.351 174.494 454.667C183.335 441.393 199.439 441.244 200.104 441.25C201.326 441.242 202.337 442.247 202.324 443.492C202.331 444.714 201.326 445.725 200.104 445.732C199.975 445.735 185.652 445.906 178.2 457.195C170.686 468.549 172.155 486.916 182.573 511.804C183.05 512.93 182.503 514.251 181.377 514.729C180.55 515.113 179.623 514.899 178.986 514.292Z" fill="black"/>
<path d="M249.057 507.148C248.947 507.043 248.838 506.939 248.749 506.812C248.038 505.8 248.284 504.4 249.296 503.689C256.089 498.937 274.371 481.341 274.56 481.187C275.462 480.329 276.922 480.379 277.715 481.261C278.573 482.163 278.542 483.558 277.64 484.416C276.864 485.142 258.896 502.409 251.851 507.382C250.986 507.981 249.803 507.86 249.057 507.148Z" fill="black"/>
<path d="M234.374 487.746C234.287 487.662 234.199 487.579 234.132 487.473C233.38 486.504 233.56 485.085 234.551 484.353C245.609 475.917 266.397 458.154 266.607 457.978C267.553 457.161 268.951 457.321 269.766 458.224C270.56 459.149 270.465 460.566 269.52 461.383C269.309 461.559 248.438 479.41 237.274 487.913C236.367 488.556 235.143 488.478 234.374 487.746Z" fill="black"/>
<path d="M219.914 472.412C219.87 472.37 219.804 472.307 219.76 472.265C218.944 471.32 219.06 469.923 219.985 469.128C228.811 461.496 250.516 443.519 250.769 443.341C251.716 442.568 253.134 442.705 253.908 443.652C254.681 444.599 254.543 446.018 253.597 446.791C253.386 446.967 231.681 464.902 222.919 472.511C222.035 473.219 220.726 473.186 219.914 472.412Z" fill="black"/>
</svg>
