<svg width="1920" height="1080" viewBox="0 0 1920 1080" fill="none" xmlns="http://www.w3.org/2000/svg">
<g clip-path="url(#clip0)">
<path d="M1438.14 906.783C1435.93 906.971 1433.75 907.001 1431.65 906.874C1416.3 905.946 1405.23 896.598 1398.62 882.503C1397.99 881.168 1395.97 881.715 1396.1 883.184C1397.7 901.207 1390.87 916.107 1374.28 924.069C1372.96 924.702 1373.5 926.703 1374.96 926.585C1393.13 925.108 1406.71 934.464 1414.35 950.708C1414.84 951.731 1415.97 951.43 1415.9 951.422C1416.52 951.254 1416.93 950.664 1416.87 950.024C1416.04 940.807 1417.14 927.682 1427.13 917.49C1430.33 914.237 1434.26 911.481 1438.82 909.3C1439.4 909.024 1439.7 908.375 1439.53 907.757C1439.36 907.139 1438.78 906.729 1438.14 906.783Z" fill="#F4A32C"/>
<path d="M1438.14 906.783C1435.93 906.971 1433.75 907.001 1431.65 906.874C1416.3 905.946 1405.23 896.598 1398.62 882.503C1397.99 881.168 1395.97 881.715 1396.1 883.184C1397.7 901.207 1390.87 916.107 1374.28 924.069C1372.96 924.702 1373.5 926.703 1374.96 926.585C1393.13 925.108 1406.71 934.464 1414.35 950.708C1414.84 951.731 1415.97 951.43 1415.9 951.422C1416.52 951.254 1416.93 950.664 1416.87 950.024C1416.04 940.807 1417.14 927.682 1427.13 917.49C1430.33 914.237 1434.26 911.481 1438.82 909.3C1439.4 909.024 1439.7 908.375 1439.53 907.757C1439.36 907.139 1438.78 906.729 1438.14 906.783Z" fill="#F4A32C"/>
<path d="M1386.3 915.47C1382.88 919.085 1378.77 921.914 1374.28 924.068C1372.96 924.701 1373.5 926.703 1374.96 926.584C1393.13 925.108 1406.71 934.464 1414.35 950.708C1414.84 951.731 1415.97 951.43 1415.9 951.422C1416.52 951.254 1416.93 950.664 1416.87 950.024C1416.41 944.922 1416.55 938.622 1418.45 932.285C1410.44 920.792 1399.56 915.231 1386.3 915.47Z" fill="#E89528"/>
<path d="M1390.91 955.169C1385.48 954.863 1381.19 952.043 1378.2 947.349C1377.66 946.507 1376.7 946.779 1376.74 946.782C1376.18 946.933 1375.78 947.43 1375.76 948.009C1375.54 953.384 1373.32 958.054 1368.72 961.162C1367.67 961.866 1368.11 963.5 1369.37 963.583C1374.88 963.946 1379.16 966.823 1382.08 971.403C1382.62 972.247 1383.59 971.972 1383.55 971.969C1384.11 971.817 1384.5 971.318 1384.52 970.738C1384.67 966.68 1385.93 963.233 1388.27 960.492C1388.27 960.491 1388.27 960.491 1388.27 960.491C1390.83 957.493 1392.54 957.701 1392.11 956.144C1391.96 955.594 1391.48 955.201 1390.91 955.169Z" fill="#F7E7A1"/>
<path d="M1373.07 957.011C1373.03 957.009 1372.99 957.001 1372.95 956.994C1371.82 958.657 1370.38 960.037 1368.71 961.162C1367.67 961.867 1368.11 963.5 1369.37 963.583C1374.87 963.946 1379.16 966.824 1382.08 971.403C1382.62 972.248 1383.58 971.972 1383.55 971.97C1385.35 971.48 1383.81 969.586 1385.72 964.744C1382.77 960.162 1378.48 957.368 1373.07 957.011Z" fill="#EAD786"/>
<path d="M1358.01 901.428C1352.56 901.122 1348.28 898.284 1345.3 893.609C1344.76 892.766 1343.8 893.039 1343.84 893.041C1343.28 893.193 1342.88 893.69 1342.86 894.268C1342.65 899.632 1340.43 904.307 1335.82 907.422C1334.78 908.126 1335.22 909.759 1336.47 909.842C1341.99 910.206 1346.27 913.095 1349.18 917.662C1349.72 918.507 1350.69 918.232 1350.65 918.229C1351.21 918.077 1351.61 917.578 1351.63 916.998C1351.87 910.28 1355.16 907.122 1355.37 906.751C1357.92 903.761 1359.64 903.952 1359.21 902.404C1359.06 901.853 1358.58 901.461 1358.01 901.428Z" fill="#F4D44E"/>
<path d="M1339.75 903.68C1336.98 907.453 1334.83 907.191 1335.28 908.866C1335.43 909.413 1335.91 909.805 1336.47 909.842C1341.99 910.206 1346.27 913.095 1349.18 917.662C1349.72 918.507 1350.69 918.231 1350.65 918.229C1352.36 917.763 1351 915.987 1352.67 911.395C1347.54 903.519 1340.49 903.922 1339.75 903.68Z" fill="#E8C842"/>
</g>
<defs>
<clipPath id="clip0">
<rect width="100.929" height="100.929" fill="white" transform="translate(1330 889.337) rotate(-15.1259)"/>
</clipPath>
</defs>
</svg>
