<svg width="1920" height="1080" viewBox="0 0 1920 1080" fill="none" xmlns="http://www.w3.org/2000/svg">
<path d="M1733.39 946.817C1733.39 946.817 1716.63 966.315 1712.84 970.515C1709.05 974.715 1710.31 981.851 1715.16 980.383C1719.97 978.915 1732.98 960.032 1734.25 957.334C1735.51 954.603 1738.24 947.056 1738.24 947.056L1733.39 946.817Z" fill="#64D1FF"/>
<path d="M1741.8 881.291C1740.12 879.857 1736.78 879.482 1736.98 877.126C1733.67 882.828 1727.8 893.618 1729.2 898.262C1734.87 894.506 1743.98 883.169 1741.8 881.291ZM1738.42 874.189C1737.46 875.418 1737.05 876.374 1736.98 877.126C1738.79 873.95 1739.85 872.345 1738.42 874.189ZM1762.32 859.472C1763.17 858.516 1759.28 856.638 1758.02 857.389C1756.75 858.14 1748.8 862.955 1748.8 862.955C1748.8 862.955 1754.98 868.316 1755.63 868.077C1756.24 867.872 1761.5 860.428 1762.32 859.472ZM1772.94 881.804C1773.89 881.906 1776.18 884.945 1777.04 884.091C1777.89 883.238 1781.85 877.911 1782.6 876.852C1783.35 875.794 1784.89 875.179 1785.33 873.916C1785.74 872.652 1786.29 871.491 1785.33 871.082C1784.38 870.672 1779.36 866.779 1779.05 866.267C1778.74 865.755 1776.97 862.067 1778.64 860.087C1780.31 858.106 1781.78 854.214 1780.62 854.214C1779.46 854.214 1773.89 854.214 1772.97 854.111C1772.02 854.009 1771.09 853.497 1770.34 854.111C1769.63 854.726 1769.83 854.521 1769.63 855.784C1769.42 857.048 1767.95 856.638 1769.73 857.97C1771.5 859.336 1771.91 860.189 1773.42 860.701C1774.88 861.214 1775.5 861.965 1776.15 863.126C1776.76 864.287 1778.13 864.696 1776.76 866.165C1775.4 867.633 1770.99 869.409 1769.42 871.731C1767.85 874.052 1767.85 874.155 1767 875.077C1766.14 876.033 1763.21 876.443 1762.9 875.93C1762.59 875.418 1762.39 874.257 1760.92 872.994C1759.45 871.731 1756.82 870.16 1755.56 870.262C1754.29 870.365 1752.93 869.852 1751.67 871.013C1750.4 872.174 1745.28 882.35 1745.28 882.35C1745.89 883.204 1752.52 887.267 1752.83 889.794C1753.13 892.32 1748.52 900.481 1746.85 901.745C1745.18 903.008 1742.04 905.535 1740.77 904.374C1739.51 903.213 1734.9 898.808 1732.92 898.911C1730.94 899.013 1729.03 898.398 1728.51 900.174C1728 901.95 1728.31 906.901 1728.72 909.701C1729.13 912.535 1731.01 915.267 1731.35 915.471C1731.66 915.676 1736.71 912.637 1736.81 912.33C1736.91 912.023 1740.47 908.232 1741.32 907.413C1742.17 906.593 1744.46 904.374 1745.21 905.842C1745.96 907.311 1750.78 909.94 1751.7 910.554C1752.66 911.169 1755.49 913.798 1756.92 912.125C1758.39 910.452 1761.84 906.047 1763 904.579C1764.16 903.111 1766.66 899.867 1765.43 899.013C1764.16 898.159 1761.77 896.589 1760.71 895.769C1759.66 894.95 1756.62 892.833 1756.21 891.877C1755.8 890.921 1755.49 890.613 1756.1 889.589C1756.72 888.53 1757.57 887.403 1758.63 885.901C1759.69 884.433 1760 883.374 1760.41 882.862C1760.82 882.35 1762.18 880.984 1762.59 880.574C1763 880.165 1766.38 878.15 1766.69 878.047C1767 877.945 1767.75 878.252 1768.57 879.311C1769.35 880.335 1771.98 881.701 1772.94 881.804ZM1759.18 917.247C1758.43 916.632 1753.41 916.632 1751.94 918.613C1750.47 920.593 1748.8 921.549 1748.05 922.164C1747.29 922.779 1745.96 923.427 1745.62 923.632C1745.31 923.837 1745.62 924.247 1744.87 923.837C1744.12 923.427 1740.36 922.676 1740.36 922.266C1740.36 921.857 1738.48 919.637 1737.94 918.92C1737.39 918.203 1736.16 916.94 1735.75 916.94C1735.34 916.94 1731.66 921.447 1731.66 921.447C1732.27 923.427 1735.55 929.608 1736.88 930.359C1738.25 931.11 1738.55 933.091 1739.71 932.544C1740.88 932.032 1743.5 928.652 1743.61 928.344C1743.71 928.037 1744.12 925.92 1744.67 925.92C1745.21 925.92 1748.01 927.286 1748.76 927.593C1749.48 927.901 1754.12 931.247 1754.74 931.247C1755.35 931.247 1758.63 933.022 1758.63 933.022C1758.63 933.022 1761.06 930.188 1762.83 928.208C1764.61 926.227 1765.97 924.315 1766.48 923.803C1767.07 923.325 1759.93 917.896 1759.18 917.247ZM1805.85 887.574C1800.19 884.638 1798.1 880.438 1799.98 879.174C1801.86 877.911 1804.28 876.238 1804.69 874.872C1805.1 873.506 1805.31 872.994 1805.1 871.935C1804.9 870.877 1804.35 869.409 1803.74 868.043C1803.12 866.677 1799.13 862.818 1798.51 862.375C1797.9 861.965 1798 861.965 1796.94 862.067C1795.88 862.17 1795.37 861.965 1794.52 863.228C1793.66 864.492 1792.85 865.653 1792.09 866.472C1791.34 867.326 1791.14 868.043 1790.73 869.101C1790.32 870.16 1789.57 870.774 1789.57 871.731C1789.57 872.687 1789.06 872.584 1789.46 873.506C1789.87 874.462 1783.69 871.731 1790.52 875.487C1797.35 879.277 1798.27 879.789 1798.27 879.789C1798.27 879.789 1797.86 885.457 1797.66 886.072C1797.45 886.686 1796.94 888.291 1796.6 888.701C1796.29 889.111 1790.42 892.15 1790.11 892.696C1789.81 893.208 1789.6 893.55 1789.06 893.755C1788.54 893.959 1788 894.062 1787.18 893.345C1786.32 892.594 1786.12 891.467 1784.75 890.408C1783.39 889.35 1781.41 887.677 1779.94 887.267C1778.47 886.857 1776.15 886.106 1775.84 886.311C1775.53 886.516 1774.99 887.574 1774.27 889.145C1773.55 890.716 1767.99 899.525 1767.99 899.525C1768.84 901.403 1770.17 904.34 1771.23 904.784C1772.29 905.194 1773.96 906.969 1774.68 907.208C1775.43 907.413 1775.84 908.369 1776.46 908.164C1777.07 907.959 1777.17 908.164 1777.62 907.857C1778.06 907.55 1778.47 907.447 1779.29 906.798C1780.14 906.184 1781.06 905.125 1781.82 904.374C1782.53 903.623 1782.43 903.759 1783.69 902.394C1784.96 901.028 1785.06 900.311 1786.22 899.252C1787.38 898.194 1787.18 898.194 1787.89 897.169C1788.65 896.111 1786.94 895.598 1789.16 895.803C1791.34 896.008 1792.3 895.906 1793.56 897.169C1794.83 898.433 1795.13 899.696 1796.81 900.516C1798.48 901.369 1798.79 902.189 1799.95 902.189C1801.11 902.189 1801.21 902.94 1802.68 901.437C1804.15 899.969 1804.66 900.072 1805.41 897.989C1806.13 895.906 1805.72 895.803 1806.88 894.199C1808.04 892.628 1809.51 891.672 1808.35 889.999C1807.19 888.325 1811.49 890.511 1805.85 887.574ZM1799.64 904.681C1798.89 904.989 1796.09 909.291 1795.13 911.067C1794.18 912.842 1794.52 913.047 1792.61 914.515C1790.73 915.984 1789.46 916.496 1789.46 916.496C1788.51 916.496 1788.51 916.086 1786.63 915.676C1784.75 915.267 1783.9 914.618 1782.98 913.491C1782.02 912.33 1779.53 910.554 1778.67 910.35C1777.82 910.145 1777.62 911.067 1776.59 912.023C1775.53 912.979 1772.49 916.428 1772.49 916.428C1771.64 917.793 1767.88 921.686 1768.29 923.564C1768.7 925.442 1768.5 926.193 1769.46 927.354C1770.41 928.515 1773.66 931.554 1774.17 931.657C1774.68 931.759 1776.49 931.964 1776.8 931.964C1777.1 931.964 1776.8 933.125 1777.75 931.964C1778.71 930.803 1779.53 929.983 1781.3 927.559C1783.08 925.135 1783.83 924.52 1785.4 923.052C1786.97 921.584 1788.95 920.525 1789.5 919.603C1790.01 918.647 1791.07 917.93 1791.68 918.545C1792.3 919.159 1794.11 920.627 1794.42 920.627C1794.72 920.627 1796.19 920.115 1796.7 919.671C1797.22 919.262 1798.17 919.057 1799.13 918.51C1800.08 917.998 1800.6 917.247 1801.65 915.164C1802.71 913.081 1807.63 910.862 1804.69 907.618C1801.76 904.34 1800.39 904.34 1799.64 904.681Z" fill="#64D1FF"/>
<path d="M1758.93 954.329C1748.96 954.329 1739.68 951.359 1731.93 945.588C1709.42 928.788 1707.48 893.14 1727.62 866.165C1747.77 839.189 1782.5 830.892 1805 847.692C1827.5 864.492 1829.45 900.14 1809.3 927.115C1799.64 940.091 1786.32 949.173 1771.88 952.725C1767.47 953.817 1763.13 954.329 1758.93 954.329ZM1777.95 846.497C1762.25 846.497 1745.31 855.101 1733.7 870.672C1716.05 894.335 1717.28 925.237 1736.47 939.544C1745.65 946.408 1757.57 948.49 1770.07 945.417C1782.84 942.276 1794.62 934.183 1803.26 922.608C1820.91 898.945 1819.68 868.043 1800.49 853.736C1793.93 848.853 1786.11 846.497 1777.95 846.497Z" fill="black"/>
<path d="M1760.2 942.617C1752.62 942.617 1745.35 940.432 1739.24 935.891C1721.51 922.676 1720.25 894.301 1736.4 872.687C1744.15 862.272 1754.77 854.931 1766.25 851.994C1777.92 849.023 1789.12 850.936 1797.8 857.389C1815.52 870.604 1816.78 898.979 1800.63 920.593C1790.08 934.798 1774.58 942.617 1760.2 942.617ZM1776.83 855.682C1773.79 855.682 1770.68 856.092 1767.51 856.877C1757.13 859.506 1747.53 866.199 1740.43 875.691C1725.95 895.12 1726.74 920.32 1742.24 931.861C1757.74 943.437 1782.12 937.017 1796.6 917.623C1811.08 898.194 1810.29 872.994 1794.79 861.453C1789.7 857.628 1783.52 855.682 1776.83 855.682Z" fill="black"/>
<path d="M1728.58 903.315C1728.04 903.315 1727.45 903.145 1727.01 902.769C1725.92 901.881 1725.75 900.311 1726.64 899.218L1763.44 853.599C1764.33 852.506 1765.9 852.336 1767 853.223C1768.09 854.111 1768.26 855.682 1767.37 856.775L1730.56 902.393C1730.05 902.974 1729.3 903.315 1728.58 903.315Z" fill="black"/>
<path d="M1730.77 923.427C1730.22 923.427 1729.68 923.257 1729.2 922.881C1728.1 922.027 1727.93 920.423 1728.79 919.33L1781.61 852.984C1782.46 851.892 1784.07 851.721 1785.16 852.575C1786.25 853.428 1786.43 855.033 1785.57 856.126L1732.75 922.471C1732.24 923.12 1731.52 923.427 1730.77 923.427Z" fill="black"/>
<path d="M1740.84 935.071C1740.29 935.071 1739.75 934.9 1739.3 934.559C1738.21 933.705 1738.01 932.135 1738.86 931.042L1794.52 859.028C1795.37 857.935 1796.94 857.731 1798.03 858.584C1799.13 859.438 1799.33 861.009 1798.48 862.101L1742.82 934.115C1742.34 934.73 1741.59 935.071 1740.84 935.071Z" fill="black"/>
<path d="M1754.36 942.003C1753.81 942.003 1753.26 941.832 1752.82 941.456C1751.73 940.603 1751.52 939.032 1752.41 937.939L1804.31 871.901C1805.17 870.809 1806.74 870.604 1807.83 871.492C1808.92 872.345 1809.13 873.916 1808.24 875.009L1756.34 941.047C1755.86 941.661 1755.11 942.003 1754.36 942.003Z" fill="black"/>
<path d="M1774.17 939.476C1773.62 939.476 1773.07 939.305 1772.63 938.93C1771.54 938.076 1771.33 936.505 1772.22 935.413L1806.81 891.399C1807.66 890.306 1809.23 890.101 1810.33 890.989C1811.42 891.842 1811.62 893.413 1810.74 894.506L1776.15 938.52C1775.67 939.135 1774.92 939.476 1774.17 939.476Z" fill="black"/>
<path d="M1763.17 942.31C1762.62 942.31 1762.04 942.139 1761.57 941.73L1727.28 913.73C1726.19 912.842 1726.05 911.272 1726.94 910.179C1727.83 909.086 1729.4 908.95 1730.49 909.837L1764.78 937.837C1765.87 938.725 1766.01 940.296 1765.12 941.388C1764.64 942.003 1763.89 942.31 1763.17 942.31Z" fill="black"/>
<path d="M1779.22 936.642C1778.67 936.642 1778.12 936.471 1777.65 936.096L1727.31 896.452C1726.22 895.599 1726.05 894.028 1726.9 892.935C1727.76 891.843 1729.36 891.672 1730.42 892.525L1780.75 932.135C1781.85 932.988 1782.02 934.559 1781.16 935.652C1780.68 936.3 1779.97 936.642 1779.22 936.642Z" fill="black"/>
<path d="M1795.88 925.305C1795.33 925.305 1794.82 925.135 1794.34 924.793L1736.16 880.13C1735.07 879.277 1734.86 877.706 1735.68 876.613C1736.53 875.521 1738.1 875.316 1739.2 876.135L1797.38 920.798C1798.47 921.652 1798.68 923.223 1797.86 924.315C1797.38 924.998 1796.63 925.305 1795.88 925.305Z" fill="black"/>
<path d="M1805.61 908.984C1805.06 908.984 1804.55 908.813 1804.07 908.471L1747.77 865.687C1746.67 864.833 1746.44 863.262 1747.29 862.17C1748.14 861.077 1749.71 860.838 1750.81 861.692L1807.11 904.476C1808.21 905.33 1808.44 906.901 1807.59 907.993C1807.15 908.642 1806.4 908.984 1805.61 908.984Z" fill="black"/>
<path d="M1809.2 891.16C1808.65 891.16 1808.14 890.989 1807.66 890.647L1763.85 857.218C1762.76 856.365 1762.52 854.794 1763.37 853.701C1764.23 852.609 1765.8 852.37 1766.89 853.223L1810.7 886.652C1811.79 887.506 1812.03 889.077 1811.18 890.169C1810.7 890.818 1809.95 891.16 1809.2 891.16Z" fill="black"/>
<path d="M1712.39 986.7C1709.35 986.7 1706.52 985.573 1704.37 983.831C1699.31 979.7 1697.2 971.402 1702.42 964.744C1705.8 960.407 1727.35 938.144 1728.27 937.188C1729.7 935.686 1732.09 935.652 1733.6 937.086C1735.1 938.52 1735.13 940.91 1733.7 942.412C1727.55 948.764 1710.99 966.041 1708.4 969.388C1705.91 972.563 1706.9 976.149 1709.18 977.993C1711.81 980.144 1715.12 979.358 1718.1 975.91C1720.35 973.28 1730.63 955.832 1736.57 945.451C1737.59 943.642 1739.91 943.027 1741.72 944.052C1743.53 945.076 1744.15 947.398 1743.12 949.208C1741.52 952.007 1727.31 976.763 1723.83 980.827C1720.18 985.027 1716.11 986.7 1712.39 986.7Z" fill="black"/>
<path d="M1824.5 922.164C1824.09 922.164 1823.68 922.062 1823.3 921.857C1822.07 921.174 1821.63 919.671 1822.31 918.442C1825.93 911.818 1828.19 904.511 1828.9 896.794C1829.04 895.394 1830.23 894.403 1831.63 894.54C1833.03 894.677 1834.02 895.906 1833.89 897.272C1833.07 905.706 1830.64 913.628 1826.68 920.867C1826.24 921.72 1825.39 922.164 1824.5 922.164Z" fill="black"/>
<path d="M1831.46 888.599C1830.17 888.599 1829.07 887.608 1828.97 886.311C1828.73 883.545 1828.36 881.872 1828.36 881.872C1828.05 880.506 1828.9 879.174 1830.23 878.867C1831.6 878.56 1832.93 879.379 1833.24 880.745C1833.27 880.813 1833.68 882.726 1833.99 885.901C1834.13 887.301 1833.1 888.496 1831.7 888.633C1831.6 888.599 1831.53 888.599 1831.46 888.599Z" fill="black"/>
<path d="M1698.46 961.363C1697.85 961.363 1697.23 961.159 1696.75 960.715C1695.73 959.759 1695.66 958.188 1696.62 957.164C1697.4 956.31 1698.26 955.456 1699.11 954.705C1700.13 953.783 1701.74 953.885 1702.66 954.91C1703.58 955.968 1703.48 957.539 1702.46 958.461C1701.67 959.144 1700.95 959.861 1700.34 960.544C1699.83 961.09 1699.14 961.363 1698.46 961.363Z" fill="black"/>
<path d="M1693.03 979.393C1692.01 979.393 1691.02 978.744 1690.68 977.719C1690.57 977.48 1688.56 971.471 1692.01 963.993C1692.59 962.729 1694.09 962.183 1695.36 962.763C1696.62 963.344 1697.17 964.846 1696.58 966.11C1694.02 971.676 1695.39 975.944 1695.42 976.115C1695.87 977.412 1695.15 978.846 1693.85 979.29C1693.58 979.358 1693.31 979.393 1693.03 979.393Z" fill="black"/>
</svg>
