<svg width="1920" height="1080" viewBox="0 0 1920 1080" fill="none" xmlns="http://www.w3.org/2000/svg">
<path d="M206.125 166.615L164.074 129.961C164.074 129.961 215.136 173.131 199.989 97.5067C199.989 97.5067 262.733 152.682 244.542 71.7839C244.542 71.7839 297.881 123.015 293.402 57.6359L303.734 110.261L206.125 166.615Z" fill="#FEDA38"/>
<path d="M305.015 112.48L207.406 168.834C206.458 169.381 205.267 169.265 204.443 168.546L162.39 131.893C161.33 130.968 161.215 129.362 162.129 128.295C163.054 127.229 164.654 127.098 165.726 128.005C171.046 132.494 186.538 143.113 194.412 138.567L194.475 138.53C199.011 135.851 203.215 126.645 197.478 98.01C197.264 96.9321 197.758 95.838 198.709 95.2891C199.661 94.7395 200.855 94.8589 201.681 95.5835C209.073 102.078 230.289 117.681 239.797 112.191C239.822 112.177 239.845 112.16 239.871 112.145C244.347 109.488 248.357 100.428 242.041 72.3477C241.797 71.2533 242.289 70.1277 243.26 69.5671L243.282 69.5546C244.269 69.0003 245.5 69.1542 246.315 69.938C253.094 76.4412 272.952 92.2571 283.313 87.4141C289.352 84.5589 291.977 74.3437 290.848 57.8121C290.753 56.4638 291.727 55.2719 293.069 55.0961C294.409 54.9218 295.657 55.8162 295.919 57.144L306.249 109.768C306.459 110.844 305.963 111.932 305.015 112.48V112.48ZM206.429 163.483L300.867 108.959L294.897 78.5466C293.263 85.4169 290.142 89.8621 285.479 92.0568C274.001 97.416 257.409 85.9969 248.577 78.7526C252.344 99.5007 250.332 111.895 242.483 116.551C242.44 116.576 242.4 116.602 242.357 116.627C231.313 123.003 213.011 110.994 203.756 103.884C207.263 125.423 205.061 138.229 197.077 142.942C193.337 145.154 188.665 145.188 184.113 144.029L206.429 163.483Z" fill="black"/>
<path d="M206.125 166.615L303.734 110.26L313.98 128.007L216.371 184.362L206.125 166.615Z" fill="#F5564E"/>
<path d="M315.263 130.226L217.654 186.581C216.428 187.289 214.863 186.868 214.155 185.642L203.909 167.895C203.201 166.669 203.62 165.105 204.846 164.397L302.455 108.043C303.681 107.335 305.245 107.754 305.953 108.98L316.199 126.727C316.907 127.953 316.489 129.518 315.263 130.226ZM217.311 180.863L310.482 127.071L302.798 113.761L209.627 167.553L217.311 180.863Z" fill="black"/>
<path d="M203.181 88.5032C204.894 91.471 203.877 95.2652 200.91 96.9786C197.943 98.6913 194.148 97.6754 192.434 94.7077C190.721 91.7399 191.739 87.945 194.705 86.2323C197.673 84.5188 201.467 85.5355 203.181 88.5032Z" fill="#FEDA38"/>
<path d="M202.185 99.1965C198 101.613 192.628 100.173 190.211 95.987C187.794 91.8019 189.234 86.43 193.419 84.0137C197.605 81.5967 202.978 83.0374 205.394 87.2225C207.81 91.4076 206.371 96.7795 202.185 99.1965ZM195.981 88.4514C194.242 89.4554 193.644 91.6879 194.648 93.4269C195.653 95.1672 197.884 95.7641 199.623 94.7601C201.364 93.7553 201.961 91.5236 200.956 89.7846C199.952 88.0443 197.721 87.4466 195.981 88.4514Z" fill="black"/>
<path d="M246.16 63.6888C247.873 66.6565 246.857 70.4508 243.889 72.1642C240.922 73.8769 237.128 72.8602 235.415 69.8925C233.701 66.9247 234.718 63.1305 237.684 61.4178C240.652 59.7044 244.446 60.721 246.16 63.6888Z" fill="#FEDA38"/>
<path d="M245.165 74.3816C240.98 76.7978 235.608 75.3584 233.191 71.1721C230.775 66.987 232.214 61.615 236.399 59.1988C240.586 56.7818 245.958 58.2225 248.375 62.4075C250.791 66.5926 249.351 71.9646 245.165 74.3816V74.3816ZM238.961 63.6364C237.222 64.6405 236.624 66.8729 237.628 68.612C238.633 70.3523 240.865 70.9492 242.604 69.9452C244.344 68.9404 244.943 66.7092 243.938 64.9689C242.934 63.2299 240.702 62.6317 238.961 63.6364Z" fill="black"/>
<path d="M295.343 49.619C297.057 52.5867 296.04 56.3809 293.074 58.0936C290.106 59.8071 286.312 58.7904 284.598 55.8227C282.885 52.8549 283.902 49.0607 286.869 47.3472C289.836 45.6345 293.63 46.6512 295.343 49.619Z" fill="#FEDA38"/>
<path d="M294.353 60.311C290.167 62.7279 284.795 61.2885 282.379 57.1035C279.962 52.9184 281.402 47.5464 285.588 45.1294C289.773 42.7132 295.145 44.1526 297.561 48.3377C299.978 52.5227 298.538 57.8947 294.353 60.311ZM288.149 49.5658C286.409 50.5706 285.812 52.8011 286.816 54.5414C287.821 56.2817 290.052 56.8793 291.792 55.8745C293.531 54.8705 294.13 52.6393 293.125 50.899C292.12 49.1587 289.889 48.5618 288.149 49.5658Z" fill="black"/>
<path d="M168.547 122.823C170.26 125.791 169.243 129.585 166.276 131.298C163.309 133.011 159.515 131.994 157.801 129.027C156.088 126.059 157.105 122.265 160.071 120.552C163.039 118.838 166.833 119.855 168.547 122.823Z" fill="#FEDA38"/>
<path d="M167.563 133.515C163.378 135.932 158.006 134.492 155.59 130.307C153.173 126.122 154.613 120.75 158.798 118.334C162.984 115.917 168.356 117.356 170.772 121.541C173.189 125.726 171.748 131.099 167.563 133.515ZM161.359 122.77C159.62 123.774 159.021 126.005 160.026 127.746C161.031 129.486 163.262 130.083 165.001 129.079C166.742 128.074 167.341 125.843 166.336 124.103C165.331 122.362 163.099 121.765 161.359 122.77Z" fill="black"/>
</svg>
