<svg width="280" height="350" viewBox="0 0 280 350" fill="none" xmlns="http://www.w3.org/2000/svg">
<path fill-rule="evenodd" clip-rule="evenodd" d="M57.3781 131.522C57.0331 131.698 56.5081 132.118 56.2114 132.455C55.9078 132.8 55.5753 133.351 55.4511 133.715C55.239 134.337 55.2305 136.646 55.2305 194.135V253.909L55.6269 254.731C55.8449 255.184 56.2242 255.735 56.4698 255.955C56.7153 256.175 57.2187 256.501 57.5884 256.678L58.2606 257H143.649C225.918 257 229.06 256.992 229.67 256.775C230.027 256.647 230.565 256.308 230.906 255.995C231.255 255.674 231.653 255.142 231.849 254.734L232.188 254.027L232.219 194.383C232.247 140.194 232.233 134.678 232.058 134.062C231.952 133.69 231.705 133.147 231.508 132.856C231.312 132.564 230.965 132.18 230.738 132.003C230.51 131.825 230.048 131.573 229.709 131.442C229.105 131.207 227.712 131.203 143.55 131.203H58.0052L57.3781 131.522ZM224.492 194.071V249.134H143.709H62.9269V194.071V139.007H143.709H224.492V194.071ZM125.226 194.13V217.689L125.62 217.448C125.836 217.315 135.028 212.006 146.047 205.65L166.079 194.095L165.621 193.819C165.369 193.668 156.26 188.407 145.379 182.129C134.499 175.851 125.513 170.682 125.411 170.642C125.245 170.577 125.226 173.038 125.226 194.13Z" fill="#6561FC"/>
<path d="M59.0957 253.783V135.651H228.079V253.783H59.0957Z" stroke="#8186FE" stroke-width="5" stroke-linecap="round" stroke-linejoin="round"/>
<path d="M87.2012 114.107H198.217" stroke="#FF8802" stroke-width="8" stroke-linecap="round" stroke-linejoin="round"/>
<path d="M115.656 94H176.434" stroke="#F5564E" stroke-width="8" stroke-linecap="round" stroke-linejoin="round"/>
<path d="M124.791 218.236V170.122L166.598 193.82L124.791 218.236Z" fill="#F5D01F" stroke="#F5564E" stroke-width="3" stroke-linecap="round" stroke-linejoin="round"/>
<path d="M63.3302 226.321L68.7324 228.5L68.943 223.274L67.7324 218.69L63.2051 218.69L63.3302 226.321Z" fill="#8F530E"/>
<path d="M88.9888 169.519C89.1556 169.68 90.08 169.993 90.4738 169.987C90.6245 169.164 90.4326 167.476 90.4294 167.279C90.4262 167.083 90.5787 166.374 90.4092 166.049L89.4166 165.573L87.6735 164.37L87.9034 163.382L88.6459 163.616L89.8967 164.826L90.8773 164.564L90.6231 164.076L90.0864 161.376L91.765 158.64L94.7227 158.838L98.5198 165.177L98.7498 164.189L98.7336 163.204L99.4599 162.454C99.3752 162.291 99.2049 161.916 99.2017 161.719L99.1815 160.488L99.1775 160.242L98.6812 160.004L98.6691 159.266L98.661 158.774L97.9145 158.293L97.6522 157.313L96.6677 157.329L97.1478 156.582L96.1552 156.106L95.6508 155.376L95.4047 155.38L94.6663 155.392L94.412 154.904L93.6696 154.67L93.4235 154.674L92.9312 154.682L92.1806 153.956L91.4463 154.214L90.7159 154.718L90.4698 154.722L89.7232 154.242L88.7467 154.751L88.5087 155.247L88.0124 155.009L87.2779 155.267L87.286 155.759L86.7978 156.014L85.8133 156.03L85.8254 156.768L85.5913 157.511L85.099 157.519L84.6149 158.019L84.869 158.507L84.1386 159.012L83.8997 159.508L84.1588 160.242C84.1655 160.653 84.0805 161.475 83.6867 161.481C83.2929 161.488 83.6996 162.302 83.9522 162.708L84.2113 163.442C84.2153 163.688 84.1257 164.231 83.7351 164.435C83.3445 164.638 83.9059 164.842 84.2355 164.919L84.2556 166.15L84.9941 166.138L85.2563 167.118L85.7486 167.11L85.7607 167.848L86.5032 168.082L86.2691 168.825L87.4999 168.805L87.9962 169.043L88.9807 169.027L88.9888 169.519Z" fill="black"/>
<path d="M90.2595 171.96L89.0409 172.719C90.0362 173.359 92.0761 174.639 92.273 174.636C92.4699 174.632 95.3276 175.734 96.7318 176.286L100.682 176.96L100.876 173.756L99.8307 170.08L97.6114 169.87L97.0788 167.417L98.5556 167.393L98.5153 164.931L94.7223 158.838L91.5144 158.398L89.8197 160.15L89.6099 162.369L90.6267 164.322L89.8883 164.334C89.6914 164.337 89.3032 163.687 89.1337 163.361L87.903 163.382L87.673 164.37L88.6737 165.339L90.1667 166.299L90.2595 171.96Z" fill="#D67F69"/>
<path d="M106.226 169.729C104.634 169.359 102.042 169.797 102.042 169.797L105.524 171.956L109.519 175.337L110.883 183.44L122.73 185.215C122.73 185.215 125.092 186.379 126.696 186.874C130.748 188.123 137.539 187.435 137.539 187.435L140.024 188.871L143.49 190.045L141.731 187.858L146.69 189.993L148.659 189.961L144.156 185.603L139.479 185.679L113.223 176.015L111.456 173.336C111.456 173.336 108.643 170.289 106.226 169.729Z" fill="#D67F69"/>
<path d="M75.654 182.048C75.654 182.048 85.0969 194.696 90.0956 191.906C91.6389 191.044 90.0351 188.213 90.0351 188.213C90.0351 188.213 90.3978 183.327 89.1715 180.595C87.8341 177.616 86.5688 177.276 83.6758 175.761C80.1675 173.924 73.3016 173.715 73.3016 173.715C73.3016 173.715 70.4295 170.576 68.06 169.37C66.0003 168.321 62.3705 167.739 62.3705 167.739C62.3705 167.739 61.0538 160.803 59.2352 156.712C57.3601 152.493 52.9163 146.721 52.9163 146.721L47.6465 140.652L47.6788 142.621L49.196 145.058L55.753 169.571C55.753 169.571 58.4225 173.061 60.5184 174.91C65.4198 179.232 75.654 182.048 75.654 182.048Z" fill="#D67F69"/>
<path d="M90.0613 219.974L94.8954 214.478L96.114 213.719L110.12 212.012L109.272 220.397L99.6608 234.835L86.5347 230.126L90.0613 219.974Z" fill="#3014FF"/>
<path d="M78.7676 221.883C81.5351 224.265 87.4028 230.616 88 231L86.9023 237.506L68.7848 228.694L67.6348 218.618C67.6348 218.618 76 219.5 78.7676 221.883Z" fill="#D67F69"/>
<path d="M85.2038 239.011L87.0357 230.61L87.5159 229.864L99.4114 234.593L92.9633 246.763L91.0143 248.026L72.4998 247.5L72.3601 236.514C72.3601 236.514 75.6771 236.158 77.7752 236.425C80.8225 236.813 85.2038 239.011 85.2038 239.011Z" fill="#D67F69"/>
<path d="M72.7285 247.5L72.7285 236.5C72.7285 236.5 69.9506 236.735 68.4271 237.104C66.4955 237.571 63.229 238.5 63.229 238.5L63.2308 248L72.7285 247.5Z" fill="#8F530E"/>
<path d="M84.3711 173.287C83.5249 174.023 82.9346 175.773 82.9346 175.773L83.435 176.257C83.435 176.257 85.902 177.645 87.1714 178.904C88.3455 180.069 89.2292 180.721 89.6893 182.31C90.037 183.51 89.9074 184.271 89.7418 185.51C89.3656 188.324 86.4007 191.966 86.4007 191.966C86.4007 191.966 89.2775 196.29 90.7062 199.281C93.3697 204.859 95.1407 214.474 95.1407 214.474L109.881 212.508L111.374 183.432C111.374 183.432 111.412 179.17 110.28 176.802C109.048 174.223 107.735 172.913 105.269 171.468C103.589 170.483 100.564 169.821 100.564 169.821L99.8255 169.833C99.8255 169.833 101.617 172.738 101.383 174.732C101.277 175.638 101.382 176.376 100.681 176.959C99.8681 177.636 99.0274 177.089 97.9734 177.004C93.9879 176.68 88.7895 172.476 88.7895 172.476C88.7895 172.476 85.6952 172.137 84.3711 173.287Z" fill="#FEF7FA"/>
<circle cx="54.2551" cy="138.328" r="7.13903" transform="rotate(-0.93917 54.2551 138.328)" fill="#FC8900"/>
<path d="M167.584 143.521L177.313 152.602L178.679 151.559L182.325 144.66L150.291 124.604L146.125 118.872L143.191 118L146.046 122.36L143.899 122.312L145.973 125.581L149.444 126.465L164.424 140.765L167.584 143.521Z" fill="#F2AE71"/>
<path d="M211.38 237.41L204.739 246.12L208.454 248.084C209.34 248.462 213.232 249 213.232 249C213.232 249 220.598 249.108 223.732 249C223.732 249 219.823 241.749 215.101 239.105C213.707 238.326 211.38 237.41 211.38 237.41Z" fill="#B8E0EE"/>
<path d="M192.307 237.784L193.702 223.586L194.239 223.598L210.011 226.64L205.243 235.66L205.213 237.002L211.653 237.148L204.994 246.663L193.869 239.968L192.307 237.784Z" fill="#D4965F"/>
<path d="M169.865 232.712L174.53 228.253L174.542 227.717L164.765 220.783C164.765 220.783 161.806 223.903 160.081 226.047C154.144 233.427 146.73 249.188 146.73 249.188L151.232 249.188C151.232 249.188 155.497 242.095 159.796 238.66C163.364 235.809 169.865 232.712 169.865 232.712Z" fill="#B8E0EE"/>
<path d="M175.06 228.534L164.215 221.308C164.215 221.308 167.992 216.253 170.838 213.403C173.514 210.723 178.229 207.126 178.229 207.126L191.459 215.749C191.459 215.749 185.016 217.965 181.683 220.629C178.537 223.143 175.06 228.534 175.06 228.534Z" fill="#D4965F"/>
<path d="M182.332 168.019L178.8 158.005L182.587 156.748L192.546 155.631L193.321 156.991L195.854 175.574L177.29 189.116L169.161 192.423L166.953 195.058L164.794 195.546L163.453 195.516L163.739 194.717L165.099 193.942C164.741 193.934 163.973 193.863 163.763 193.643C163.554 193.424 161.31 195.288 160.214 196.248L158.079 195.663L162.726 192.009L166.502 191.289L176.643 182.121L186.474 174.825L182.332 168.019Z" fill="#D4965F"/>
<path d="M191.515 216.019L177.411 207.38L192.01 194.12L194.888 190.857L205.537 191.098L211.552 197.89L221.846 201.451L217.946 212.734C217.946 212.734 212.076 208.838 209.421 205.33C207.394 202.652 207.856 200.037 205.387 197.751C202.73 195.29 196.774 194.228 196.774 194.228C196.774 194.228 198.599 203.907 196.82 209.158C195.746 212.327 191.515 216.019 191.515 216.019Z" fill="#5C40B5"/>
<path d="M210.908 226.928L193.94 224.413L194.061 219.089L196.84 193.317C196.84 193.317 202.276 194.017 205.02 195.899C207.064 197.302 207.634 198.718 209.309 200.524C210.983 202.33 218.109 212.324 218.109 212.324L210.908 226.928Z" fill="#4D2EAE"/>
<path d="M174.652 139.188L176.158 133.119L177.042 130.364L179.542 128.756L183.099 128.837L186.09 129.737L188.726 134.235L188.06 139.492L187.406 144.193L185.217 144.144L181.355 145.444L180.553 144.593L176.175 144.494L175.665 142.818L175.747 139.213L174.652 139.188Z" fill="#CB884C"/>
<path d="M175.338 132.152L176.119 133.243L176.113 133.512L177.98 134.091L177.992 133.554L179.852 134.402L180.364 135.487L181.163 135.774C181.426 136.048 182.162 136.709 183.011 137.158C183.651 137.387 183.623 137.798 183.53 137.975C183.705 138.158 184.213 138.635 184.847 139.079C185.64 139.634 184.835 139.616 184.829 139.884C184.823 140.152 184.537 140.951 184.531 141.22C184.526 141.434 184.874 141.854 185.049 142.037C185.126 142.576 185.444 143.549 186.098 143.135C186.915 142.616 186.373 142.872 186.647 142.61C186.921 142.348 187.135 144.769 187.69 143.976C188.245 143.183 188.025 141.03 188.849 140.243C189.672 139.457 189.135 139.444 189.141 139.176C189.147 138.908 189.446 137.572 189.19 137.029C188.934 136.486 189.208 136.224 190.043 134.901C190.712 133.842 190.342 133.565 190.074 133.559C189.813 133.195 189.187 132.411 188.762 132.187C188.232 131.906 187.981 131.095 187.457 130.546L186.408 129.449C185.792 128.987 184.506 128.063 184.291 128.058C184.023 128.052 180.784 128.784 180.522 128.51C180.312 128.29 179.898 128.406 179.717 128.492L178.644 128.468L177.546 129.517L176.729 130.035L175.363 131.078L175.338 132.152Z" fill="#3A3131" stroke="black" stroke-linecap="round" stroke-linejoin="round"/>
<path d="M181.244 145.173C183.25 143.759 187.197 143.16 187.197 143.16C187.197 143.16 195.761 146.37 200.749 149.373C207.649 153.528 211.72 156.179 216.559 162.618C220.728 168.165 224.252 178.633 224.252 178.633C224.252 178.633 225.424 184.182 225.655 187.794C226.024 193.556 224.517 202.535 224.517 202.535C224.517 202.535 222.892 203.085 221.815 203.279C219.442 203.707 217.989 203.696 215.643 203.14C213.54 202.641 212.362 202.118 210.592 200.878C208.283 199.259 208.289 196.873 205.883 195.401C204.638 194.639 203.837 194.354 202.425 193.981C198.541 192.952 192.501 193.488 192.501 193.488L193.611 191.902C193.611 191.902 194.916 189.9 195.038 188.175C195.188 186.042 195.484 185.284 194.611 183.333C193.789 181.495 191.482 179.234 191.482 179.234L195.861 175.575L193.059 156.985C193.059 156.985 189.948 156.743 187.96 156.87C184.18 157.112 178.513 159.073 178.513 159.073C178.513 159.073 177.246 156.686 176.994 155.011C176.632 152.607 176.825 151.018 177.939 148.857C178.824 147.139 179.664 146.287 181.244 145.173Z" fill="#B8E0EE"/>
</svg>
