<svg width="280" height="350" viewBox="0 0 280 350" fill="none" xmlns="http://www.w3.org/2000/svg">
<path fill-rule="evenodd" clip-rule="evenodd" d="M217.742 99.7579C216.448 99.9181 214.311 100.464 212.992 100.973C211.673 101.48 209.348 102.839 207.825 103.992C206.302 105.145 204.286 107.302 203.344 108.785L201.63 111.482L196.519 108.742C193.708 107.235 189.641 105.39 187.481 104.642C185.159 103.838 180.86 102.941 176.962 102.447C172.972 101.942 168.782 101.728 166.349 101.904C164.138 102.064 159.966 102.789 157.078 103.515C154.189 104.241 149.902 105.73 147.552 106.825C145.202 107.919 141.219 110.21 138.701 111.915C136.184 113.62 132.682 116.544 130.92 118.412C129.158 120.28 123.215 125.601 117.714 130.237C112.212 134.872 92.7276 151.268 74.4152 166.671L41.1194 194.678L59.0792 215.616L77.0384 236.555L104.043 219.639C118.895 210.335 131.19 202.735 131.364 202.749C131.538 202.763 133.813 204.351 136.419 206.28C139.026 208.208 143.179 210.708 145.649 211.835C148.119 212.962 152.365 214.539 155.085 215.339C159.158 216.538 161.292 216.847 167.198 217.092C172.614 217.317 175.609 217.155 179.449 216.429C182.244 215.9 186.591 214.704 189.108 213.771C191.626 212.839 195.633 210.965 198.013 209.608C200.392 208.252 204.326 205.455 206.754 203.393C209.182 201.332 212.691 197.728 214.552 195.384C216.413 193.04 219.034 189.064 220.377 186.548C221.72 184.031 223.457 180.089 224.237 177.786C225.151 175.088 225.972 170.983 226.546 166.241C227.219 160.676 227.323 157.621 226.97 153.701C226.713 150.851 226.05 146.566 225.496 144.178C224.943 141.79 224.571 139.785 224.671 139.722C224.771 139.659 225.991 139.18 227.382 138.658C228.773 138.137 231.147 136.684 232.658 135.429C234.224 134.129 236.222 131.739 237.307 129.866C238.836 127.229 239.316 125.744 239.746 122.315C240.104 119.454 240.079 117.077 239.669 115.103C239.333 113.484 238.354 110.944 237.493 109.459C236.633 107.974 235.006 105.931 233.877 104.92C232.748 103.909 230.577 102.5 229.053 101.79C227.529 101.081 224.889 100.268 223.187 99.9838C221.485 99.6993 219.034 99.5982 217.742 99.7579ZM223.145 113.595C224.074 114.071 225.298 115.153 225.865 116C226.637 117.153 226.838 118.261 226.665 120.411C226.458 122.975 226.226 123.456 224.49 124.922C222.749 126.392 222.242 126.539 219.622 126.328C217.266 126.138 216.41 125.809 215.212 124.633C214.395 123.831 213.519 122.333 213.266 121.303C213.009 120.258 213.031 118.7 213.316 117.773C213.597 116.862 214.13 115.687 214.501 115.162C214.872 114.637 216.164 113.847 217.372 113.405C218.58 112.963 219.993 112.63 220.512 112.666C221.031 112.701 222.216 113.119 223.145 113.595Z" fill="#E24B3C"/>
<path d="M137.438 130.245L129.396 138.661L148.403 159.454L157.663 150.047L137.438 130.245Z" fill="#AC3023"/>
<path d="M107.404 117.55V111.694L75.666 104.863V123.649L107.404 117.55Z" fill="#FBD84D"/>
<path d="M107.404 94.8606L102.693 100.228L75.666 82.6622L90.7912 69L107.404 94.8606Z" fill="#FBD84D"/>
<path d="M126.496 100.228H120.794L114.099 69H132.199L126.496 100.228Z" fill="#FBD84D"/>
<path fill-rule="evenodd" clip-rule="evenodd" d="M137.832 190.883C137.282 191.058 136.382 191.437 135.833 191.725C135.283 192.013 134.36 192.739 133.783 193.337C133.206 193.936 132.433 195.09 132.065 195.9C131.67 196.771 131.346 198.012 131.272 198.935C131.189 199.982 131.286 200.986 131.568 201.986C131.8 202.806 132.384 204.062 132.867 204.778C133.349 205.494 134.335 206.489 135.057 206.989C135.779 207.489 136.913 208.062 137.578 208.264C138.242 208.465 139.423 208.63 140.201 208.63C140.979 208.63 142.175 208.462 142.859 208.258C143.543 208.054 144.628 207.536 145.271 207.108C145.913 206.68 146.849 205.768 147.351 205.08C147.853 204.393 148.475 203.146 148.733 202.311C148.992 201.476 149.204 200.257 149.204 199.603C149.204 198.949 149.025 197.811 148.808 197.073C148.59 196.336 148.152 195.318 147.834 194.813C147.517 194.307 146.672 193.364 145.957 192.717C145.021 191.871 144.201 191.399 143.03 191.036C142.135 190.758 140.825 190.538 140.118 190.547C139.41 190.556 138.382 190.708 137.832 190.883ZM117.713 195.275C117.369 195.389 116.638 195.716 116.088 196.001C115.539 196.287 114.679 196.955 114.178 197.485C113.677 198.015 113.003 198.958 112.68 199.58C112.192 200.522 112.093 201.09 112.091 202.974C112.09 204.832 112.193 205.447 112.667 206.416C112.985 207.064 113.699 208.065 114.253 208.64C114.807 209.214 115.876 209.968 116.627 210.314C117.68 210.798 118.417 210.945 119.846 210.955C121.444 210.965 121.926 210.855 123.341 210.154C124.495 209.583 125.269 208.976 125.95 208.111C126.481 207.434 127.109 206.298 127.344 205.586C127.65 204.66 127.738 203.781 127.655 202.501C127.58 201.335 127.342 200.317 126.973 199.58C126.662 198.958 125.997 198.015 125.497 197.484C124.996 196.954 124.024 196.228 123.336 195.872C122.391 195.382 121.63 195.205 120.212 195.146C119.181 195.104 118.057 195.162 117.713 195.275ZM157.858 195.479C157.169 195.719 156.083 196.415 155.355 197.084C154.648 197.734 153.798 198.812 153.466 199.48C153.041 200.337 152.833 201.251 152.759 202.588C152.675 204.099 152.763 204.772 153.193 205.92C153.523 206.798 154.167 207.808 154.85 208.514C155.464 209.15 156.596 209.96 157.366 210.314C158.485 210.829 159.136 210.955 160.613 210.941C162.018 210.928 162.781 210.776 163.804 210.305C164.543 209.965 165.59 209.242 166.13 208.699C166.67 208.155 167.374 207.166 167.695 206.5C168.077 205.706 168.315 204.674 168.387 203.503C168.475 202.077 168.385 201.417 167.939 200.229C167.63 199.404 166.927 198.245 166.362 197.63C165.802 197.018 164.777 196.227 164.084 195.871C163.141 195.387 162.354 195.203 160.95 195.14C159.654 195.082 158.7 195.187 157.858 195.479ZM137.695 210.391C136.932 210.511 135.656 210.855 134.86 211.155C134.063 211.455 132.838 212.17 132.138 212.744C131.311 213.422 129.614 215.547 127.291 218.813C125.326 221.577 123.482 224.319 123.193 224.906C122.796 225.713 122.71 226.204 122.842 226.917C122.938 227.436 124.157 230.685 125.551 234.139C127.815 239.748 128.175 240.478 128.934 240.989C129.465 241.346 130.159 241.56 130.785 241.56H131.787L131.607 249.039C131.508 253.152 131.337 259.623 131.226 263.419C131.115 267.216 131.118 270.653 131.234 271.058C131.349 271.463 131.644 272.017 131.888 272.289C132.132 272.56 132.636 272.941 133.008 273.134C133.379 273.327 134.167 273.485 134.758 273.485C135.349 273.485 136.222 273.286 136.699 273.045C137.175 272.803 137.776 272.237 138.034 271.788C138.414 271.127 138.544 270.142 138.72 266.635C138.84 264.25 139.052 259.697 139.193 256.517C139.333 253.337 139.521 249.514 139.61 248.021C139.748 245.708 139.832 245.318 140.177 245.384C140.517 245.45 140.608 246.024 140.749 248.978C140.841 250.913 141.093 255.832 141.308 259.911C141.523 263.989 141.767 268.191 141.851 269.247C141.948 270.473 142.177 271.456 142.485 271.964C142.749 272.403 143.354 272.924 143.828 273.123C144.301 273.322 145.182 273.485 145.785 273.485C146.506 273.485 147.17 273.291 147.73 272.916C148.197 272.603 148.77 271.953 149.003 271.471C149.389 270.674 149.407 269.996 149.193 264.058C149.064 260.464 148.845 254.355 148.706 250.484C148.568 246.613 148.454 243.035 148.454 242.532C148.454 241.64 148.476 241.619 149.435 241.606C149.975 241.598 150.761 241.413 151.182 241.194C151.603 240.975 152.111 240.543 152.311 240.235C152.51 239.927 153.748 236.96 155.062 233.642C156.375 230.323 157.515 227.259 157.596 226.832C157.679 226.39 157.587 225.687 157.383 225.198C157.187 224.727 155.475 222.135 153.58 219.439C151.684 216.743 149.683 214.063 149.131 213.483C148.58 212.904 147.499 212.099 146.729 211.695C145.96 211.29 144.824 210.839 144.205 210.692C143.586 210.545 142.181 210.368 141.081 210.298C139.981 210.229 138.458 210.271 137.695 210.391ZM116.785 213.002C116.205 213.192 115.228 213.644 114.613 214.006C113.999 214.369 113.114 215.146 112.648 215.732C112.182 216.319 110.21 219.422 108.267 222.629C106.324 225.835 104.664 228.737 104.579 229.079C104.494 229.42 104.65 230.53 104.926 231.545C105.202 232.56 105.843 235.2 106.352 237.412C106.86 239.624 107.436 241.75 107.633 242.137C107.829 242.523 108.35 243.066 108.79 243.344C109.35 243.697 109.854 243.811 110.465 243.723C110.946 243.654 111.565 243.529 111.84 243.445C112.312 243.301 112.336 243.393 112.265 245.129C112.224 246.138 111.915 250.35 111.578 254.487C111.241 258.624 110.965 262.89 110.965 263.968C110.965 265.793 111.017 265.986 111.727 266.799C112.146 267.28 112.878 267.802 113.353 267.959C113.833 268.119 114.575 268.167 115.027 268.069C115.473 267.972 116.148 267.672 116.526 267.403C116.905 267.134 117.346 266.668 117.507 266.366C117.668 266.065 117.999 263.386 118.242 260.413C118.485 257.441 118.878 252.605 119.115 249.667C119.352 246.729 119.627 244.325 119.725 244.325C119.823 244.325 119.973 245.145 120.058 246.148C120.143 247.15 120.33 250.629 120.474 253.878C120.618 257.127 120.829 261.109 120.944 262.729C121.098 264.883 121.282 265.893 121.632 266.496C121.946 267.035 122.513 267.487 123.277 267.805C124.277 268.222 124.582 268.249 125.427 267.994C125.969 267.831 126.638 267.501 126.914 267.261C127.365 266.868 127.433 266.4 127.581 262.676C127.693 259.856 127.61 256.235 127.319 251.364L126.892 244.2L125.739 242.928C124.719 241.803 124.275 240.869 121.89 234.827C119.694 229.265 119.191 227.75 119.178 226.66C119.169 225.925 119.296 224.872 119.46 224.322C119.624 223.771 120.395 222.392 121.172 221.258C121.95 220.123 123.251 218.231 124.062 217.053C125.475 215.003 125.519 214.893 125.106 214.434C124.869 214.171 124.093 213.699 123.381 213.386C122.452 212.977 121.487 212.794 119.962 212.736C118.627 212.686 117.447 212.785 116.785 213.002ZM157.738 213.118C157.002 213.382 156.103 213.825 155.739 214.102C155.375 214.38 155.09 214.761 155.105 214.949C155.121 215.137 156.328 216.997 157.788 219.083C159.248 221.169 160.613 223.36 160.822 223.954C161.03 224.547 161.2 225.717 161.2 226.554C161.2 227.902 160.886 228.867 158.436 235.051C155.968 241.28 155.556 242.143 154.595 243.113L153.517 244.2L153.073 251.992C152.736 257.895 152.682 260.669 152.852 263.43L153.077 267.075L154.202 267.655C155.042 268.088 155.568 268.198 156.281 268.089C156.807 268.009 157.502 267.768 157.826 267.554C158.151 267.341 158.608 266.872 158.842 266.512C159.143 266.05 159.324 265.006 159.46 262.947C159.566 261.346 159.722 258.453 159.807 256.517C159.892 254.581 160.018 251.923 160.087 250.61C160.156 249.296 160.278 247.345 160.357 246.273C160.437 245.202 160.584 244.325 160.684 244.325C160.784 244.325 161.06 246.729 161.297 249.667C161.535 252.605 161.927 257.442 162.17 260.417C162.51 264.593 162.71 265.977 163.047 266.495C163.287 266.864 163.741 267.335 164.055 267.542C164.369 267.749 165.032 267.995 165.529 268.088C166.196 268.214 166.713 268.122 167.508 267.735C168.101 267.446 168.794 266.854 169.052 266.414C169.477 265.69 169.505 265.257 169.353 261.637C169.26 259.448 169.14 257.513 169.085 257.338C169.03 257.163 168.924 256.171 168.851 255.134C168.777 254.098 168.602 251.665 168.462 249.73C168.321 247.794 168.166 245.552 168.118 244.747C168.033 243.357 168.055 243.291 168.551 243.455C168.838 243.55 169.466 243.677 169.947 243.736C170.537 243.809 171.083 243.681 171.622 243.342C172.062 243.065 172.583 242.523 172.78 242.137C172.976 241.75 173.55 239.624 174.054 237.412C174.559 235.2 175.195 232.577 175.467 231.583C175.776 230.457 175.897 229.51 175.788 229.07C175.692 228.681 173.933 225.591 171.879 222.204C169.825 218.817 167.791 215.671 167.359 215.213C166.927 214.756 165.857 214.027 164.981 213.593C163.641 212.929 163.044 212.79 161.232 212.721C159.586 212.658 158.759 212.752 157.738 213.118ZM132.958 228.162C132.958 230.609 132.864 232.504 132.748 232.372C132.632 232.241 132.071 230.957 131.502 229.52L130.467 226.906L131.601 225.309C132.224 224.431 132.784 223.712 132.846 223.712C132.908 223.712 132.958 225.714 132.958 228.162ZM148.812 225.309L149.944 226.906L148.934 229.52C148.378 230.957 147.817 232.241 147.688 232.372C147.543 232.521 147.454 230.932 147.454 228.162C147.454 225.714 147.505 223.712 147.566 223.712C147.628 223.712 148.189 224.431 148.812 225.309ZM112.714 231.52C112.714 233.325 112.62 234.744 112.506 234.673C112.391 234.601 112.095 233.573 111.847 232.386C111.415 230.314 111.415 230.19 111.844 229.233C112.09 228.685 112.386 228.237 112.503 228.237C112.619 228.237 112.714 229.714 112.714 231.52ZM168.569 229.233C168.998 230.19 168.998 230.314 168.565 232.386C168.318 233.573 168.021 234.601 167.907 234.673C167.792 234.744 167.698 233.325 167.698 231.52C167.698 229.714 167.794 228.237 167.91 228.237C168.027 228.237 168.323 228.685 168.569 229.233ZM105.127 260.464C104.047 261.037 102.55 262.069 101.8 262.759C101.05 263.448 100.162 264.556 99.8275 265.221C99.4089 266.052 99.2192 266.845 99.2207 267.758C99.2227 268.765 99.4009 269.398 99.9585 270.376C100.363 271.085 101.29 272.192 102.018 272.835C102.746 273.478 104.467 274.557 105.841 275.233C107.216 275.909 109.634 276.865 111.215 277.357C112.796 277.849 115.776 278.587 117.838 278.995C119.9 279.404 123.105 279.918 124.961 280.138C126.816 280.358 129.684 280.632 131.334 280.746C132.983 280.861 136.639 280.974 139.456 280.997C142.274 281.02 146.267 280.923 148.329 280.781C150.391 280.639 153.596 280.345 155.452 280.127C157.307 279.91 160.456 279.407 162.45 279.009C164.443 278.612 167.086 277.99 168.323 277.629C169.56 277.267 171.416 276.632 172.447 276.218C173.478 275.804 175.008 275.079 175.848 274.608C176.687 274.137 177.944 273.237 178.64 272.607C179.336 271.978 180.195 270.878 180.55 270.162C180.974 269.306 181.194 268.448 181.194 267.651C181.194 266.945 180.975 265.972 180.668 265.315C180.379 264.696 179.495 263.587 178.705 262.851C177.914 262.115 176.343 261.029 175.213 260.438C174.083 259.846 173.1 259.421 173.028 259.493C172.957 259.565 172.977 260.569 173.073 261.724L173.247 263.825L174.221 264.389C174.756 264.699 175.581 265.293 176.052 265.71C176.524 266.127 176.982 266.794 177.069 267.193C177.167 267.645 177.08 268.204 176.836 268.677C176.622 269.095 176.08 269.713 175.633 270.051C175.187 270.388 174.146 271.002 173.321 271.415C172.497 271.828 171 272.462 169.994 272.825C168.989 273.188 166.852 273.816 165.246 274.22C163.639 274.624 160.919 275.183 159.201 275.461C157.482 275.74 155.064 276.087 153.827 276.232C152.59 276.377 149.329 276.62 146.579 276.773C143.728 276.931 139.434 276.978 136.582 276.883C133.833 276.791 129.953 276.555 127.96 276.36C125.967 276.163 122.93 275.768 121.212 275.48C119.494 275.192 116.773 274.626 115.167 274.221C113.56 273.816 111.423 273.188 110.418 272.825C109.413 272.462 107.916 271.828 107.091 271.415C106.266 271.002 105.226 270.388 104.779 270.051C104.332 269.713 103.798 269.109 103.592 268.708C103.386 268.308 103.217 267.756 103.217 267.484C103.217 267.211 103.499 266.651 103.843 266.24C104.187 265.829 105.058 265.12 105.78 264.665C106.501 264.21 107.108 263.831 107.128 263.822C107.149 263.814 107.246 262.817 107.345 261.607C107.445 260.391 107.428 259.411 107.308 259.416C107.189 259.42 106.207 259.892 105.127 260.464Z" fill="#B2B4E9"/>
<path fill-rule="evenodd" clip-rule="evenodd" d="M105.127 260.378C104.047 260.951 102.55 261.983 101.8 262.672C101.05 263.362 100.162 264.47 99.8275 265.134C99.4089 265.965 99.2192 266.759 99.2207 267.671C99.2227 268.679 99.4009 269.311 99.9585 270.289C100.363 270.998 101.29 272.105 102.018 272.748C102.746 273.392 104.467 274.471 105.841 275.147C107.216 275.823 109.634 276.778 111.215 277.271C112.796 277.763 115.776 278.5 117.838 278.909C119.9 279.317 123.105 279.832 124.961 280.052C126.816 280.272 129.684 280.545 131.334 280.66C132.983 280.774 136.639 280.887 139.456 280.91C142.274 280.934 146.267 280.836 148.329 280.694C150.391 280.552 153.596 280.258 155.452 280.041C157.307 279.823 160.456 279.32 162.45 278.923C164.443 278.525 167.086 277.904 168.323 277.542C169.56 277.18 171.416 276.545 172.447 276.131C173.478 275.717 175.008 274.993 175.848 274.522C176.687 274.051 177.944 273.15 178.64 272.521C179.336 271.891 180.195 270.791 180.55 270.076C180.974 269.219 181.194 268.362 181.194 267.565C181.194 266.858 180.975 265.886 180.668 265.228C180.379 264.609 179.495 263.5 178.705 262.764C177.914 262.028 176.343 260.942 175.213 260.351C174.083 259.76 173.1 259.335 173.028 259.407C172.957 259.478 172.977 260.482 173.073 261.638L173.247 263.738L174.221 264.302C174.756 264.612 175.581 265.207 176.052 265.623C176.524 266.04 176.982 266.707 177.069 267.106C177.167 267.559 177.08 268.117 176.836 268.591C176.622 269.009 176.08 269.627 175.633 269.964C175.187 270.302 174.146 270.916 173.321 271.328C172.497 271.741 171 272.376 169.994 272.739C168.989 273.102 166.852 273.73 165.246 274.134C163.639 274.538 160.919 275.096 159.201 275.375C157.482 275.653 155.064 276 153.827 276.145C152.59 276.29 149.329 276.534 146.579 276.686C143.728 276.844 139.434 276.892 136.582 276.796C133.833 276.704 129.953 276.469 127.96 276.273C125.967 276.077 122.93 275.681 121.212 275.393C119.494 275.105 116.773 274.539 115.167 274.134C113.56 273.73 111.423 273.102 110.418 272.739C109.413 272.376 107.916 271.741 107.091 271.328C106.266 270.916 105.226 270.302 104.779 269.964C104.332 269.627 103.798 269.023 103.592 268.622C103.386 268.221 103.217 267.67 103.217 267.397C103.217 267.124 103.499 266.565 103.843 266.154C104.187 265.743 105.058 265.034 105.78 264.578C106.501 264.123 107.108 263.744 107.128 263.736C107.149 263.727 107.246 262.731 107.345 261.521C107.445 260.305 107.428 259.325 107.308 259.329C107.189 259.333 106.207 259.805 105.127 260.378Z" fill="#E24B3C"/>
<path fill-rule="evenodd" clip-rule="evenodd" d="M137.825 190.883C137.275 191.058 136.375 191.437 135.825 191.725C135.276 192.013 134.353 192.739 133.776 193.337C133.199 193.936 132.426 195.09 132.058 195.9C131.663 196.771 131.339 198.012 131.265 198.935C131.182 199.982 131.279 200.986 131.561 201.986C131.793 202.806 132.377 204.062 132.86 204.778C133.342 205.494 134.328 206.489 135.05 206.989C135.772 207.489 136.906 208.062 137.571 208.264C138.235 208.465 139.416 208.63 140.193 208.63C140.971 208.63 142.168 208.462 142.852 208.258C143.536 208.054 144.621 207.536 145.264 207.108C145.906 206.68 146.842 205.768 147.344 205.08C147.846 204.393 148.468 203.146 148.726 202.311C148.985 201.476 149.197 200.257 149.197 199.603C149.197 198.949 149.018 197.811 148.801 197.073C148.583 196.336 148.145 195.318 147.827 194.813C147.51 194.307 146.665 193.364 145.95 192.717C145.014 191.871 144.194 191.399 143.023 191.036C142.128 190.758 140.818 190.538 140.11 190.547C139.403 190.556 138.375 190.708 137.825 190.883ZM137.688 210.391C136.925 210.511 135.649 210.855 134.853 211.155C134.056 211.455 132.831 212.17 132.131 212.744C131.304 213.422 129.607 215.547 127.284 218.813C125.319 221.577 123.475 224.319 123.186 224.906C122.789 225.713 122.703 226.204 122.835 226.917C122.931 227.436 124.15 230.685 125.544 234.139C127.808 239.748 128.168 240.478 128.927 240.989C129.458 241.346 130.152 241.56 130.778 241.56H131.78L131.6 249.039C131.501 253.152 131.33 259.623 131.219 263.419C131.108 267.216 131.111 270.653 131.227 271.058C131.342 271.463 131.636 272.017 131.881 272.289C132.125 272.56 132.629 272.941 133.001 273.134C133.372 273.327 134.16 273.485 134.751 273.485C135.342 273.485 136.215 273.286 136.692 273.045C137.168 272.803 137.769 272.237 138.027 271.788C138.406 271.127 138.537 270.142 138.713 266.635C138.833 264.25 139.045 259.697 139.185 256.517C139.326 253.337 139.514 249.514 139.603 248.021C139.741 245.708 139.825 245.318 140.17 245.384C140.51 245.45 140.601 246.024 140.742 248.978C140.834 250.913 141.086 255.832 141.301 259.911C141.516 263.989 141.76 268.191 141.844 269.247C141.941 270.473 142.17 271.456 142.478 271.964C142.742 272.403 143.347 272.924 143.821 273.123C144.294 273.322 145.175 273.485 145.778 273.485C146.499 273.485 147.163 273.291 147.722 272.916C148.19 272.603 148.763 271.953 148.996 271.471C149.382 270.674 149.4 269.996 149.186 264.058C149.057 260.464 148.838 254.355 148.699 250.484C148.561 246.613 148.447 243.035 148.447 242.532C148.447 241.64 148.469 241.619 149.428 241.606C149.968 241.598 150.754 241.413 151.175 241.194C151.596 240.975 152.104 240.543 152.304 240.235C152.503 239.927 153.741 236.96 155.055 233.642C156.368 230.323 157.508 227.259 157.589 226.832C157.672 226.39 157.58 225.687 157.376 225.198C157.18 224.727 155.468 222.135 153.572 219.439C151.677 216.743 149.676 214.063 149.124 213.483C148.573 212.904 147.492 212.099 146.722 211.695C145.952 211.29 144.817 210.839 144.198 210.692C143.579 210.545 142.174 210.368 141.074 210.298C139.974 210.229 138.45 210.271 137.688 210.391ZM132.951 228.162C132.951 230.609 132.857 232.504 132.741 232.372C132.625 232.241 132.064 230.957 131.495 229.52L130.46 226.906L131.594 225.309C132.217 224.431 132.777 223.712 132.839 223.712C132.901 223.712 132.951 225.714 132.951 228.162ZM148.805 225.309L149.937 226.906L148.927 229.52C148.371 230.957 147.81 232.241 147.681 232.372C147.536 232.521 147.447 230.932 147.447 228.162C147.447 225.714 147.498 223.712 147.559 223.712C147.621 223.712 148.182 224.431 148.805 225.309Z" fill="#6561FC"/>
</svg>
